M48
; DRILL file {KiCad 9.0.3} date 2025-09-10T16:08:07-0400
; FORMAT={-:-/ absolute / inch / decimal}
; #@! TF.CreationDate,2025-09-10T16:08:07-04:00
; #@! TF.GenerationSoftware,Kicad,Pcbnew,9.0.3
; #@! TF.FileFunction,Plated,1,2,PTH
FMAT,2
INCH
; #@! TA.AperFunction,Plated,PTH,ViaDrill
T1C0.0118
; #@! TA.AperFunction,Plated,PTH,ComponentDrill
T2C0.0394
; #@! TA.AperFunction,Plated,PTH,ComponentDrill
T3C0.1378
%
G90
G05
T1
X6.7896Y-2.8353
X6.7896Y-2.8944
X6.7896Y-2.9534
X6.7896Y-3.0125
X6.7896Y-3.0716
X6.7896Y-3.1306
X6.7896Y-3.1897
X6.7896Y-3.2487
X6.7896Y-3.3078
X6.7896Y-4.1936
X6.7896Y-4.2527
X6.7896Y-4.3117
X6.7896Y-4.3708
X6.7896Y-4.4298
X6.7896Y-4.8432
X6.7913Y-3.7402
X6.8406Y-3.7402
X6.8486Y-2.8353
X6.8486Y-2.8944
X6.8486Y-2.9534
X6.8486Y-3.0125
X6.8486Y-3.0716
X6.8486Y-3.1306
X6.8486Y-3.1897
X6.8486Y-3.2487
X6.8486Y-3.3078
X6.8486Y-4.1936
X6.8486Y-4.2527
X6.8486Y-4.3117
X6.8486Y-4.3708
X6.8486Y-4.4298
X6.8486Y-4.8432
X6.8996Y-3.7402
X6.9077Y-2.8353
X6.9077Y-3.3078
X6.9077Y-4.1936
X6.9077Y-4.2527
X6.9077Y-4.3117
X6.9077Y-4.3708
X6.9077Y-4.4298
X6.9077Y-4.8432
X6.939Y-3.7008
X6.939Y-3.7697
X6.9668Y-2.8353
X6.9668Y-4.8432
X6.9882Y-4.2126
X7.0258Y-2.8353
X7.0258Y-3.3078
X7.0258Y-3.3668
X7.0258Y-3.4259
X7.0258Y-3.4849
X7.0258Y-3.544
X7.0258Y-3.6031
X7.0258Y-3.8983
X7.0258Y-3.9574
X7.0258Y-4.0164
X7.0258Y-4.0755
X7.0258Y-4.1345
X7.0258Y-4.8432
X7.0849Y-2.5401
X7.0849Y-2.5991
X7.0849Y-2.6582
X7.0849Y-2.7172
X7.0849Y-2.7763
X7.0849Y-2.8353
X7.0849Y-4.1936
X7.0849Y-4.2527
X7.0849Y-4.3117
X7.0849Y-4.3708
X7.0849Y-4.5479
X7.0849Y-4.607
X7.0849Y-4.666
X7.0849Y-4.7251
X7.0849Y-4.7842
X7.0849Y-4.8432
X7.0849Y-4.9023
X7.0849Y-4.9613
X7.0849Y-5.0204
X7.0849Y-5.0794
X7.0849Y-5.1385
X7.126Y-3.4843
X7.1439Y-2.5401
X7.1439Y-2.5991
X7.1439Y-2.6582
X7.1439Y-2.7172
X7.1439Y-2.7763
X7.1439Y-2.8353
X7.1439Y-4.8432
X7.1439Y-4.9023
X7.1439Y-4.9613
X7.1439Y-5.0204
X7.1439Y-5.0794
X7.1439Y-5.1385
X7.203Y-2.5401
X7.203Y-2.5991
X7.203Y-2.6582
X7.203Y-2.7172
X7.203Y-2.7763
X7.203Y-2.8353
X7.203Y-2.8944
X7.203Y-3.1306
X7.203Y-3.1897
X7.203Y-3.2487
X7.203Y-3.3078
X7.203Y-3.3668
X7.203Y-3.4259
X7.203Y-3.544
X7.203Y-3.9574
X7.203Y-4.0755
X7.203Y-4.3117
X7.203Y-4.3708
X7.203Y-4.4298
X7.203Y-4.4889
X7.203Y-4.5479
X7.203Y-4.607
X7.203Y-4.666
X7.203Y-4.7251
X7.203Y-4.9023
X7.203Y-4.9613
X7.203Y-5.0204
X7.262Y-2.8353
X7.262Y-3.1306
X7.262Y-3.1897
X7.262Y-3.2487
X7.262Y-3.3078
X7.262Y-4.3708
X7.262Y-4.4298
X7.262Y-4.4889
X7.262Y-4.5479
X7.262Y-4.607
X7.262Y-4.666
X7.262Y-4.7251
X7.262Y-4.7842
X7.313Y-2.8937
X7.3211Y-3.0716
X7.3211Y-3.1306
X7.3211Y-3.1897
X7.3211Y-3.2487
X7.3211Y-3.3078
X7.3211Y-4.1936
X7.3211Y-4.4298
X7.3211Y-4.4889
X7.3211Y-4.5479
X7.3211Y-4.607
X7.3211Y-4.666
X7.3211Y-4.7251
X7.3211Y-4.7842
X7.3801Y-3.1306
X7.3801Y-3.1897
X7.3801Y-3.2487
X7.3801Y-3.3078
X7.3801Y-4.1936
X7.3801Y-4.2527
X7.3801Y-4.4889
X7.3801Y-4.5479
X7.3801Y-4.607
X7.3801Y-4.666
X7.3801Y-4.7251
X7.3801Y-4.7842
X7.4392Y-2.9534
X7.4392Y-3.0125
X7.4392Y-3.0716
X7.4392Y-3.1306
X7.4392Y-3.1897
X7.4392Y-3.2487
X7.4392Y-3.3078
X7.4392Y-4.1936
X7.4392Y-4.2527
X7.4392Y-4.3117
X7.4392Y-4.5479
X7.4392Y-4.607
X7.4392Y-4.666
X7.4392Y-4.7251
X7.4392Y-4.7842
X7.4982Y-2.8944
X7.4982Y-2.9534
X7.4982Y-3.0125
X7.4982Y-3.0716
X7.4982Y-3.1306
X7.4982Y-3.1897
X7.4982Y-3.2487
X7.4982Y-3.3078
X7.4982Y-4.1936
X7.4982Y-4.2527
X7.4982Y-4.3117
X7.4982Y-4.3708
X7.4982Y-4.607
X7.4982Y-4.666
X7.4982Y-4.7251
X7.4982Y-4.7842
X7.5573Y-2.5401
X7.5573Y-2.5991
X7.5573Y-2.6582
X7.5573Y-2.8944
X7.5573Y-2.9534
X7.5573Y-3.0125
X7.5573Y-3.0716
X7.5573Y-3.1306
X7.5573Y-3.1897
X7.5573Y-3.2487
X7.5573Y-3.3078
X7.5573Y-4.1936
X7.5573Y-4.2527
X7.5573Y-4.3117
X7.5573Y-4.3708
X7.5573Y-4.4298
X7.5573Y-4.666
X7.5573Y-4.7251
X7.5573Y-4.9023
X7.5573Y-4.9613
X7.5573Y-5.0204
X7.5573Y-5.0794
X7.5573Y-5.1385
X7.6164Y-2.8944
X7.6164Y-2.9534
X7.6164Y-3.0125
X7.6164Y-3.0716
X7.6164Y-3.1306
X7.6164Y-3.1897
X7.6164Y-3.2487
X7.6164Y-3.3078
X7.6164Y-4.1936
X7.6164Y-4.2527
X7.6164Y-4.3117
X7.6164Y-4.3708
X7.6164Y-4.4298
X7.6164Y-4.4889
X7.6164Y-4.8432
X7.6164Y-4.9023
X7.6164Y-4.9613
X7.6164Y-5.0204
X7.6164Y-5.0794
X7.6164Y-5.1385
X7.6754Y-3.3078
X7.6754Y-3.3668
X7.6754Y-4.1345
X7.6754Y-4.1936
X7.6754Y-4.2527
X7.6754Y-4.3117
X7.6754Y-4.3708
X7.6754Y-4.4298
X7.6754Y-4.4889
X7.6754Y-4.5479
X7.6754Y-4.7842
X7.6754Y-4.8432
X7.6754Y-4.9023
X7.6754Y-4.9613
X7.6754Y-5.0204
X7.6754Y-5.0794
X7.6754Y-5.1385
X7.7345Y-3.3078
X7.7345Y-3.3668
X7.7345Y-3.4259
X7.7345Y-4.1345
X7.7345Y-4.1936
X7.7935Y-3.3078
X7.7935Y-3.3668
X7.7935Y-3.4259
X7.8228Y-4.7441
X7.9116Y-4.666
X7.9213Y-3.2992
X7.9707Y-2.5401
X7.9707Y-2.5991
X7.9707Y-2.6582
X7.9707Y-2.7172
X8.0297Y-2.6582
X8.0297Y-2.7172
X8.0297Y-2.8944
X8.0297Y-2.9534
X8.0297Y-3.0125
X8.0297Y-3.0716
X8.0297Y-3.1306
X8.0297Y-3.1897
X8.0297Y-4.8432
X8.0297Y-4.9023
X8.0297Y-4.9613
X8.0297Y-5.0204
X8.0297Y-5.0794
X8.0297Y-5.1385
X8.0888Y-2.6582
X8.0888Y-2.7172
X8.0888Y-3.0125
X8.0888Y-3.0716
X8.0888Y-3.1306
X8.0888Y-3.1897
X8.0888Y-4.2527
X8.0888Y-4.3117
X8.0888Y-4.3708
X8.0888Y-4.4298
X8.0888Y-4.4889
X8.0888Y-4.5479
X8.0888Y-4.607
X8.0888Y-4.666
X8.0888Y-4.8432
X8.0888Y-4.9023
X8.0888Y-4.9613
X8.0888Y-5.0204
X8.1479Y-4.1936
X8.1479Y-4.2527
X8.1479Y-4.3117
X8.1479Y-4.3708
X8.1479Y-4.4298
X8.1479Y-4.4889
X8.1479Y-4.5479
X8.1479Y-4.607
X8.1479Y-4.666
X8.1479Y-4.8432
X8.1479Y-4.9023
X8.1479Y-4.9613
X8.1479Y-5.0204
X8.266Y-2.6582
X8.266Y-2.7172
X8.266Y-2.8944
X8.266Y-2.9534
X8.266Y-3.0125
X8.266Y-3.0716
X8.266Y-3.1306
X8.266Y-3.1897
X8.266Y-3.2487
X8.325Y-2.6582
X8.325Y-2.7172
X8.325Y-4.1936
X8.325Y-4.2527
X8.325Y-4.3117
X8.325Y-4.3708
X8.325Y-4.4298
X8.325Y-4.4889
X8.325Y-4.5479
X8.325Y-4.607
X8.325Y-4.666
X8.325Y-4.8432
X8.325Y-4.9023
X8.325Y-4.9613
X8.325Y-5.0204
X8.3841Y-2.5401
X8.3841Y-2.5991
X8.3841Y-2.6582
X8.3841Y-2.7172
X8.3841Y-2.8944
X8.3841Y-4.1936
X8.3841Y-4.2527
X8.3841Y-4.3117
X8.3841Y-4.3708
X8.3841Y-4.4298
X8.3841Y-4.4889
X8.3841Y-4.5479
X8.3841Y-4.607
X8.3841Y-4.666
X8.3841Y-4.8432
X8.3841Y-4.9023
X8.3841Y-4.9613
X8.3841Y-5.0204
X8.4431Y-2.5401
X8.4431Y-2.5991
X8.4431Y-2.6582
X8.4431Y-4.1936
X8.4431Y-4.2527
X8.4431Y-4.3117
X8.4431Y-4.3708
X8.4431Y-4.4298
X8.4431Y-4.4889
X8.4431Y-4.5479
X8.4431Y-4.607
X8.4431Y-4.666
X8.4431Y-4.8432
X8.4431Y-4.9023
X8.4431Y-4.9613
X8.4431Y-5.0204
X8.4431Y-5.0794
X8.4431Y-5.1385
X8.4606Y-2.8583
X8.5022Y-2.5991
X8.5022Y-2.6582
X8.5022Y-2.7763
X8.5022Y-4.1936
X8.5022Y-4.2527
X8.5022Y-4.3117
X8.5022Y-4.3708
X8.5022Y-4.4298
X8.5022Y-4.4889
X8.5022Y-4.5479
X8.5022Y-4.607
X8.5022Y-4.666
X8.5022Y-4.8432
X8.5022Y-4.9023
X8.5022Y-4.9613
X8.5022Y-5.0204
X8.5022Y-5.0794
X8.5022Y-5.1385
X8.5612Y-4.1936
X8.5612Y-4.2527
X8.5612Y-4.3117
X8.5612Y-4.3708
X8.5612Y-4.4298
X8.5612Y-4.4889
X8.5612Y-4.5479
X8.5612Y-4.607
X8.563Y-3.5039
X8.6203Y-3.544
X8.6203Y-4.2527
X8.6203Y-4.3117
X8.6203Y-4.3708
X8.6203Y-4.4298
X8.6203Y-4.4889
X8.6203Y-4.5479
X8.6794Y-2.8944
X8.6794Y-2.9534
X8.6794Y-3.0125
X8.6794Y-3.0716
X8.6794Y-3.1306
X8.6794Y-3.1897
X8.6794Y-3.2487
X8.6794Y-3.544
X8.6794Y-4.2527
X8.6794Y-4.3117
X8.6794Y-4.3708
X8.6794Y-4.4298
X8.6794Y-4.4889
X8.6794Y-4.7842
X8.7384Y-2.8944
X8.7384Y-2.9534
X8.7384Y-3.0125
X8.7384Y-3.0716
X8.7384Y-3.1306
X8.7384Y-3.1897
X8.7384Y-3.2487
X8.7384Y-3.544
X8.7384Y-4.2527
X8.7384Y-4.3117
X8.7384Y-4.3708
X8.7384Y-4.4298
X8.7384Y-4.7251
X8.7384Y-4.7842
X8.7975Y-2.8944
X8.7975Y-2.9534
X8.7975Y-3.0125
X8.7975Y-3.0716
X8.7975Y-3.1306
X8.7975Y-3.1897
X8.7975Y-3.2487
X8.7975Y-3.544
X8.7975Y-4.2527
X8.7975Y-4.3117
X8.7975Y-4.3708
X8.7975Y-4.666
X8.7975Y-4.7251
X8.7975Y-4.7842
X8.8565Y-2.5991
X8.8565Y-2.6582
X8.8565Y-2.7172
X8.8565Y-2.7763
X8.8565Y-2.8353
X8.8565Y-2.8944
X8.8565Y-2.9534
X8.8565Y-3.0125
X8.8565Y-3.0716
X8.8565Y-3.1306
X8.8565Y-3.1897
X8.8565Y-3.2487
X8.8565Y-3.544
X8.8565Y-4.2527
X8.8565Y-4.3117
X8.8565Y-4.607
X8.9156Y-2.5401
X8.9156Y-2.5991
X8.9156Y-2.6582
X8.9156Y-2.7172
X8.9156Y-2.7763
X8.9156Y-2.8353
X8.9156Y-2.8944
X8.9156Y-2.9534
X8.9156Y-3.0125
X8.9156Y-3.0716
X8.9156Y-3.1306
X8.9156Y-3.1897
X8.9156Y-3.2487
X8.9156Y-3.544
X8.9156Y-4.5479
X8.9156Y-4.607
X8.9746Y-2.5401
X8.9746Y-2.5991
X8.9746Y-2.6582
X8.9746Y-2.7172
X8.9746Y-2.7763
X8.9746Y-2.8353
X8.9746Y-2.8944
X8.9746Y-2.9534
X8.9746Y-3.0125
X8.9746Y-3.0716
X8.9746Y-3.1306
X8.9746Y-3.1897
X8.9746Y-3.2487
X8.9746Y-3.4849
X8.9746Y-3.544
X9.0337Y-2.5401
X9.0337Y-2.5991
X9.0337Y-2.6582
X9.0337Y-2.7172
X9.0337Y-2.7763
X9.0337Y-2.8353
X9.0337Y-2.8944
X9.0337Y-2.9534
X9.0337Y-3.0125
X9.0337Y-3.0716
X9.0337Y-3.1306
X9.0337Y-3.1897
X9.0337Y-3.4849
X9.0337Y-3.544
X9.0337Y-3.6031
X9.0337Y-3.6621
X9.0337Y-3.7212
X9.0337Y-4.0164
X9.0337Y-4.1345
X9.0927Y-2.5401
X9.0927Y-2.5991
X9.0927Y-2.6582
X9.0927Y-2.7172
X9.0927Y-2.7763
X9.0927Y-2.8353
X9.0927Y-2.8944
X9.0927Y-2.9534
X9.0927Y-3.0125
X9.0945Y-4.0827
X9.1518Y-2.8353
X9.1518Y-2.8944
X9.1518Y-2.9534
X9.1518Y-3.0125
X9.1518Y-3.4259
X9.1518Y-3.4849
X9.1518Y-3.544
X9.1518Y-3.6031
X9.1518Y-3.6621
X9.1518Y-3.9574
X9.1518Y-4.1345
X9.1518Y-4.1936
X9.1518Y-4.2527
X9.1518Y-4.666
X9.1518Y-4.7251
X9.1518Y-4.7842
X9.1518Y-4.8432
X9.2108Y-2.8353
X9.2108Y-2.8944
X9.2108Y-2.9534
X9.2108Y-3.0125
X9.2108Y-3.3668
X9.2108Y-3.4259
X9.2108Y-3.4849
X9.2108Y-3.544
X9.2108Y-3.6031
X9.2108Y-3.7802
X9.2108Y-3.8393
X9.2108Y-4.0164
X9.2108Y-4.666
X9.2108Y-4.7251
X9.2108Y-4.7842
X9.2108Y-4.8432
X9.2699Y-2.8353
X9.2699Y-2.8944
X9.2699Y-2.9534
X9.2699Y-3.0125
X9.2699Y-3.0716
X9.2699Y-3.1306
X9.2699Y-3.1897
X9.2699Y-3.2487
X9.2699Y-3.3078
X9.2699Y-3.3668
X9.2699Y-4.2527
X9.2699Y-4.666
X9.2699Y-4.7251
X9.2699Y-4.7842
X9.2699Y-4.8432
X9.2717Y-3.7992
X9.329Y-2.8353
X9.329Y-2.8944
X9.329Y-2.9534
X9.329Y-3.0125
X9.329Y-3.0716
X9.329Y-3.1306
X9.329Y-3.1897
X9.329Y-3.2487
X9.329Y-3.3078
X9.329Y-3.3668
X9.329Y-4.2527
X9.329Y-4.666
X9.329Y-4.7251
X9.329Y-4.7842
X9.329Y-4.8432
X9.3307Y-3.7992
X9.388Y-2.8353
X9.388Y-2.8944
X9.388Y-2.9534
X9.388Y-3.0125
X9.388Y-3.0716
X9.388Y-3.1306
X9.388Y-3.1897
X9.388Y-3.2487
X9.388Y-3.3078
X9.388Y-3.3668
X9.388Y-4.2527
X9.388Y-4.3117
X9.388Y-4.3708
X9.388Y-4.4298
X9.388Y-4.4889
X9.388Y-4.5479
X9.388Y-4.607
X9.388Y-4.666
X9.388Y-4.7251
X9.388Y-4.7842
X9.388Y-4.8432
X9.3898Y-3.7992
T2
X6.8685Y-4.5561
X6.8685Y-4.6561
X6.963Y-3.0299
X6.963Y-3.1299
X6.9685Y-4.5561
X6.9685Y-4.6561
X7.063Y-3.0299
X7.063Y-3.1299
X7.3173Y-4.8819
X7.3173Y-4.9819
X7.3345Y-2.6362
X7.3345Y-2.7362
X7.4173Y-4.8819
X7.4173Y-4.9819
X7.4345Y-2.6362
X7.4345Y-2.7362
X7.715Y-2.6362
X7.715Y-2.7362
X7.7844Y-4.8819
X7.7844Y-4.9819
X7.815Y-2.6362
X7.815Y-2.7362
X7.8844Y-4.8819
X7.8844Y-4.9819
X8.6205Y-4.9394
X8.6205Y-5.0394
X8.6417Y-2.6366
X8.6417Y-2.7366
X8.7205Y-4.9394
X8.7205Y-5.0394
X8.7417Y-2.6366
X8.7417Y-2.7366
X9.0929Y-3.1165
X9.0929Y-3.2165
X9.1142Y-4.3685
X9.1142Y-4.4685
X9.1929Y-3.1165
X9.1929Y-3.2165
X9.2142Y-4.3685
X9.2142Y-4.4685
T3
X6.9094Y-2.6575
X6.9094Y-5.0197
X9.2717Y-2.6575
X9.2717Y-5.0197
M30
