%TF.GenerationSoftware,KiCad,Pcbnew,9.0.3*%
%TF.CreationDate,2025-09-10T16:07:27-04:00*%
%TF.ProjectId,Group4_PCB_AP,47726f75-7034-45f5-9043-425f41502e6b,rev?*%
%TF.SameCoordinates,Original*%
%TF.FileFunction,Legend,Top*%
%TF.FilePolarity,Positive*%
%FSLAX46Y46*%
G04 Gerber Fmt 4.6, Leading zero omitted, Abs format (unit mm)*
G04 Created by KiCad (PCBNEW 9.0.3) date 2025-09-10 16:07:27*
%MOMM*%
%LPD*%
G01*
G04 APERTURE LIST*
%ADD10C,0.200000*%
%ADD11C,0.300000*%
%ADD12C,0.150000*%
%ADD13C,0.000000*%
%ADD14C,0.120000*%
G04 APERTURE END LIST*
D10*
X231154933Y-125000000D02*
X224500000Y-125000000D01*
X224500000Y-122000000D01*
X231154933Y-122000000D01*
X231154933Y-125000000D01*
G36*
X231154933Y-125000000D02*
G01*
X224500000Y-125000000D01*
X224500000Y-122000000D01*
X231154933Y-122000000D01*
X231154933Y-125000000D01*
G37*
D11*
X225047619Y-121044953D02*
X225047619Y-119044953D01*
X226000000Y-121044953D02*
X226000000Y-119044953D01*
X226000000Y-119044953D02*
X226476190Y-119044953D01*
X226476190Y-119044953D02*
X226761905Y-119140191D01*
X226761905Y-119140191D02*
X226952381Y-119330667D01*
X226952381Y-119330667D02*
X227047619Y-119521143D01*
X227047619Y-119521143D02*
X227142857Y-119902095D01*
X227142857Y-119902095D02*
X227142857Y-120187810D01*
X227142857Y-120187810D02*
X227047619Y-120568762D01*
X227047619Y-120568762D02*
X226952381Y-120759238D01*
X226952381Y-120759238D02*
X226761905Y-120949715D01*
X226761905Y-120949715D02*
X226476190Y-121044953D01*
X226476190Y-121044953D02*
X226000000Y-121044953D01*
X227904762Y-119711619D02*
X229333333Y-119711619D01*
X228476190Y-118854476D02*
X227904762Y-121425905D01*
X229142857Y-120568762D02*
X227714286Y-120568762D01*
X228571429Y-121425905D02*
X229142857Y-118854476D01*
X230857143Y-119711619D02*
X230857143Y-121044953D01*
X230380952Y-118949715D02*
X229904762Y-120378286D01*
X229904762Y-120378286D02*
X231142857Y-120378286D01*
D12*
X172718810Y-73259726D02*
X173142143Y-74529726D01*
X173142143Y-74529726D02*
X173565477Y-73259726D01*
X173988809Y-74529726D02*
X173988809Y-73259726D01*
X173988809Y-73259726D02*
X174291190Y-73259726D01*
X174291190Y-73259726D02*
X174472619Y-73320202D01*
X174472619Y-73320202D02*
X174593571Y-73441154D01*
X174593571Y-73441154D02*
X174654048Y-73562107D01*
X174654048Y-73562107D02*
X174714524Y-73804011D01*
X174714524Y-73804011D02*
X174714524Y-73985440D01*
X174714524Y-73985440D02*
X174654048Y-74227345D01*
X174654048Y-74227345D02*
X174593571Y-74348297D01*
X174593571Y-74348297D02*
X174472619Y-74469250D01*
X174472619Y-74469250D02*
X174291190Y-74529726D01*
X174291190Y-74529726D02*
X173988809Y-74529726D01*
X175258809Y-74529726D02*
X175258809Y-73259726D01*
X175258809Y-73259726D02*
X175561190Y-73259726D01*
X175561190Y-73259726D02*
X175742619Y-73320202D01*
X175742619Y-73320202D02*
X175863571Y-73441154D01*
X175863571Y-73441154D02*
X175924048Y-73562107D01*
X175924048Y-73562107D02*
X175984524Y-73804011D01*
X175984524Y-73804011D02*
X175984524Y-73985440D01*
X175984524Y-73985440D02*
X175924048Y-74227345D01*
X175924048Y-74227345D02*
X175863571Y-74348297D01*
X175863571Y-74348297D02*
X175742619Y-74469250D01*
X175742619Y-74469250D02*
X175561190Y-74529726D01*
X175561190Y-74529726D02*
X175258809Y-74529726D01*
X176226429Y-74650678D02*
X177194048Y-74650678D01*
X177435952Y-74469250D02*
X177617381Y-74529726D01*
X177617381Y-74529726D02*
X177919762Y-74529726D01*
X177919762Y-74529726D02*
X178040714Y-74469250D01*
X178040714Y-74469250D02*
X178101190Y-74408773D01*
X178101190Y-74408773D02*
X178161667Y-74287821D01*
X178161667Y-74287821D02*
X178161667Y-74166869D01*
X178161667Y-74166869D02*
X178101190Y-74045916D01*
X178101190Y-74045916D02*
X178040714Y-73985440D01*
X178040714Y-73985440D02*
X177919762Y-73924964D01*
X177919762Y-73924964D02*
X177677857Y-73864488D01*
X177677857Y-73864488D02*
X177556905Y-73804011D01*
X177556905Y-73804011D02*
X177496428Y-73743535D01*
X177496428Y-73743535D02*
X177435952Y-73622583D01*
X177435952Y-73622583D02*
X177435952Y-73501630D01*
X177435952Y-73501630D02*
X177496428Y-73380678D01*
X177496428Y-73380678D02*
X177556905Y-73320202D01*
X177556905Y-73320202D02*
X177677857Y-73259726D01*
X177677857Y-73259726D02*
X177980238Y-73259726D01*
X177980238Y-73259726D02*
X178161667Y-73320202D01*
X178705952Y-74529726D02*
X178705952Y-73259726D01*
X178705952Y-73864488D02*
X179431667Y-73864488D01*
X179431667Y-74529726D02*
X179431667Y-73259726D01*
X180278333Y-73259726D02*
X180520238Y-73259726D01*
X180520238Y-73259726D02*
X180641190Y-73320202D01*
X180641190Y-73320202D02*
X180762143Y-73441154D01*
X180762143Y-73441154D02*
X180822619Y-73683059D01*
X180822619Y-73683059D02*
X180822619Y-74106392D01*
X180822619Y-74106392D02*
X180762143Y-74348297D01*
X180762143Y-74348297D02*
X180641190Y-74469250D01*
X180641190Y-74469250D02*
X180520238Y-74529726D01*
X180520238Y-74529726D02*
X180278333Y-74529726D01*
X180278333Y-74529726D02*
X180157381Y-74469250D01*
X180157381Y-74469250D02*
X180036428Y-74348297D01*
X180036428Y-74348297D02*
X179975952Y-74106392D01*
X179975952Y-74106392D02*
X179975952Y-73683059D01*
X179975952Y-73683059D02*
X180036428Y-73441154D01*
X180036428Y-73441154D02*
X180157381Y-73320202D01*
X180157381Y-73320202D02*
X180278333Y-73259726D01*
X182092619Y-74529726D02*
X181669285Y-73924964D01*
X181366904Y-74529726D02*
X181366904Y-73259726D01*
X181366904Y-73259726D02*
X181850714Y-73259726D01*
X181850714Y-73259726D02*
X181971666Y-73320202D01*
X181971666Y-73320202D02*
X182032143Y-73380678D01*
X182032143Y-73380678D02*
X182092619Y-73501630D01*
X182092619Y-73501630D02*
X182092619Y-73683059D01*
X182092619Y-73683059D02*
X182032143Y-73804011D01*
X182032143Y-73804011D02*
X181971666Y-73864488D01*
X181971666Y-73864488D02*
X181850714Y-73924964D01*
X181850714Y-73924964D02*
X181366904Y-73924964D01*
X182455476Y-73259726D02*
X183181190Y-73259726D01*
X182818333Y-74529726D02*
X182818333Y-73259726D01*
X178966190Y-81995916D02*
X179933810Y-81995916D01*
X179450000Y-82479726D02*
X179450000Y-81512107D01*
X176316190Y-82095916D02*
X177283810Y-82095916D01*
X183751604Y-63358726D02*
X184174937Y-64628726D01*
X184174937Y-64628726D02*
X184598271Y-63358726D01*
X185021603Y-64628726D02*
X185021603Y-63358726D01*
X185021603Y-63358726D02*
X185323984Y-63358726D01*
X185323984Y-63358726D02*
X185505413Y-63419202D01*
X185505413Y-63419202D02*
X185626365Y-63540154D01*
X185626365Y-63540154D02*
X185686842Y-63661107D01*
X185686842Y-63661107D02*
X185747318Y-63903011D01*
X185747318Y-63903011D02*
X185747318Y-64084440D01*
X185747318Y-64084440D02*
X185686842Y-64326345D01*
X185686842Y-64326345D02*
X185626365Y-64447297D01*
X185626365Y-64447297D02*
X185505413Y-64568250D01*
X185505413Y-64568250D02*
X185323984Y-64628726D01*
X185323984Y-64628726D02*
X185021603Y-64628726D01*
X186291603Y-64628726D02*
X186291603Y-63358726D01*
X186291603Y-63358726D02*
X186593984Y-63358726D01*
X186593984Y-63358726D02*
X186775413Y-63419202D01*
X186775413Y-63419202D02*
X186896365Y-63540154D01*
X186896365Y-63540154D02*
X186956842Y-63661107D01*
X186956842Y-63661107D02*
X187017318Y-63903011D01*
X187017318Y-63903011D02*
X187017318Y-64084440D01*
X187017318Y-64084440D02*
X186956842Y-64326345D01*
X186956842Y-64326345D02*
X186896365Y-64447297D01*
X186896365Y-64447297D02*
X186775413Y-64568250D01*
X186775413Y-64568250D02*
X186593984Y-64628726D01*
X186593984Y-64628726D02*
X186291603Y-64628726D01*
X187259223Y-64749678D02*
X188226842Y-64749678D01*
X188529222Y-64628726D02*
X188529222Y-63358726D01*
X188529222Y-63358726D02*
X188952556Y-64265869D01*
X188952556Y-64265869D02*
X189375889Y-63358726D01*
X189375889Y-63358726D02*
X189375889Y-64628726D01*
X189980651Y-64628726D02*
X189980651Y-63358726D01*
X190464461Y-63358726D02*
X191311128Y-64628726D01*
X191311128Y-63358726D02*
X190464461Y-64628726D01*
X188366190Y-71944916D02*
X189333810Y-71944916D01*
X188850000Y-72428726D02*
X188850000Y-71461107D01*
X186077794Y-71830916D02*
X187045414Y-71830916D01*
X173248333Y-122079726D02*
X173248333Y-120809726D01*
X173248333Y-120809726D02*
X173732143Y-120809726D01*
X173732143Y-120809726D02*
X173853095Y-120870202D01*
X173853095Y-120870202D02*
X173913572Y-120930678D01*
X173913572Y-120930678D02*
X173974048Y-121051630D01*
X173974048Y-121051630D02*
X173974048Y-121233059D01*
X173974048Y-121233059D02*
X173913572Y-121354011D01*
X173913572Y-121354011D02*
X173853095Y-121414488D01*
X173853095Y-121414488D02*
X173732143Y-121474964D01*
X173732143Y-121474964D02*
X173248333Y-121474964D01*
X175244048Y-122079726D02*
X174820714Y-121474964D01*
X174518333Y-122079726D02*
X174518333Y-120809726D01*
X174518333Y-120809726D02*
X175002143Y-120809726D01*
X175002143Y-120809726D02*
X175123095Y-120870202D01*
X175123095Y-120870202D02*
X175183572Y-120930678D01*
X175183572Y-120930678D02*
X175244048Y-121051630D01*
X175244048Y-121051630D02*
X175244048Y-121233059D01*
X175244048Y-121233059D02*
X175183572Y-121354011D01*
X175183572Y-121354011D02*
X175123095Y-121414488D01*
X175123095Y-121414488D02*
X175002143Y-121474964D01*
X175002143Y-121474964D02*
X174518333Y-121474964D01*
X175727857Y-121716869D02*
X176332619Y-121716869D01*
X175606905Y-122079726D02*
X176030238Y-120809726D01*
X176030238Y-120809726D02*
X176453572Y-122079726D01*
X177602619Y-121958773D02*
X177542143Y-122019250D01*
X177542143Y-122019250D02*
X177360714Y-122079726D01*
X177360714Y-122079726D02*
X177239762Y-122079726D01*
X177239762Y-122079726D02*
X177058333Y-122019250D01*
X177058333Y-122019250D02*
X176937381Y-121898297D01*
X176937381Y-121898297D02*
X176876904Y-121777345D01*
X176876904Y-121777345D02*
X176816428Y-121535440D01*
X176816428Y-121535440D02*
X176816428Y-121354011D01*
X176816428Y-121354011D02*
X176876904Y-121112107D01*
X176876904Y-121112107D02*
X176937381Y-120991154D01*
X176937381Y-120991154D02*
X177058333Y-120870202D01*
X177058333Y-120870202D02*
X177239762Y-120809726D01*
X177239762Y-120809726D02*
X177360714Y-120809726D01*
X177360714Y-120809726D02*
X177542143Y-120870202D01*
X177542143Y-120870202D02*
X177602619Y-120930678D01*
X178086428Y-120930678D02*
X178146904Y-120870202D01*
X178146904Y-120870202D02*
X178267857Y-120809726D01*
X178267857Y-120809726D02*
X178570238Y-120809726D01*
X178570238Y-120809726D02*
X178691190Y-120870202D01*
X178691190Y-120870202D02*
X178751666Y-120930678D01*
X178751666Y-120930678D02*
X178812143Y-121051630D01*
X178812143Y-121051630D02*
X178812143Y-121172583D01*
X178812143Y-121172583D02*
X178751666Y-121354011D01*
X178751666Y-121354011D02*
X178025952Y-122079726D01*
X178025952Y-122079726D02*
X178812143Y-122079726D01*
X193752857Y-63409726D02*
X194176190Y-64679726D01*
X194176190Y-64679726D02*
X194599524Y-63409726D01*
X195022856Y-64679726D02*
X195022856Y-63409726D01*
X195022856Y-63409726D02*
X195325237Y-63409726D01*
X195325237Y-63409726D02*
X195506666Y-63470202D01*
X195506666Y-63470202D02*
X195627618Y-63591154D01*
X195627618Y-63591154D02*
X195688095Y-63712107D01*
X195688095Y-63712107D02*
X195748571Y-63954011D01*
X195748571Y-63954011D02*
X195748571Y-64135440D01*
X195748571Y-64135440D02*
X195688095Y-64377345D01*
X195688095Y-64377345D02*
X195627618Y-64498297D01*
X195627618Y-64498297D02*
X195506666Y-64619250D01*
X195506666Y-64619250D02*
X195325237Y-64679726D01*
X195325237Y-64679726D02*
X195022856Y-64679726D01*
X196292856Y-64679726D02*
X196292856Y-63409726D01*
X196292856Y-63409726D02*
X196595237Y-63409726D01*
X196595237Y-63409726D02*
X196776666Y-63470202D01*
X196776666Y-63470202D02*
X196897618Y-63591154D01*
X196897618Y-63591154D02*
X196958095Y-63712107D01*
X196958095Y-63712107D02*
X197018571Y-63954011D01*
X197018571Y-63954011D02*
X197018571Y-64135440D01*
X197018571Y-64135440D02*
X196958095Y-64377345D01*
X196958095Y-64377345D02*
X196897618Y-64498297D01*
X196897618Y-64498297D02*
X196776666Y-64619250D01*
X196776666Y-64619250D02*
X196595237Y-64679726D01*
X196595237Y-64679726D02*
X196292856Y-64679726D01*
X197260476Y-64800678D02*
X198228095Y-64800678D01*
X198953809Y-64014488D02*
X199135237Y-64074964D01*
X199135237Y-64074964D02*
X199195714Y-64135440D01*
X199195714Y-64135440D02*
X199256190Y-64256392D01*
X199256190Y-64256392D02*
X199256190Y-64437821D01*
X199256190Y-64437821D02*
X199195714Y-64558773D01*
X199195714Y-64558773D02*
X199135237Y-64619250D01*
X199135237Y-64619250D02*
X199014285Y-64679726D01*
X199014285Y-64679726D02*
X198530475Y-64679726D01*
X198530475Y-64679726D02*
X198530475Y-63409726D01*
X198530475Y-63409726D02*
X198953809Y-63409726D01*
X198953809Y-63409726D02*
X199074761Y-63470202D01*
X199074761Y-63470202D02*
X199135237Y-63530678D01*
X199135237Y-63530678D02*
X199195714Y-63651630D01*
X199195714Y-63651630D02*
X199195714Y-63772583D01*
X199195714Y-63772583D02*
X199135237Y-63893535D01*
X199135237Y-63893535D02*
X199074761Y-63954011D01*
X199074761Y-63954011D02*
X198953809Y-64014488D01*
X198953809Y-64014488D02*
X198530475Y-64014488D01*
X200223809Y-64014488D02*
X200405237Y-64074964D01*
X200405237Y-64074964D02*
X200465714Y-64135440D01*
X200465714Y-64135440D02*
X200526190Y-64256392D01*
X200526190Y-64256392D02*
X200526190Y-64437821D01*
X200526190Y-64437821D02*
X200465714Y-64558773D01*
X200465714Y-64558773D02*
X200405237Y-64619250D01*
X200405237Y-64619250D02*
X200284285Y-64679726D01*
X200284285Y-64679726D02*
X199800475Y-64679726D01*
X199800475Y-64679726D02*
X199800475Y-63409726D01*
X199800475Y-63409726D02*
X200223809Y-63409726D01*
X200223809Y-63409726D02*
X200344761Y-63470202D01*
X200344761Y-63470202D02*
X200405237Y-63530678D01*
X200405237Y-63530678D02*
X200465714Y-63651630D01*
X200465714Y-63651630D02*
X200465714Y-63772583D01*
X200465714Y-63772583D02*
X200405237Y-63893535D01*
X200405237Y-63893535D02*
X200344761Y-63954011D01*
X200344761Y-63954011D02*
X200223809Y-64014488D01*
X200223809Y-64014488D02*
X199800475Y-64014488D01*
X198595916Y-72483809D02*
X198595916Y-71516190D01*
X199079726Y-71999999D02*
X198112107Y-71999999D01*
X195416190Y-71995916D02*
X196383810Y-71995916D01*
X217748333Y-131539726D02*
X217748333Y-130269726D01*
X217748333Y-130269726D02*
X218232143Y-130269726D01*
X218232143Y-130269726D02*
X218353095Y-130330202D01*
X218353095Y-130330202D02*
X218413572Y-130390678D01*
X218413572Y-130390678D02*
X218474048Y-130511630D01*
X218474048Y-130511630D02*
X218474048Y-130693059D01*
X218474048Y-130693059D02*
X218413572Y-130814011D01*
X218413572Y-130814011D02*
X218353095Y-130874488D01*
X218353095Y-130874488D02*
X218232143Y-130934964D01*
X218232143Y-130934964D02*
X217748333Y-130934964D01*
X219744048Y-131539726D02*
X219320714Y-130934964D01*
X219018333Y-131539726D02*
X219018333Y-130269726D01*
X219018333Y-130269726D02*
X219502143Y-130269726D01*
X219502143Y-130269726D02*
X219623095Y-130330202D01*
X219623095Y-130330202D02*
X219683572Y-130390678D01*
X219683572Y-130390678D02*
X219744048Y-130511630D01*
X219744048Y-130511630D02*
X219744048Y-130693059D01*
X219744048Y-130693059D02*
X219683572Y-130814011D01*
X219683572Y-130814011D02*
X219623095Y-130874488D01*
X219623095Y-130874488D02*
X219502143Y-130934964D01*
X219502143Y-130934964D02*
X219018333Y-130934964D01*
X220227857Y-131176869D02*
X220832619Y-131176869D01*
X220106905Y-131539726D02*
X220530238Y-130269726D01*
X220530238Y-130269726D02*
X220953572Y-131539726D01*
X222102619Y-131418773D02*
X222042143Y-131479250D01*
X222042143Y-131479250D02*
X221860714Y-131539726D01*
X221860714Y-131539726D02*
X221739762Y-131539726D01*
X221739762Y-131539726D02*
X221558333Y-131479250D01*
X221558333Y-131479250D02*
X221437381Y-131358297D01*
X221437381Y-131358297D02*
X221376904Y-131237345D01*
X221376904Y-131237345D02*
X221316428Y-130995440D01*
X221316428Y-130995440D02*
X221316428Y-130814011D01*
X221316428Y-130814011D02*
X221376904Y-130572107D01*
X221376904Y-130572107D02*
X221437381Y-130451154D01*
X221437381Y-130451154D02*
X221558333Y-130330202D01*
X221558333Y-130330202D02*
X221739762Y-130269726D01*
X221739762Y-130269726D02*
X221860714Y-130269726D01*
X221860714Y-130269726D02*
X222042143Y-130330202D01*
X222042143Y-130330202D02*
X222102619Y-130390678D01*
X223312143Y-131539726D02*
X222586428Y-131539726D01*
X222949285Y-131539726D02*
X222949285Y-130269726D01*
X222949285Y-130269726D02*
X222828333Y-130451154D01*
X222828333Y-130451154D02*
X222707381Y-130572107D01*
X222707381Y-130572107D02*
X222586428Y-130632583D01*
X183099286Y-129909726D02*
X183522619Y-131179726D01*
X183522619Y-131179726D02*
X183945953Y-129909726D01*
X184369285Y-131179726D02*
X184369285Y-129909726D01*
X184369285Y-129909726D02*
X184671666Y-129909726D01*
X184671666Y-129909726D02*
X184853095Y-129970202D01*
X184853095Y-129970202D02*
X184974047Y-130091154D01*
X184974047Y-130091154D02*
X185034524Y-130212107D01*
X185034524Y-130212107D02*
X185095000Y-130454011D01*
X185095000Y-130454011D02*
X185095000Y-130635440D01*
X185095000Y-130635440D02*
X185034524Y-130877345D01*
X185034524Y-130877345D02*
X184974047Y-130998297D01*
X184974047Y-130998297D02*
X184853095Y-131119250D01*
X184853095Y-131119250D02*
X184671666Y-131179726D01*
X184671666Y-131179726D02*
X184369285Y-131179726D01*
X185639285Y-131179726D02*
X185639285Y-129909726D01*
X185639285Y-129909726D02*
X185941666Y-129909726D01*
X185941666Y-129909726D02*
X186123095Y-129970202D01*
X186123095Y-129970202D02*
X186244047Y-130091154D01*
X186244047Y-130091154D02*
X186304524Y-130212107D01*
X186304524Y-130212107D02*
X186365000Y-130454011D01*
X186365000Y-130454011D02*
X186365000Y-130635440D01*
X186365000Y-130635440D02*
X186304524Y-130877345D01*
X186304524Y-130877345D02*
X186244047Y-130998297D01*
X186244047Y-130998297D02*
X186123095Y-131119250D01*
X186123095Y-131119250D02*
X185941666Y-131179726D01*
X185941666Y-131179726D02*
X185639285Y-131179726D01*
X186606905Y-131300678D02*
X187574524Y-131300678D01*
X188481666Y-131179726D02*
X187876904Y-131179726D01*
X187876904Y-131179726D02*
X187876904Y-129909726D01*
X188904999Y-131179726D02*
X188904999Y-129909726D01*
X188904999Y-129909726D02*
X189630714Y-131179726D01*
X189630714Y-131179726D02*
X189630714Y-129909726D01*
X190174999Y-130816869D02*
X190779761Y-130816869D01*
X190054047Y-131179726D02*
X190477380Y-129909726D01*
X190477380Y-129909726D02*
X190900714Y-131179726D01*
X187916190Y-129095916D02*
X188883810Y-129095916D01*
X185316190Y-129095916D02*
X186283810Y-129095916D01*
X185800000Y-129579726D02*
X185800000Y-128612107D01*
X196278571Y-131179726D02*
X196278571Y-129909726D01*
X196278571Y-129909726D02*
X196580952Y-129909726D01*
X196580952Y-129909726D02*
X196762381Y-129970202D01*
X196762381Y-129970202D02*
X196883333Y-130091154D01*
X196883333Y-130091154D02*
X196943810Y-130212107D01*
X196943810Y-130212107D02*
X197004286Y-130454011D01*
X197004286Y-130454011D02*
X197004286Y-130635440D01*
X197004286Y-130635440D02*
X196943810Y-130877345D01*
X196943810Y-130877345D02*
X196883333Y-130998297D01*
X196883333Y-130998297D02*
X196762381Y-131119250D01*
X196762381Y-131119250D02*
X196580952Y-131179726D01*
X196580952Y-131179726D02*
X196278571Y-131179726D01*
X198395238Y-131300678D02*
X198274286Y-131240202D01*
X198274286Y-131240202D02*
X198153333Y-131119250D01*
X198153333Y-131119250D02*
X197971905Y-130937821D01*
X197971905Y-130937821D02*
X197850952Y-130877345D01*
X197850952Y-130877345D02*
X197730000Y-130877345D01*
X197790476Y-131179726D02*
X197669524Y-131119250D01*
X197669524Y-131119250D02*
X197548571Y-130998297D01*
X197548571Y-130998297D02*
X197488095Y-130756392D01*
X197488095Y-130756392D02*
X197488095Y-130333059D01*
X197488095Y-130333059D02*
X197548571Y-130091154D01*
X197548571Y-130091154D02*
X197669524Y-129970202D01*
X197669524Y-129970202D02*
X197790476Y-129909726D01*
X197790476Y-129909726D02*
X198032381Y-129909726D01*
X198032381Y-129909726D02*
X198153333Y-129970202D01*
X198153333Y-129970202D02*
X198274286Y-130091154D01*
X198274286Y-130091154D02*
X198334762Y-130333059D01*
X198334762Y-130333059D02*
X198334762Y-130756392D01*
X198334762Y-130756392D02*
X198274286Y-130998297D01*
X198274286Y-130998297D02*
X198153333Y-131119250D01*
X198153333Y-131119250D02*
X198032381Y-131179726D01*
X198032381Y-131179726D02*
X197790476Y-131179726D01*
X198576667Y-131300678D02*
X199544286Y-131300678D01*
X199846666Y-130514488D02*
X200270000Y-130514488D01*
X200451428Y-131179726D02*
X199846666Y-131179726D01*
X199846666Y-131179726D02*
X199846666Y-129909726D01*
X199846666Y-129909726D02*
X200451428Y-129909726D01*
X200995714Y-131179726D02*
X200995714Y-129909726D01*
X200995714Y-129909726D02*
X201721429Y-131179726D01*
X201721429Y-131179726D02*
X201721429Y-129909726D01*
X197016190Y-129095916D02*
X197983810Y-129095916D01*
X197500000Y-129579726D02*
X197500000Y-128612107D01*
X199816190Y-129095916D02*
X200783810Y-129095916D01*
X207804819Y-112666666D02*
X207804819Y-113142856D01*
X207804819Y-113142856D02*
X206804819Y-113142856D01*
X206804819Y-111857142D02*
X206804819Y-112333332D01*
X206804819Y-112333332D02*
X207281009Y-112380951D01*
X207281009Y-112380951D02*
X207233390Y-112333332D01*
X207233390Y-112333332D02*
X207185771Y-112238094D01*
X207185771Y-112238094D02*
X207185771Y-111999999D01*
X207185771Y-111999999D02*
X207233390Y-111904761D01*
X207233390Y-111904761D02*
X207281009Y-111857142D01*
X207281009Y-111857142D02*
X207376247Y-111809523D01*
X207376247Y-111809523D02*
X207614342Y-111809523D01*
X207614342Y-111809523D02*
X207709580Y-111857142D01*
X207709580Y-111857142D02*
X207757200Y-111904761D01*
X207757200Y-111904761D02*
X207804819Y-111999999D01*
X207804819Y-111999999D02*
X207804819Y-112238094D01*
X207804819Y-112238094D02*
X207757200Y-112333332D01*
X207757200Y-112333332D02*
X207709580Y-112380951D01*
X215813095Y-64014488D02*
X215994523Y-64074964D01*
X215994523Y-64074964D02*
X216055000Y-64135440D01*
X216055000Y-64135440D02*
X216115476Y-64256392D01*
X216115476Y-64256392D02*
X216115476Y-64437821D01*
X216115476Y-64437821D02*
X216055000Y-64558773D01*
X216055000Y-64558773D02*
X215994523Y-64619250D01*
X215994523Y-64619250D02*
X215873571Y-64679726D01*
X215873571Y-64679726D02*
X215389761Y-64679726D01*
X215389761Y-64679726D02*
X215389761Y-63409726D01*
X215389761Y-63409726D02*
X215813095Y-63409726D01*
X215813095Y-63409726D02*
X215934047Y-63470202D01*
X215934047Y-63470202D02*
X215994523Y-63530678D01*
X215994523Y-63530678D02*
X216055000Y-63651630D01*
X216055000Y-63651630D02*
X216055000Y-63772583D01*
X216055000Y-63772583D02*
X215994523Y-63893535D01*
X215994523Y-63893535D02*
X215934047Y-63954011D01*
X215934047Y-63954011D02*
X215813095Y-64014488D01*
X215813095Y-64014488D02*
X215389761Y-64014488D01*
X216659761Y-64679726D02*
X216659761Y-63409726D01*
X217204047Y-64316869D02*
X217808809Y-64316869D01*
X217083095Y-64679726D02*
X217506428Y-63409726D01*
X217506428Y-63409726D02*
X217929762Y-64679726D01*
X218292618Y-64619250D02*
X218474047Y-64679726D01*
X218474047Y-64679726D02*
X218776428Y-64679726D01*
X218776428Y-64679726D02*
X218897380Y-64619250D01*
X218897380Y-64619250D02*
X218957856Y-64558773D01*
X218957856Y-64558773D02*
X219018333Y-64437821D01*
X219018333Y-64437821D02*
X219018333Y-64316869D01*
X219018333Y-64316869D02*
X218957856Y-64195916D01*
X218957856Y-64195916D02*
X218897380Y-64135440D01*
X218897380Y-64135440D02*
X218776428Y-64074964D01*
X218776428Y-64074964D02*
X218534523Y-64014488D01*
X218534523Y-64014488D02*
X218413571Y-63954011D01*
X218413571Y-63954011D02*
X218353094Y-63893535D01*
X218353094Y-63893535D02*
X218292618Y-63772583D01*
X218292618Y-63772583D02*
X218292618Y-63651630D01*
X218292618Y-63651630D02*
X218353094Y-63530678D01*
X218353094Y-63530678D02*
X218413571Y-63470202D01*
X218413571Y-63470202D02*
X218534523Y-63409726D01*
X218534523Y-63409726D02*
X218836904Y-63409726D01*
X218836904Y-63409726D02*
X219018333Y-63470202D01*
X219260238Y-64800678D02*
X220227857Y-64800678D01*
X220530237Y-64679726D02*
X220530237Y-63409726D01*
X220530237Y-63409726D02*
X220953571Y-64316869D01*
X220953571Y-64316869D02*
X221376904Y-63409726D01*
X221376904Y-63409726D02*
X221376904Y-64679726D01*
X221981666Y-64679726D02*
X221981666Y-63409726D01*
X222465476Y-63409726D02*
X223312143Y-64679726D01*
X223312143Y-63409726D02*
X222465476Y-64679726D01*
X223795952Y-64014488D02*
X224219286Y-64014488D01*
X224400714Y-64679726D02*
X223795952Y-64679726D01*
X223795952Y-64679726D02*
X223795952Y-63409726D01*
X223795952Y-63409726D02*
X224400714Y-63409726D01*
X225670715Y-64679726D02*
X225247381Y-64074964D01*
X224945000Y-64679726D02*
X224945000Y-63409726D01*
X224945000Y-63409726D02*
X225428810Y-63409726D01*
X225428810Y-63409726D02*
X225549762Y-63470202D01*
X225549762Y-63470202D02*
X225610239Y-63530678D01*
X225610239Y-63530678D02*
X225670715Y-63651630D01*
X225670715Y-63651630D02*
X225670715Y-63833059D01*
X225670715Y-63833059D02*
X225610239Y-63954011D01*
X225610239Y-63954011D02*
X225549762Y-64014488D01*
X225549762Y-64014488D02*
X225428810Y-64074964D01*
X225428810Y-64074964D02*
X224945000Y-64074964D01*
X218816190Y-72095916D02*
X219783810Y-72095916D01*
X219300000Y-72579726D02*
X219300000Y-71612107D01*
X221516190Y-72195916D02*
X222483810Y-72195916D01*
X228781905Y-116414488D02*
X228963333Y-116474964D01*
X228963333Y-116474964D02*
X229023810Y-116535440D01*
X229023810Y-116535440D02*
X229084286Y-116656392D01*
X229084286Y-116656392D02*
X229084286Y-116837821D01*
X229084286Y-116837821D02*
X229023810Y-116958773D01*
X229023810Y-116958773D02*
X228963333Y-117019250D01*
X228963333Y-117019250D02*
X228842381Y-117079726D01*
X228842381Y-117079726D02*
X228358571Y-117079726D01*
X228358571Y-117079726D02*
X228358571Y-115809726D01*
X228358571Y-115809726D02*
X228781905Y-115809726D01*
X228781905Y-115809726D02*
X228902857Y-115870202D01*
X228902857Y-115870202D02*
X228963333Y-115930678D01*
X228963333Y-115930678D02*
X229023810Y-116051630D01*
X229023810Y-116051630D02*
X229023810Y-116172583D01*
X229023810Y-116172583D02*
X228963333Y-116293535D01*
X228963333Y-116293535D02*
X228902857Y-116354011D01*
X228902857Y-116354011D02*
X228781905Y-116414488D01*
X228781905Y-116414488D02*
X228358571Y-116414488D01*
X229628571Y-117079726D02*
X229628571Y-115809726D01*
X230172857Y-116716869D02*
X230777619Y-116716869D01*
X230051905Y-117079726D02*
X230475238Y-115809726D01*
X230475238Y-115809726D02*
X230898572Y-117079726D01*
X231261428Y-117019250D02*
X231442857Y-117079726D01*
X231442857Y-117079726D02*
X231745238Y-117079726D01*
X231745238Y-117079726D02*
X231866190Y-117019250D01*
X231866190Y-117019250D02*
X231926666Y-116958773D01*
X231926666Y-116958773D02*
X231987143Y-116837821D01*
X231987143Y-116837821D02*
X231987143Y-116716869D01*
X231987143Y-116716869D02*
X231926666Y-116595916D01*
X231926666Y-116595916D02*
X231866190Y-116535440D01*
X231866190Y-116535440D02*
X231745238Y-116474964D01*
X231745238Y-116474964D02*
X231503333Y-116414488D01*
X231503333Y-116414488D02*
X231382381Y-116354011D01*
X231382381Y-116354011D02*
X231321904Y-116293535D01*
X231321904Y-116293535D02*
X231261428Y-116172583D01*
X231261428Y-116172583D02*
X231261428Y-116051630D01*
X231261428Y-116051630D02*
X231321904Y-115930678D01*
X231321904Y-115930678D02*
X231382381Y-115870202D01*
X231382381Y-115870202D02*
X231503333Y-115809726D01*
X231503333Y-115809726D02*
X231805714Y-115809726D01*
X231805714Y-115809726D02*
X231987143Y-115870202D01*
X232229048Y-117200678D02*
X233196667Y-117200678D01*
X234103809Y-117079726D02*
X233499047Y-117079726D01*
X233499047Y-117079726D02*
X233499047Y-115809726D01*
X234527142Y-117079726D02*
X234527142Y-115809726D01*
X234527142Y-115809726D02*
X235252857Y-117079726D01*
X235252857Y-117079726D02*
X235252857Y-115809726D01*
X235797142Y-116716869D02*
X236401904Y-116716869D01*
X235676190Y-117079726D02*
X236099523Y-115809726D01*
X236099523Y-115809726D02*
X236522857Y-117079726D01*
X236016190Y-110595916D02*
X236983810Y-110595916D01*
X236500000Y-111079726D02*
X236500000Y-110112107D01*
X236016190Y-113595916D02*
X236983810Y-113595916D01*
X175954819Y-110642857D02*
X175478628Y-110976190D01*
X175954819Y-111214285D02*
X174954819Y-111214285D01*
X174954819Y-111214285D02*
X174954819Y-110833333D01*
X174954819Y-110833333D02*
X175002438Y-110738095D01*
X175002438Y-110738095D02*
X175050057Y-110690476D01*
X175050057Y-110690476D02*
X175145295Y-110642857D01*
X175145295Y-110642857D02*
X175288152Y-110642857D01*
X175288152Y-110642857D02*
X175383390Y-110690476D01*
X175383390Y-110690476D02*
X175431009Y-110738095D01*
X175431009Y-110738095D02*
X175478628Y-110833333D01*
X175478628Y-110833333D02*
X175478628Y-111214285D01*
X175050057Y-110261904D02*
X175002438Y-110214285D01*
X175002438Y-110214285D02*
X174954819Y-110119047D01*
X174954819Y-110119047D02*
X174954819Y-109880952D01*
X174954819Y-109880952D02*
X175002438Y-109785714D01*
X175002438Y-109785714D02*
X175050057Y-109738095D01*
X175050057Y-109738095D02*
X175145295Y-109690476D01*
X175145295Y-109690476D02*
X175240533Y-109690476D01*
X175240533Y-109690476D02*
X175383390Y-109738095D01*
X175383390Y-109738095D02*
X175954819Y-110309523D01*
X175954819Y-110309523D02*
X175954819Y-109690476D01*
X175288152Y-108833333D02*
X175954819Y-108833333D01*
X174907200Y-109071428D02*
X175621485Y-109309523D01*
X175621485Y-109309523D02*
X175621485Y-108690476D01*
X228541191Y-75609726D02*
X228964524Y-76879726D01*
X228964524Y-76879726D02*
X229387858Y-75609726D01*
X229811190Y-76879726D02*
X229811190Y-75609726D01*
X229811190Y-75609726D02*
X230113571Y-75609726D01*
X230113571Y-75609726D02*
X230295000Y-75670202D01*
X230295000Y-75670202D02*
X230415952Y-75791154D01*
X230415952Y-75791154D02*
X230476429Y-75912107D01*
X230476429Y-75912107D02*
X230536905Y-76154011D01*
X230536905Y-76154011D02*
X230536905Y-76335440D01*
X230536905Y-76335440D02*
X230476429Y-76577345D01*
X230476429Y-76577345D02*
X230415952Y-76698297D01*
X230415952Y-76698297D02*
X230295000Y-76819250D01*
X230295000Y-76819250D02*
X230113571Y-76879726D01*
X230113571Y-76879726D02*
X229811190Y-76879726D01*
X231081190Y-76879726D02*
X231081190Y-75609726D01*
X231081190Y-75609726D02*
X231383571Y-75609726D01*
X231383571Y-75609726D02*
X231565000Y-75670202D01*
X231565000Y-75670202D02*
X231685952Y-75791154D01*
X231685952Y-75791154D02*
X231746429Y-75912107D01*
X231746429Y-75912107D02*
X231806905Y-76154011D01*
X231806905Y-76154011D02*
X231806905Y-76335440D01*
X231806905Y-76335440D02*
X231746429Y-76577345D01*
X231746429Y-76577345D02*
X231685952Y-76698297D01*
X231685952Y-76698297D02*
X231565000Y-76819250D01*
X231565000Y-76819250D02*
X231383571Y-76879726D01*
X231383571Y-76879726D02*
X231081190Y-76879726D01*
X232048810Y-77000678D02*
X233016429Y-77000678D01*
X233318809Y-76879726D02*
X233318809Y-75609726D01*
X233318809Y-75609726D02*
X233621190Y-75609726D01*
X233621190Y-75609726D02*
X233802619Y-75670202D01*
X233802619Y-75670202D02*
X233923571Y-75791154D01*
X233923571Y-75791154D02*
X233984048Y-75912107D01*
X233984048Y-75912107D02*
X234044524Y-76154011D01*
X234044524Y-76154011D02*
X234044524Y-76335440D01*
X234044524Y-76335440D02*
X233984048Y-76577345D01*
X233984048Y-76577345D02*
X233923571Y-76698297D01*
X233923571Y-76698297D02*
X233802619Y-76819250D01*
X233802619Y-76819250D02*
X233621190Y-76879726D01*
X233621190Y-76879726D02*
X233318809Y-76879726D01*
X234588809Y-76879726D02*
X234588809Y-75609726D01*
X235012143Y-75609726D02*
X235435476Y-76879726D01*
X235435476Y-76879726D02*
X235858810Y-75609726D01*
X230416190Y-84395916D02*
X231383810Y-84395916D01*
X230900000Y-84879726D02*
X230900000Y-83912107D01*
X233316190Y-84495916D02*
X234283810Y-84495916D01*
D13*
%TO.C,G\u002A\u002A\u002A*%
G36*
X229204808Y-127079199D02*
G01*
X229301889Y-127103328D01*
X229336553Y-127119616D01*
X229410351Y-127180421D01*
X229460539Y-127265379D01*
X229486856Y-127372491D01*
X229489044Y-127499761D01*
X229466843Y-127645190D01*
X229424195Y-127794651D01*
X229359559Y-127954499D01*
X229269797Y-128131982D01*
X229157457Y-128323210D01*
X229025085Y-128524293D01*
X228875227Y-128731342D01*
X228710431Y-128940465D01*
X228553021Y-129125450D01*
X228482331Y-129205983D01*
X228430940Y-129266646D01*
X228394865Y-129313779D01*
X228370122Y-129353722D01*
X228352729Y-129392815D01*
X228338700Y-129437398D01*
X228325720Y-129487218D01*
X228301010Y-129609058D01*
X228289745Y-129721722D01*
X228291667Y-129819834D01*
X228306522Y-129898012D01*
X228334052Y-129950878D01*
X228348414Y-129963638D01*
X228392783Y-129976202D01*
X228456406Y-129973642D01*
X228527640Y-129957398D01*
X228584403Y-129934453D01*
X228641098Y-129900982D01*
X228709102Y-129854087D01*
X228773743Y-129803889D01*
X228774067Y-129803619D01*
X228797410Y-129784114D01*
X229410696Y-129784114D01*
X229421499Y-129875924D01*
X229451705Y-129939713D01*
X229498010Y-129974048D01*
X229557110Y-129977496D01*
X229625699Y-129948625D01*
X229683866Y-129902553D01*
X229713813Y-129871726D01*
X229740380Y-129837597D01*
X229766563Y-129794551D01*
X229795359Y-129736968D01*
X229829766Y-129659231D01*
X229872779Y-129555724D01*
X229885356Y-129524846D01*
X229938773Y-129389912D01*
X229977896Y-129281784D01*
X230003751Y-129195737D01*
X230017362Y-129127041D01*
X230019754Y-129070969D01*
X230011954Y-129022794D01*
X230001038Y-128991384D01*
X229963184Y-128934971D01*
X229911635Y-128909173D01*
X229849428Y-128913796D01*
X229779604Y-128948648D01*
X229708665Y-129009913D01*
X229631915Y-129107352D01*
X229561163Y-129230339D01*
X229500038Y-129369446D01*
X229452169Y-129515241D01*
X229421186Y-129658295D01*
X229410696Y-129784114D01*
X228797410Y-129784114D01*
X228879664Y-129715384D01*
X228890800Y-129595562D01*
X228921391Y-129425682D01*
X228979323Y-129256650D01*
X229060787Y-129094138D01*
X229161978Y-128943814D01*
X229279089Y-128811350D01*
X229408313Y-128702416D01*
X229543067Y-128623941D01*
X229651082Y-128590296D01*
X229765116Y-128581607D01*
X229874338Y-128597651D01*
X229958490Y-128632417D01*
X230020098Y-128677531D01*
X230078894Y-128734563D01*
X230098725Y-128758821D01*
X230137444Y-128808850D01*
X230162210Y-128831735D01*
X230178002Y-128829839D01*
X230189801Y-128805523D01*
X230190781Y-128802493D01*
X230230301Y-128730322D01*
X230295008Y-128668168D01*
X230376456Y-128619687D01*
X230466197Y-128588531D01*
X230555786Y-128578354D01*
X230636773Y-128592809D01*
X230655895Y-128601319D01*
X230688211Y-128622304D01*
X230710865Y-128649130D01*
X230723311Y-128684954D01*
X230725005Y-128732931D01*
X230715401Y-128796216D01*
X230693953Y-128877966D01*
X230660118Y-128981335D01*
X230613348Y-129109479D01*
X230553100Y-129265555D01*
X230531759Y-129319703D01*
X230473766Y-129467884D01*
X230428476Y-129587414D01*
X230394700Y-129681830D01*
X230371250Y-129754670D01*
X230356937Y-129809473D01*
X230350573Y-129849776D01*
X230350008Y-129860895D01*
X230355251Y-129925919D01*
X230374905Y-129964521D01*
X230410758Y-129976719D01*
X230464598Y-129962533D01*
X230538212Y-129921982D01*
X230621635Y-129863863D01*
X230720491Y-129798793D01*
X230805235Y-129759948D01*
X230874021Y-129747530D01*
X230925004Y-129761741D01*
X230956337Y-129802784D01*
X230962905Y-129826491D01*
X230964289Y-129884824D01*
X230944535Y-129944442D01*
X230901043Y-130009527D01*
X230831210Y-130084261D01*
X230764629Y-130145106D01*
X230628383Y-130252499D01*
X230496266Y-130334031D01*
X230370661Y-130389406D01*
X230253950Y-130418329D01*
X230148514Y-130420504D01*
X230056735Y-130395638D01*
X229980995Y-130343433D01*
X229923676Y-130263596D01*
X229917230Y-130250135D01*
X229896646Y-130194118D01*
X229885188Y-130142227D01*
X229884373Y-130130435D01*
X229879194Y-130091824D01*
X229864493Y-130086859D01*
X229840199Y-130115557D01*
X229822966Y-130145244D01*
X229765813Y-130224780D01*
X229687605Y-130297520D01*
X229597453Y-130357479D01*
X229504469Y-130398674D01*
X229417765Y-130415119D01*
X229411956Y-130415188D01*
X229310782Y-130398111D01*
X229211873Y-130349749D01*
X229120439Y-130273753D01*
X229041689Y-130173771D01*
X229023020Y-130142682D01*
X228973028Y-130054101D01*
X228877912Y-130144046D01*
X228774043Y-130227001D01*
X228649255Y-130302782D01*
X228517679Y-130363397D01*
X228447784Y-130387303D01*
X228353802Y-130406563D01*
X228249768Y-130414488D01*
X228147633Y-130411219D01*
X228059347Y-130396896D01*
X228016136Y-130382224D01*
X227939567Y-130332076D01*
X227869735Y-130259211D01*
X227817012Y-130175781D01*
X227798245Y-130126934D01*
X227776817Y-130050401D01*
X227654349Y-130145024D01*
X227484984Y-130259404D01*
X227314131Y-130342699D01*
X227144417Y-130393958D01*
X226978469Y-130412234D01*
X226919389Y-130410504D01*
X226776167Y-130386356D01*
X226651202Y-130335854D01*
X226547651Y-130260911D01*
X226468673Y-130163442D01*
X226447453Y-130124429D01*
X226409560Y-130046152D01*
X226282191Y-130167140D01*
X226155200Y-130272193D01*
X226027981Y-130348169D01*
X225903317Y-130395216D01*
X225783991Y-130413481D01*
X225672785Y-130403113D01*
X225572480Y-130364260D01*
X225485860Y-130297069D01*
X225415707Y-130201689D01*
X225378195Y-130119076D01*
X225357480Y-130065318D01*
X225341205Y-130028679D01*
X225332998Y-130017162D01*
X225321283Y-130033719D01*
X225295846Y-130071929D01*
X225261903Y-130123942D01*
X225257470Y-130130795D01*
X225210854Y-130194215D01*
X225158095Y-130253136D01*
X225115019Y-130291284D01*
X224997681Y-130358291D01*
X224865950Y-130403169D01*
X224729633Y-130423957D01*
X224598539Y-130418692D01*
X224540095Y-130406265D01*
X224419408Y-130356435D01*
X224321586Y-130280356D01*
X224245360Y-130176916D01*
X224219927Y-130126052D01*
X224193582Y-130040745D01*
X224177053Y-129930610D01*
X224170705Y-129804582D01*
X224174900Y-129671594D01*
X224190005Y-129540580D01*
X224194900Y-129512526D01*
X224218644Y-129396409D01*
X224251470Y-129252539D01*
X224291928Y-129086599D01*
X224338566Y-128904273D01*
X224389931Y-128711247D01*
X224444573Y-128513203D01*
X224496594Y-128331098D01*
X224536740Y-128190671D01*
X224567315Y-128077619D01*
X224589647Y-127985995D01*
X224605060Y-127909850D01*
X224614879Y-127843237D01*
X224620431Y-127780208D01*
X224620811Y-127773728D01*
X224629863Y-127612570D01*
X224576286Y-127558994D01*
X224511893Y-127515071D01*
X224443259Y-127505429D01*
X224374162Y-127530219D01*
X224347235Y-127549814D01*
X224309033Y-127590493D01*
X224282065Y-127642370D01*
X224263548Y-127713157D01*
X224250698Y-127810572D01*
X224249833Y-127819736D01*
X224236484Y-127909367D01*
X224214237Y-127968732D01*
X224180367Y-128002075D01*
X224132146Y-128013642D01*
X224125199Y-128013768D01*
X224060874Y-127999213D01*
X224013164Y-127958769D01*
X223981787Y-127897266D01*
X223966463Y-127819533D01*
X223966911Y-127730402D01*
X223982852Y-127634701D01*
X224014005Y-127537262D01*
X224060088Y-127442915D01*
X224120822Y-127356488D01*
X224166144Y-127308597D01*
X224254833Y-127238173D01*
X224350202Y-127189644D01*
X224459993Y-127160381D01*
X224591947Y-127147756D01*
X224642718Y-127146789D01*
X224734803Y-127147830D01*
X224800899Y-127152588D01*
X224849984Y-127162246D01*
X224891037Y-127177985D01*
X224895200Y-127180016D01*
X224998087Y-127250243D01*
X225082802Y-127348251D01*
X225146934Y-127470503D01*
X225186951Y-127607671D01*
X225195440Y-127657583D01*
X225200495Y-127707688D01*
X225201504Y-127761085D01*
X225197858Y-127820870D01*
X225188948Y-127890140D01*
X225174162Y-127971991D01*
X225152893Y-128069521D01*
X225124528Y-128185826D01*
X225088459Y-128324002D01*
X225044076Y-128487148D01*
X224990768Y-128678359D01*
X224942170Y-128850496D01*
X224885566Y-129053109D01*
X224839388Y-129225486D01*
X224803143Y-129370706D01*
X224776337Y-129491849D01*
X224758478Y-129591992D01*
X224749071Y-129674216D01*
X224747625Y-129741599D01*
X224753644Y-129797219D01*
X224766637Y-129844157D01*
X224778598Y-129871489D01*
X224824012Y-129925951D01*
X224887901Y-129954640D01*
X224961370Y-129953690D01*
X224965508Y-129952703D01*
X225036916Y-129917369D01*
X225107596Y-129847363D01*
X225177574Y-129742627D01*
X225246876Y-129603103D01*
X225315528Y-129428734D01*
X225383557Y-129219464D01*
X225450989Y-128975234D01*
X225495423Y-128793823D01*
X225525055Y-128670101D01*
X225559223Y-128532099D01*
X225596790Y-128384007D01*
X225636624Y-128230017D01*
X225677589Y-128074321D01*
X225718551Y-127921110D01*
X225758375Y-127774576D01*
X225795927Y-127638909D01*
X225830072Y-127518302D01*
X225859676Y-127416946D01*
X225883604Y-127339031D01*
X225900722Y-127288751D01*
X225906554Y-127274920D01*
X225953981Y-127212081D01*
X226020867Y-127164565D01*
X226100586Y-127132655D01*
X226186513Y-127116638D01*
X226272022Y-127116799D01*
X226350489Y-127133421D01*
X226415286Y-127166791D01*
X226459790Y-127217192D01*
X226472797Y-127250566D01*
X226471232Y-127279065D01*
X226460976Y-127336924D01*
X226443002Y-127419804D01*
X226418282Y-127523363D01*
X226387790Y-127643262D01*
X226368049Y-127717813D01*
X226304249Y-127956622D01*
X226242433Y-128190241D01*
X226183570Y-128414894D01*
X226128629Y-128626805D01*
X226078581Y-128822201D01*
X226034394Y-128997305D01*
X225997039Y-129148342D01*
X225967485Y-129271538D01*
X225954363Y-129328468D01*
X225925645Y-129473818D01*
X225906699Y-129609289D01*
X225897804Y-129729710D01*
X225899238Y-129829907D01*
X225911278Y-129904710D01*
X225921921Y-129932040D01*
X225941782Y-129962298D01*
X225966559Y-129974455D01*
X226009423Y-129973682D01*
X226024024Y-129972129D01*
X226105886Y-129946907D01*
X226185134Y-129894660D01*
X226254920Y-129823165D01*
X226308398Y-129740199D01*
X226338720Y-129653539D01*
X226343063Y-129609760D01*
X226351196Y-129520010D01*
X226373460Y-129411707D01*
X226406651Y-129296771D01*
X226447566Y-129187123D01*
X226469719Y-129138416D01*
X226529898Y-129039437D01*
X226612366Y-128936679D01*
X226708151Y-128839298D01*
X226808283Y-128756451D01*
X226900064Y-128699145D01*
X227046934Y-128638196D01*
X227188964Y-128603953D01*
X227322516Y-128596104D01*
X227443957Y-128614335D01*
X227549651Y-128658333D01*
X227635963Y-128727784D01*
X227666083Y-128765209D01*
X227695311Y-128812340D01*
X227712528Y-128858772D01*
X227721657Y-128918047D01*
X227725055Y-128968759D01*
X227720263Y-129099307D01*
X227690938Y-129205584D01*
X227636343Y-129289063D01*
X227555746Y-129351215D01*
X227527018Y-129365636D01*
X227443627Y-129393211D01*
X227366047Y-129393204D01*
X227291044Y-129370805D01*
X227218904Y-129327644D01*
X227178091Y-129269015D01*
X227169005Y-129195957D01*
X227191384Y-129111079D01*
X227234724Y-129046423D01*
X227295603Y-129006636D01*
X227365809Y-128994420D01*
X227437135Y-129012477D01*
X227456793Y-129023720D01*
X227487341Y-129041230D01*
X227498758Y-129037752D01*
X227499999Y-129026084D01*
X227489766Y-128995070D01*
X227465007Y-128955671D01*
X227463668Y-128953951D01*
X227429795Y-128922056D01*
X227386232Y-128909167D01*
X227353797Y-128907764D01*
X227272739Y-128922098D01*
X227198355Y-128966373D01*
X227128122Y-129042494D01*
X227081164Y-129113901D01*
X227003034Y-129267327D01*
X226953435Y-129417526D01*
X226928933Y-129575672D01*
X226926329Y-129617702D01*
X226923847Y-129697473D01*
X226926134Y-129753241D01*
X226934738Y-129795915D01*
X226951209Y-129836401D01*
X226959774Y-129853332D01*
X227016208Y-129929907D01*
X227088669Y-129975681D01*
X227175427Y-129989742D01*
X227212193Y-129986520D01*
X227261771Y-129972917D01*
X227332959Y-129945621D01*
X227417170Y-129908747D01*
X227505815Y-129866409D01*
X227590307Y-129822723D01*
X227662057Y-129781802D01*
X227712477Y-129747763D01*
X227715330Y-129745462D01*
X227736611Y-129724411D01*
X227754207Y-129696298D01*
X227770503Y-129654705D01*
X227787883Y-129593213D01*
X227808733Y-129505404D01*
X227815204Y-129476631D01*
X227870895Y-129242076D01*
X227933607Y-129004199D01*
X228001939Y-128766922D01*
X228015410Y-128723706D01*
X228585377Y-128723706D01*
X228649316Y-128653588D01*
X228682847Y-128612789D01*
X228729729Y-128550347D01*
X228784285Y-128474067D01*
X228840839Y-128391753D01*
X228853312Y-128373119D01*
X228930888Y-128251249D01*
X229005686Y-128123781D01*
X229075067Y-127996089D01*
X229136397Y-127873545D01*
X229187037Y-127761522D01*
X229224353Y-127665394D01*
X229245706Y-127590533D01*
X229249340Y-127566027D01*
X229252096Y-127508860D01*
X229246971Y-127477086D01*
X229232013Y-127461542D01*
X229226581Y-127459146D01*
X229180445Y-127459834D01*
X229127161Y-127493769D01*
X229067438Y-127560028D01*
X229001986Y-127657693D01*
X228931514Y-127785841D01*
X228861505Y-127932877D01*
X228819539Y-128030408D01*
X228774876Y-128141085D01*
X228730093Y-128257800D01*
X228687766Y-128373446D01*
X228650473Y-128480916D01*
X228620790Y-128573101D01*
X228601293Y-128642895D01*
X228597037Y-128662353D01*
X228585377Y-128723706D01*
X228015410Y-128723706D01*
X228074490Y-128534170D01*
X228149858Y-128309868D01*
X228226641Y-128097937D01*
X228303438Y-127902304D01*
X228378847Y-127726890D01*
X228451467Y-127575621D01*
X228519896Y-127452420D01*
X228560098Y-127391158D01*
X228648172Y-127283491D01*
X228743929Y-127200943D01*
X228858983Y-127133793D01*
X228878928Y-127124306D01*
X228982269Y-127089801D01*
X229094582Y-127074728D01*
X229204808Y-127079199D01*
G37*
G36*
X230957660Y-128738390D02*
G01*
X230959862Y-128744789D01*
X230935748Y-128747232D01*
X230910863Y-128744477D01*
X230913836Y-128738390D01*
X230949725Y-128736075D01*
X230957660Y-128738390D01*
G37*
G36*
X230865097Y-128692640D02*
G01*
X230871680Y-128705420D01*
X230876165Y-128730120D01*
X230864390Y-128725326D01*
X230856145Y-128713775D01*
X230850757Y-128690832D01*
X230852945Y-128686725D01*
X230865097Y-128692640D01*
G37*
G36*
X231017895Y-128708735D02*
G01*
X231014630Y-128714941D01*
X230998114Y-128731682D01*
X230995032Y-128732470D01*
X230993836Y-128721147D01*
X230997101Y-128714941D01*
X231013617Y-128698201D01*
X231016699Y-128697412D01*
X231017895Y-128708735D01*
G37*
G36*
X230951687Y-128595415D02*
G01*
X230939266Y-128607695D01*
X230935748Y-128610034D01*
X230920071Y-128628718D01*
X230929426Y-128640441D01*
X230938720Y-128658331D01*
X230925043Y-128676191D01*
X230908141Y-128686540D01*
X230901500Y-128670548D01*
X230900689Y-128645515D01*
X230906744Y-128605785D01*
X230927528Y-128592620D01*
X230931366Y-128592504D01*
X230951687Y-128595415D01*
G37*
G36*
X230970807Y-128688647D02*
G01*
X230962042Y-128697412D01*
X230953277Y-128688647D01*
X230962042Y-128679882D01*
X230970807Y-128688647D01*
G37*
G36*
X231035369Y-128641537D02*
G01*
X231037459Y-128668933D01*
X231033985Y-128675135D01*
X231026018Y-128669907D01*
X231024778Y-128652128D01*
X231029060Y-128633423D01*
X231035369Y-128641537D01*
G37*
G36*
X230875391Y-128586417D02*
G01*
X230872319Y-128600090D01*
X230858174Y-128624764D01*
X230849027Y-128620630D01*
X230848101Y-128610800D01*
X230860833Y-128587030D01*
X230865430Y-128583595D01*
X230875391Y-128586417D01*
G37*
G36*
X230991148Y-128569314D02*
G01*
X231005865Y-128583471D01*
X231021332Y-128605732D01*
X231011147Y-128604232D01*
X230980603Y-128582914D01*
X230961601Y-128563890D01*
X230965310Y-128557177D01*
X230991148Y-128569314D01*
G37*
G36*
X230918219Y-128565942D02*
G01*
X230909454Y-128574706D01*
X230900689Y-128565942D01*
X230909454Y-128557177D01*
X230918219Y-128565942D01*
G37*
D14*
%TO.C,J33*%
X175480000Y-75580000D02*
X175480000Y-80880000D01*
X178130000Y-75580000D02*
X175480000Y-75580000D01*
X178130000Y-75580000D02*
X178130000Y-78230000D01*
X178130000Y-78230000D02*
X180780000Y-78230000D01*
X179400000Y-75580000D02*
X180780000Y-75580000D01*
X180780000Y-75580000D02*
X180780000Y-76960000D01*
X180780000Y-78230000D02*
X180780000Y-80880000D01*
X180780000Y-80880000D02*
X175480000Y-80880000D01*
%TO.C,C19*%
X206765000Y-78738748D02*
X206765000Y-79261252D01*
X208235000Y-78738748D02*
X208235000Y-79261252D01*
%TO.C,C22*%
X223915000Y-99463748D02*
X223915000Y-99986252D01*
X225385000Y-99463748D02*
X225385000Y-99986252D01*
%TO.C,C49*%
X187037000Y-87723752D02*
X187037000Y-87201248D01*
X188507000Y-87723752D02*
X188507000Y-87201248D01*
%TO.C,C21*%
X221701000Y-99463748D02*
X221701000Y-99986252D01*
X223171000Y-99463748D02*
X223171000Y-99986252D01*
%TO.C,C69*%
X187037000Y-92223752D02*
X187037000Y-91701248D01*
X188507000Y-92223752D02*
X188507000Y-91701248D01*
%TO.C,J30*%
X171060500Y-98525000D02*
X171060500Y-99635000D01*
X171060500Y-101315000D02*
X171060500Y-102425000D01*
X174310500Y-98525000D02*
X174310500Y-99635000D01*
X174310500Y-101315000D02*
X174310500Y-102425000D01*
X174860500Y-100475000D02*
X175360500Y-100725000D01*
X175360500Y-100225000D02*
X174860500Y-100475000D01*
X175360500Y-100725000D02*
X175360500Y-100225000D01*
%TO.C,C24*%
X212170278Y-80865000D02*
X212692782Y-80865000D01*
X212170278Y-82335000D02*
X212692782Y-82335000D01*
%TO.C,C57*%
X201469752Y-76437000D02*
X200947248Y-76437000D01*
X201469752Y-77907000D02*
X200947248Y-77907000D01*
%TO.C,C47*%
X189251000Y-87723752D02*
X189251000Y-87201248D01*
X190721000Y-87723752D02*
X190721000Y-87201248D01*
%TO.C,R19*%
X206727064Y-73765000D02*
X206272936Y-73765000D01*
X206727064Y-75235000D02*
X206272936Y-75235000D01*
%TO.C,R27*%
X180265000Y-84472936D02*
X180265000Y-84927064D01*
X181735000Y-84472936D02*
X181735000Y-84927064D01*
%TO.C,C74*%
X197923752Y-113351000D02*
X197401248Y-113351000D01*
X197923752Y-114821000D02*
X197401248Y-114821000D01*
%TO.C,C31*%
X189251000Y-98401248D02*
X189251000Y-98923752D01*
X190721000Y-98401248D02*
X190721000Y-98923752D01*
%TO.C,J25*%
X184916604Y-65580000D02*
X184916604Y-70880000D01*
X187566604Y-65580000D02*
X184916604Y-65580000D01*
X187566604Y-65580000D02*
X187566604Y-68230000D01*
X187566604Y-68230000D02*
X190216604Y-68230000D01*
X188836604Y-65580000D02*
X190216604Y-65580000D01*
X190216604Y-65580000D02*
X190216604Y-66960000D01*
X190216604Y-68230000D02*
X190216604Y-70880000D01*
X190216604Y-70880000D02*
X184916604Y-70880000D01*
%TO.C,C46*%
X221137000Y-86201248D02*
X221137000Y-86723752D01*
X222607000Y-86201248D02*
X222607000Y-86723752D01*
%TO.C,C60*%
X202701248Y-108923000D02*
X203223752Y-108923000D01*
X202701248Y-110393000D02*
X203223752Y-110393000D01*
%TO.C,J23*%
X235639500Y-91100000D02*
X235639500Y-91600000D01*
X235639500Y-91600000D02*
X236139500Y-91350000D01*
X236139500Y-91350000D02*
X235639500Y-91100000D01*
X236689500Y-90510000D02*
X236689500Y-89400000D01*
X236689500Y-93300000D02*
X236689500Y-92190000D01*
X239939500Y-90510000D02*
X239939500Y-89400000D01*
X239939500Y-93300000D02*
X239939500Y-92190000D01*
%TO.C,C53*%
X201469752Y-80865000D02*
X200947248Y-80865000D01*
X201469752Y-82335000D02*
X200947248Y-82335000D01*
%TO.C,J32*%
X173080000Y-114345000D02*
X174460000Y-114345000D01*
X173080000Y-115725000D02*
X173080000Y-114345000D01*
X173080000Y-116995000D02*
X173080000Y-119645000D01*
X173080000Y-116995000D02*
X175730000Y-116995000D01*
X173080000Y-119645000D02*
X178380000Y-119645000D01*
X175730000Y-114345000D02*
X178380000Y-114345000D01*
X175730000Y-116995000D02*
X175730000Y-114345000D01*
X178380000Y-114345000D02*
X178380000Y-119645000D01*
%TO.C,C63*%
X202701248Y-115565000D02*
X203223752Y-115565000D01*
X202701248Y-117035000D02*
X203223752Y-117035000D01*
%TO.C,C76*%
X208265000Y-121761252D02*
X208265000Y-121238748D01*
X209735000Y-121761252D02*
X209735000Y-121238748D01*
%TO.C,J29*%
X171060500Y-88050000D02*
X171060500Y-89160000D01*
X171060500Y-90840000D02*
X171060500Y-91950000D01*
X174310500Y-88050000D02*
X174310500Y-89160000D01*
X174310500Y-90840000D02*
X174310500Y-91950000D01*
X174860500Y-90000000D02*
X175360500Y-90250000D01*
X175360500Y-89750000D02*
X174860500Y-90000000D01*
X175360500Y-90250000D02*
X175360500Y-89750000D01*
%TO.C,C59*%
X201469752Y-74223000D02*
X200947248Y-74223000D01*
X201469752Y-75693000D02*
X200947248Y-75693000D01*
%TO.C,C61*%
X202701248Y-111137000D02*
X203223752Y-111137000D01*
X202701248Y-112607000D02*
X203223752Y-112607000D01*
%TO.C,C23*%
X226129000Y-99501248D02*
X226129000Y-100023752D01*
X227599000Y-99501248D02*
X227599000Y-100023752D01*
%TO.C,C40*%
X196423752Y-76390000D02*
X195901248Y-76390000D01*
X196423752Y-77860000D02*
X195901248Y-77860000D01*
%TO.C,C25*%
X212170278Y-78651000D02*
X212692782Y-78651000D01*
X212170278Y-80121000D02*
X212692782Y-80121000D01*
%TO.C,C42*%
X196423752Y-74176000D02*
X195901248Y-74176000D01*
X196423752Y-75646000D02*
X195901248Y-75646000D01*
%TO.C,C64*%
X219488500Y-104466748D02*
X219488500Y-104989252D01*
X220958500Y-104466748D02*
X220958500Y-104989252D01*
%TO.C,C33*%
X187037000Y-98401248D02*
X187037000Y-98923752D01*
X188507000Y-98401248D02*
X188507000Y-98923752D01*
%TO.C,C66*%
X221702500Y-104466748D02*
X221702500Y-104989252D01*
X223172500Y-104466748D02*
X223172500Y-104989252D01*
%TO.C,C38*%
X196423752Y-78604000D02*
X195901248Y-78604000D01*
X196423752Y-80074000D02*
X195901248Y-80074000D01*
%TO.C,C62*%
X202701248Y-113351000D02*
X203223752Y-113351000D01*
X202701248Y-114821000D02*
X203223752Y-114821000D01*
%TO.C,C55*%
X201469752Y-78651000D02*
X200947248Y-78651000D01*
X201469752Y-80121000D02*
X200947248Y-80121000D01*
%TO.C,R25*%
X183215000Y-76177064D02*
X183215000Y-75722936D01*
X184685000Y-76177064D02*
X184685000Y-75722936D01*
%TO.C,C45*%
X191465000Y-87723752D02*
X191465000Y-87201248D01*
X192935000Y-87723752D02*
X192935000Y-87201248D01*
%TO.C,C48*%
X223351000Y-86201248D02*
X223351000Y-86723752D01*
X224821000Y-86201248D02*
X224821000Y-86723752D01*
%TO.C,C29*%
X191465000Y-98401248D02*
X191465000Y-98923752D01*
X192935000Y-98401248D02*
X192935000Y-98923752D01*
%TO.C,C35*%
X184823000Y-98401248D02*
X184823000Y-98923752D01*
X186293000Y-98401248D02*
X186293000Y-98923752D01*
%TO.C,J27*%
X194580000Y-65580000D02*
X194580000Y-70880000D01*
X197230000Y-65580000D02*
X194580000Y-65580000D01*
X197230000Y-65580000D02*
X197230000Y-68230000D01*
X197230000Y-68230000D02*
X199880000Y-68230000D01*
X198500000Y-65580000D02*
X199880000Y-65580000D01*
X199880000Y-65580000D02*
X199880000Y-66960000D01*
X199880000Y-68230000D02*
X199880000Y-70880000D01*
X199880000Y-70880000D02*
X194580000Y-70880000D01*
%TO.C,J31*%
X217580000Y-124080000D02*
X218960000Y-124080000D01*
X217580000Y-125460000D02*
X217580000Y-124080000D01*
X217580000Y-126730000D02*
X217580000Y-129380000D01*
X217580000Y-126730000D02*
X220230000Y-126730000D01*
X217580000Y-129380000D02*
X222880000Y-129380000D01*
X220230000Y-124080000D02*
X222880000Y-124080000D01*
X220230000Y-126730000D02*
X220230000Y-124080000D01*
X222880000Y-124080000D02*
X222880000Y-129380000D01*
%TO.C,C56*%
X216901248Y-76437000D02*
X217423752Y-76437000D01*
X216901248Y-77907000D02*
X217423752Y-77907000D01*
%TO.C,J24*%
X184480000Y-122620000D02*
X189780000Y-122620000D01*
X184480000Y-125270000D02*
X184480000Y-122620000D01*
X184480000Y-127920000D02*
X184480000Y-126540000D01*
X185860000Y-127920000D02*
X184480000Y-127920000D01*
X187130000Y-125270000D02*
X184480000Y-125270000D01*
X187130000Y-127920000D02*
X187130000Y-125270000D01*
X187130000Y-127920000D02*
X189780000Y-127920000D01*
X189780000Y-127920000D02*
X189780000Y-122620000D01*
%TO.C,C52*%
X216901248Y-80865000D02*
X217423752Y-80865000D01*
X216901248Y-82335000D02*
X217423752Y-82335000D01*
%TO.C,J22*%
X235639500Y-101600000D02*
X235639500Y-102100000D01*
X235639500Y-102100000D02*
X236139500Y-101850000D01*
X236139500Y-101850000D02*
X235639500Y-101600000D01*
X236689500Y-101010000D02*
X236689500Y-99900000D01*
X236689500Y-103800000D02*
X236689500Y-102690000D01*
X239939500Y-101010000D02*
X239939500Y-99900000D01*
X239939500Y-103800000D02*
X239939500Y-102690000D01*
%TO.C,C71*%
X184823000Y-92223752D02*
X184823000Y-91701248D01*
X186293000Y-92223752D02*
X186293000Y-91701248D01*
%TO.C,C73*%
X197923752Y-111137000D02*
X197401248Y-111137000D01*
X197923752Y-112607000D02*
X197401248Y-112607000D01*
%TO.C,C28*%
X191465000Y-103076248D02*
X191465000Y-103598752D01*
X192935000Y-103076248D02*
X192935000Y-103598752D01*
%TO.C,C39*%
X223893000Y-93076248D02*
X223893000Y-93598752D01*
X225363000Y-93076248D02*
X225363000Y-93598752D01*
%TO.C,J19*%
X207050000Y-128627500D02*
X208160000Y-128627500D01*
X207050000Y-131877500D02*
X208160000Y-131877500D01*
X208750000Y-127577500D02*
X209000000Y-128077500D01*
X209000000Y-128077500D02*
X209250000Y-127577500D01*
X209250000Y-127577500D02*
X208750000Y-127577500D01*
X209840000Y-128627500D02*
X210950000Y-128627500D01*
X209840000Y-131877500D02*
X210950000Y-131877500D01*
%TO.C,C30*%
X189251000Y-103076248D02*
X189251000Y-103598752D01*
X190721000Y-103076248D02*
X190721000Y-103598752D01*
%TO.C,C27*%
X212170278Y-74223000D02*
X212692782Y-74223000D01*
X212170278Y-75693000D02*
X212692782Y-75693000D01*
%TO.C,C54*%
X216901248Y-78651000D02*
X217423752Y-78651000D01*
X216901248Y-80121000D02*
X217423752Y-80121000D01*
%TO.C,C32*%
X187037000Y-103076248D02*
X187037000Y-103598752D01*
X188507000Y-103076248D02*
X188507000Y-103598752D01*
%TO.C,C26*%
X212170278Y-76437000D02*
X212692782Y-76437000D01*
X212170278Y-77907000D02*
X212692782Y-77907000D01*
%TO.C,C36*%
X196423752Y-80818000D02*
X195901248Y-80818000D01*
X196423752Y-82288000D02*
X195901248Y-82288000D01*
%TO.C,C50*%
X225565000Y-86201248D02*
X225565000Y-86723752D01*
X227035000Y-86201248D02*
X227035000Y-86723752D01*
%TO.C,J28*%
X196345000Y-122620000D02*
X201645000Y-122620000D01*
X196345000Y-125270000D02*
X196345000Y-122620000D01*
X196345000Y-127920000D02*
X196345000Y-126540000D01*
X197725000Y-127920000D02*
X196345000Y-127920000D01*
X198995000Y-125270000D02*
X196345000Y-125270000D01*
X198995000Y-127920000D02*
X198995000Y-125270000D01*
X198995000Y-127920000D02*
X201645000Y-127920000D01*
X201645000Y-127920000D02*
X201645000Y-122620000D01*
%TO.C,L5*%
X208290000Y-112761252D02*
X208290000Y-112238748D01*
X209710000Y-112761252D02*
X209710000Y-112238748D01*
%TO.C,C44*%
X218923000Y-86201248D02*
X218923000Y-86723752D01*
X220393000Y-86201248D02*
X220393000Y-86723752D01*
%TO.C,C37*%
X226107000Y-93076248D02*
X226107000Y-93598752D01*
X227577000Y-93076248D02*
X227577000Y-93598752D01*
%TO.C,J21*%
X218120000Y-65590000D02*
X223420000Y-65590000D01*
X218120000Y-68240000D02*
X218120000Y-65590000D01*
X218120000Y-70890000D02*
X218120000Y-69510000D01*
X219500000Y-70890000D02*
X218120000Y-70890000D01*
X220770000Y-68240000D02*
X218120000Y-68240000D01*
X220770000Y-70890000D02*
X220770000Y-68240000D01*
X220770000Y-70890000D02*
X223420000Y-70890000D01*
X223420000Y-70890000D02*
X223420000Y-65590000D01*
%TO.C,C43*%
X219465000Y-93076248D02*
X219465000Y-93598752D01*
X220935000Y-93076248D02*
X220935000Y-93598752D01*
%TO.C,J20*%
X230120000Y-109580000D02*
X231500000Y-109580000D01*
X230120000Y-110960000D02*
X230120000Y-109580000D01*
X230120000Y-112230000D02*
X230120000Y-114880000D01*
X230120000Y-112230000D02*
X232770000Y-112230000D01*
X230120000Y-114880000D02*
X235420000Y-114880000D01*
X232770000Y-109580000D02*
X235420000Y-109580000D01*
X232770000Y-112230000D02*
X232770000Y-109580000D01*
X235420000Y-109580000D02*
X235420000Y-114880000D01*
%TO.C,J18*%
X206660000Y-63122500D02*
X205550000Y-63122500D01*
X206660000Y-66372500D02*
X205550000Y-66372500D01*
X207250000Y-67422500D02*
X207750000Y-67422500D01*
X207500000Y-66922500D02*
X207250000Y-67422500D01*
X207750000Y-67422500D02*
X207500000Y-66922500D01*
X209450000Y-63122500D02*
X208340000Y-63122500D01*
X209450000Y-66372500D02*
X208340000Y-66372500D01*
%TO.C,C67*%
X189251000Y-92223752D02*
X189251000Y-91701248D01*
X190721000Y-92223752D02*
X190721000Y-91701248D01*
%TO.C,C68*%
X223916500Y-104466748D02*
X223916500Y-104989252D01*
X225386500Y-104466748D02*
X225386500Y-104989252D01*
%TO.C,R26*%
X186415000Y-76177064D02*
X186415000Y-75722936D01*
X187885000Y-76177064D02*
X187885000Y-75722936D01*
%TO.C,R24*%
X176765000Y-109772936D02*
X176765000Y-110227064D01*
X178235000Y-109772936D02*
X178235000Y-110227064D01*
%TO.C,J26*%
X229580000Y-77780000D02*
X234880000Y-77780000D01*
X229580000Y-80430000D02*
X229580000Y-77780000D01*
X229580000Y-83080000D02*
X229580000Y-81700000D01*
X230960000Y-83080000D02*
X229580000Y-83080000D01*
X232230000Y-80430000D02*
X229580000Y-80430000D01*
X232230000Y-83080000D02*
X232230000Y-80430000D01*
X232230000Y-83080000D02*
X234880000Y-83080000D01*
X234880000Y-83080000D02*
X234880000Y-77780000D01*
%TO.C,C51*%
X184823000Y-87723752D02*
X184823000Y-87201248D01*
X186293000Y-87723752D02*
X186293000Y-87201248D01*
%TO.C,C65*%
X191465000Y-92223752D02*
X191465000Y-91701248D01*
X192935000Y-92223752D02*
X192935000Y-91701248D01*
%TO.C,C20*%
X219487000Y-99463748D02*
X219487000Y-99986252D01*
X220957000Y-99463748D02*
X220957000Y-99986252D01*
%TO.C,C58*%
X216901248Y-74223000D02*
X217423752Y-74223000D01*
X216901248Y-75693000D02*
X217423752Y-75693000D01*
%TO.C,C72*%
X197923752Y-108923000D02*
X197401248Y-108923000D01*
X197923752Y-110393000D02*
X197401248Y-110393000D01*
%TO.C,C41*%
X221679000Y-93076248D02*
X221679000Y-93598752D01*
X223149000Y-93076248D02*
X223149000Y-93598752D01*
%TO.C,C34*%
X184823000Y-103076248D02*
X184823000Y-103598752D01*
X186293000Y-103076248D02*
X186293000Y-103598752D01*
%TO.C,C75*%
X197923752Y-115565000D02*
X197401248Y-115565000D01*
X197923752Y-117035000D02*
X197401248Y-117035000D01*
%TO.C,C70*%
X226130500Y-104466748D02*
X226130500Y-104989252D01*
X227600500Y-104466748D02*
X227600500Y-104989252D01*
%TD*%
M02*
