%TF.GenerationSoftware,KiCad,Pcbnew,9.0.3*%
%TF.CreationDate,2025-09-10T16:07:27-04:00*%
%TF.ProjectId,Group4_PCB_AP,47726f75-7034-45f5-9043-425f41502e6b,rev?*%
%TF.SameCoordinates,Original*%
%TF.FileFunction,Soldermask,Top*%
%TF.FilePolarity,Negative*%
%FSLAX46Y46*%
G04 Gerber Fmt 4.6, Leading zero omitted, Abs format (unit mm)*
G04 Created by KiCad (PCBNEW 9.0.3) date 2025-09-10 16:07:27*
%MOMM*%
%LPD*%
G01*
G04 APERTURE LIST*
G04 Aperture macros list*
%AMRoundRect*
0 Rectangle with rounded corners*
0 $1 Rounding radius*
0 $2 $3 $4 $5 $6 $7 $8 $9 X,Y pos of 4 corners*
0 Add a 4 corners polygon primitive as box body*
4,1,4,$2,$3,$4,$5,$6,$7,$8,$9,$2,$3,0*
0 Add four circle primitives for the rounded corners*
1,1,$1+$1,$2,$3*
1,1,$1+$1,$4,$5*
1,1,$1+$1,$6,$7*
1,1,$1+$1,$8,$9*
0 Add four rect primitives between the rounded corners*
20,1,$1+$1,$2,$3,$4,$5,0*
20,1,$1+$1,$4,$5,$6,$7,0*
20,1,$1+$1,$6,$7,$8,$9,0*
20,1,$1+$1,$8,$9,$2,$3,0*%
%AMOutline5P*
0 Free polygon, 5 corners , with rotation*
0 The origin of the aperture is its center*
0 number of corners: always 5*
0 $1 to $10 corner X, Y*
0 $11 Rotation angle, in degrees counterclockwise*
0 create outline with 5 corners*
4,1,5,$1,$2,$3,$4,$5,$6,$7,$8,$9,$10,$1,$2,$11*%
%AMOutline6P*
0 Free polygon, 6 corners , with rotation*
0 The origin of the aperture is its center*
0 number of corners: always 6*
0 $1 to $12 corner X, Y*
0 $13 Rotation angle, in degrees counterclockwise*
0 create outline with 6 corners*
4,1,6,$1,$2,$3,$4,$5,$6,$7,$8,$9,$10,$11,$12,$1,$2,$13*%
%AMOutline7P*
0 Free polygon, 7 corners , with rotation*
0 The origin of the aperture is its center*
0 number of corners: always 7*
0 $1 to $14 corner X, Y*
0 $15 Rotation angle, in degrees counterclockwise*
0 create outline with 7 corners*
4,1,7,$1,$2,$3,$4,$5,$6,$7,$8,$9,$10,$11,$12,$13,$14,$1,$2,$15*%
%AMOutline8P*
0 Free polygon, 8 corners , with rotation*
0 The origin of the aperture is its center*
0 number of corners: always 8*
0 $1 to $16 corner X, Y*
0 $17 Rotation angle, in degrees counterclockwise*
0 create outline with 8 corners*
4,1,8,$1,$2,$3,$4,$5,$6,$7,$8,$9,$10,$11,$12,$13,$14,$15,$16,$1,$2,$17*%
G04 Aperture macros list end*
%ADD10C,0.600000*%
%ADD11R,1.700000X1.700000*%
%ADD12C,1.700000*%
%ADD13RoundRect,0.250000X-0.475000X0.337500X-0.475000X-0.337500X0.475000X-0.337500X0.475000X0.337500X0*%
%ADD14RoundRect,0.250000X0.475000X-0.337500X0.475000X0.337500X-0.475000X0.337500X-0.475000X-0.337500X0*%
%ADD15C,7.000000*%
%ADD16RoundRect,0.250000X-1.350000X0.385000X-1.350000X-0.385000X1.350000X-0.385000X1.350000X0.385000X0*%
%ADD17RoundRect,0.250000X-1.600000X0.425000X-1.600000X-0.425000X1.600000X-0.425000X1.600000X0.425000X0*%
%ADD18R,1.500000X0.508000*%
%ADD19R,0.508000X1.500000*%
%ADD20Outline7P,-6.415000X5.388600X-5.388600X6.415000X6.415000X6.415000X6.415000X-5.388600X5.388600X-6.415000X-5.388600X-6.415000X-6.415000X-5.388600X0.000000*%
%ADD21RoundRect,0.250000X-0.337500X-0.475000X0.337500X-0.475000X0.337500X0.475000X-0.337500X0.475000X0*%
%ADD22RoundRect,0.250000X0.337500X0.475000X-0.337500X0.475000X-0.337500X-0.475000X0.337500X-0.475000X0*%
%ADD23RoundRect,0.250000X0.350000X0.450000X-0.350000X0.450000X-0.350000X-0.450000X0.350000X-0.450000X0*%
%ADD24RoundRect,0.250000X-0.450000X0.350000X-0.450000X-0.350000X0.450000X-0.350000X0.450000X0.350000X0*%
%ADD25RoundRect,0.250000X1.350000X-0.385000X1.350000X0.385000X-1.350000X0.385000X-1.350000X-0.385000X0*%
%ADD26RoundRect,0.250000X1.600000X-0.425000X1.600000X0.425000X-1.600000X0.425000X-1.600000X-0.425000X0*%
%ADD27RoundRect,0.250000X0.450000X-0.350000X0.450000X0.350000X-0.450000X0.350000X-0.450000X-0.350000X0*%
%ADD28RoundRect,0.250000X-0.385000X-1.350000X0.385000X-1.350000X0.385000X1.350000X-0.385000X1.350000X0*%
%ADD29RoundRect,0.250000X-0.425000X-1.600000X0.425000X-1.600000X0.425000X1.600000X-0.425000X1.600000X0*%
%ADD30RoundRect,0.250000X0.450000X-0.325000X0.450000X0.325000X-0.450000X0.325000X-0.450000X-0.325000X0*%
%ADD31RoundRect,0.250000X0.385000X1.350000X-0.385000X1.350000X-0.385000X-1.350000X0.385000X-1.350000X0*%
%ADD32RoundRect,0.250000X0.425000X1.600000X-0.425000X1.600000X-0.425000X-1.600000X0.425000X-1.600000X0*%
G04 APERTURE END LIST*
D10*
X220050000Y-83750000D02*
G75*
G02*
X219450000Y-83750000I-300000J0D01*
G01*
X219450000Y-83750000D02*
G75*
G02*
X220050000Y-83750000I300000J0D01*
G01*
X194050000Y-94000000D02*
G75*
G02*
X193450000Y-94000000I-300000J0D01*
G01*
X193450000Y-94000000D02*
G75*
G02*
X194050000Y-94000000I300000J0D01*
G01*
X197050000Y-88250000D02*
G75*
G02*
X196450000Y-88250000I-300000J0D01*
G01*
X196450000Y-88250000D02*
G75*
G02*
X197050000Y-88250000I300000J0D01*
G01*
X205300000Y-106750000D02*
G75*
G02*
X204700000Y-106750000I-300000J0D01*
G01*
X204700000Y-106750000D02*
G75*
G02*
X205300000Y-106750000I300000J0D01*
G01*
X217300000Y-85250000D02*
G75*
G02*
X216700000Y-85250000I-300000J0D01*
G01*
X216700000Y-85250000D02*
G75*
G02*
X217300000Y-85250000I300000J0D01*
G01*
X217300000Y-93250000D02*
G75*
G02*
X216700000Y-93250000I-300000J0D01*
G01*
X216700000Y-93250000D02*
G75*
G02*
X217300000Y-93250000I300000J0D01*
G01*
X216800000Y-101000000D02*
G75*
G02*
X216200000Y-101000000I-300000J0D01*
G01*
X216200000Y-101000000D02*
G75*
G02*
X216800000Y-101000000I300000J0D01*
G01*
X195800000Y-93500000D02*
G75*
G02*
X195200000Y-93500000I-300000J0D01*
G01*
X195200000Y-93500000D02*
G75*
G02*
X195800000Y-93500000I300000J0D01*
G01*
X198300000Y-105750000D02*
G75*
G02*
X197700000Y-105750000I-300000J0D01*
G01*
X197700000Y-105750000D02*
G75*
G02*
X198300000Y-105750000I300000J0D01*
G01*
X200800000Y-107000000D02*
G75*
G02*
X200200000Y-107000000I-300000J0D01*
G01*
X200200000Y-107000000D02*
G75*
G02*
X200800000Y-107000000I300000J0D01*
G01*
X205550000Y-82500000D02*
G75*
G02*
X204950000Y-82500000I-300000J0D01*
G01*
X204950000Y-82500000D02*
G75*
G02*
X205550000Y-82500000I300000J0D01*
G01*
X215550000Y-84000000D02*
G75*
G02*
X214950000Y-84000000I-300000J0D01*
G01*
X214950000Y-84000000D02*
G75*
G02*
X215550000Y-84000000I300000J0D01*
G01*
X211800000Y-83500000D02*
G75*
G02*
X211200000Y-83500000I-300000J0D01*
G01*
X211200000Y-83500000D02*
G75*
G02*
X211800000Y-83500000I300000J0D01*
G01*
X194300000Y-96250000D02*
G75*
G02*
X193700000Y-96250000I-300000J0D01*
G01*
X193700000Y-96250000D02*
G75*
G02*
X194300000Y-96250000I300000J0D01*
G01*
X213550000Y-83250000D02*
G75*
G02*
X212950000Y-83250000I-300000J0D01*
G01*
X212950000Y-83250000D02*
G75*
G02*
X213550000Y-83250000I300000J0D01*
G01*
X196300000Y-100500000D02*
G75*
G02*
X195700000Y-100500000I-300000J0D01*
G01*
X195700000Y-100500000D02*
G75*
G02*
X196300000Y-100500000I300000J0D01*
G01*
X202800000Y-107000000D02*
G75*
G02*
X202200000Y-107000000I-300000J0D01*
G01*
X202200000Y-107000000D02*
G75*
G02*
X202800000Y-107000000I300000J0D01*
G01*
X194300000Y-100500000D02*
G75*
G02*
X193700000Y-100500000I-300000J0D01*
G01*
X193700000Y-100500000D02*
G75*
G02*
X194300000Y-100500000I300000J0D01*
G01*
X195300000Y-89500000D02*
G75*
G02*
X194700000Y-89500000I-300000J0D01*
G01*
X194700000Y-89500000D02*
G75*
G02*
X195300000Y-89500000I300000J0D01*
G01*
X217550000Y-102750000D02*
G75*
G02*
X216950000Y-102750000I-300000J0D01*
G01*
X216950000Y-102750000D02*
G75*
G02*
X217550000Y-102750000I300000J0D01*
G01*
X217300000Y-98500000D02*
G75*
G02*
X216700000Y-98500000I-300000J0D01*
G01*
X216700000Y-98500000D02*
G75*
G02*
X217300000Y-98500000I300000J0D01*
G01*
X199550000Y-85250000D02*
G75*
G02*
X198950000Y-85250000I-300000J0D01*
G01*
X198950000Y-85250000D02*
G75*
G02*
X199550000Y-85250000I300000J0D01*
G01*
X205050000Y-84000000D02*
G75*
G02*
X204450000Y-84000000I-300000J0D01*
G01*
X204450000Y-84000000D02*
G75*
G02*
X205050000Y-84000000I300000J0D01*
G01*
X218800000Y-99500000D02*
G75*
G02*
X218200000Y-99500000I-300000J0D01*
G01*
X218200000Y-99500000D02*
G75*
G02*
X218800000Y-99500000I300000J0D01*
G01*
X217800000Y-83750000D02*
G75*
G02*
X217200000Y-83750000I-300000J0D01*
G01*
X217200000Y-83750000D02*
G75*
G02*
X217800000Y-83750000I300000J0D01*
G01*
X201050000Y-85000000D02*
G75*
G02*
X200450000Y-85000000I-300000J0D01*
G01*
X200450000Y-85000000D02*
G75*
G02*
X201050000Y-85000000I300000J0D01*
G01*
X216800000Y-91250000D02*
G75*
G02*
X216200000Y-91250000I-300000J0D01*
G01*
X216200000Y-91250000D02*
G75*
G02*
X216800000Y-91250000I300000J0D01*
G01*
X196550000Y-97250000D02*
G75*
G02*
X195950000Y-97250000I-300000J0D01*
G01*
X195950000Y-97250000D02*
G75*
G02*
X196550000Y-97250000I300000J0D01*
G01*
D11*
%TO.C,J33*%
X179400000Y-76960000D03*
D12*
X179400000Y-79500000D03*
X176860000Y-76960000D03*
X176860000Y-79500000D03*
%TD*%
D13*
%TO.C,C19*%
X207500000Y-77962500D03*
X207500000Y-80037500D03*
%TD*%
%TO.C,C22*%
X224650000Y-98687500D03*
X224650000Y-100762500D03*
%TD*%
D14*
%TO.C,C49*%
X187772000Y-88500000D03*
X187772000Y-86425000D03*
%TD*%
D13*
%TO.C,C21*%
X222436000Y-98687500D03*
X222436000Y-100762500D03*
%TD*%
D14*
%TO.C,C69*%
X187772000Y-93000000D03*
X187772000Y-90925000D03*
%TD*%
D15*
%TO.C,*%
X175500000Y-67500000D03*
%TD*%
D16*
%TO.C,J30*%
X172600500Y-100475000D03*
D17*
X172850500Y-103300000D03*
X172850500Y-97650000D03*
%TD*%
D18*
%TO.C,U1*%
X198000000Y-89570000D03*
X198000000Y-101000000D03*
X198000000Y-102270000D03*
D19*
X199813500Y-87756500D03*
X199813500Y-104083500D03*
X201083500Y-87756500D03*
D20*
X206163500Y-95920000D03*
D19*
X211243500Y-104083500D03*
X212513500Y-87756500D03*
X212513500Y-104083500D03*
D18*
X214327000Y-89570000D03*
X214327000Y-90840000D03*
X214327000Y-102270000D03*
X214327000Y-92110000D03*
X214327000Y-93380000D03*
X214327000Y-94650000D03*
X214327000Y-95920000D03*
X214327000Y-97190000D03*
X214327000Y-98460000D03*
X214327000Y-99730000D03*
X214327000Y-101000000D03*
D19*
X209973500Y-104083500D03*
X208703500Y-104083500D03*
X207433500Y-104083500D03*
X206163500Y-104083500D03*
X204893500Y-104083500D03*
X203623500Y-104083500D03*
X202353500Y-104083500D03*
X201083500Y-104083500D03*
D18*
X198000000Y-99730000D03*
X198000000Y-98460000D03*
X198000000Y-97190000D03*
X198000000Y-95920000D03*
X198000000Y-94650000D03*
X198000000Y-93380000D03*
X198000000Y-92110000D03*
X198000000Y-90840000D03*
D19*
X202353500Y-87756500D03*
X203623500Y-87756500D03*
X204893500Y-87756500D03*
X206163500Y-87756500D03*
X207433500Y-87756500D03*
X208703500Y-87756500D03*
X209973500Y-87756500D03*
X211243500Y-87756500D03*
%TD*%
D21*
%TO.C,C24*%
X211394030Y-81600000D03*
X213469030Y-81600000D03*
%TD*%
D22*
%TO.C,C57*%
X202246000Y-77172000D03*
X200171000Y-77172000D03*
%TD*%
D14*
%TO.C,C47*%
X189986000Y-88500000D03*
X189986000Y-86425000D03*
%TD*%
D23*
%TO.C,R19*%
X207500000Y-74500000D03*
X205500000Y-74500000D03*
%TD*%
D24*
%TO.C,R27*%
X181000000Y-83700000D03*
X181000000Y-85700000D03*
%TD*%
D22*
%TO.C,C74*%
X198700000Y-114086000D03*
X196625000Y-114086000D03*
%TD*%
D13*
%TO.C,C31*%
X189986000Y-97625000D03*
X189986000Y-99700000D03*
%TD*%
D15*
%TO.C,*%
X235500000Y-67500000D03*
%TD*%
D11*
%TO.C,J25*%
X188836604Y-66960000D03*
D12*
X188836604Y-69500000D03*
X186296604Y-66960000D03*
X186296604Y-69500000D03*
%TD*%
D13*
%TO.C,C46*%
X221872000Y-85425000D03*
X221872000Y-87500000D03*
%TD*%
D21*
%TO.C,C60*%
X201925000Y-109658000D03*
X204000000Y-109658000D03*
%TD*%
D25*
%TO.C,J23*%
X238399500Y-91350000D03*
D26*
X238149500Y-88525000D03*
X238149500Y-94175000D03*
%TD*%
D22*
%TO.C,C53*%
X202246000Y-81600000D03*
X200171000Y-81600000D03*
%TD*%
D11*
%TO.C,J32*%
X174460000Y-115725000D03*
D12*
X177000000Y-115725000D03*
X174460000Y-118265000D03*
X177000000Y-118265000D03*
%TD*%
D21*
%TO.C,C63*%
X201925000Y-116300000D03*
X204000000Y-116300000D03*
%TD*%
D14*
%TO.C,C76*%
X209000000Y-122537500D03*
X209000000Y-120462500D03*
%TD*%
D16*
%TO.C,J29*%
X172600500Y-90000000D03*
D17*
X172850500Y-92825000D03*
X172850500Y-87175000D03*
%TD*%
D22*
%TO.C,C59*%
X202246000Y-74958000D03*
X200171000Y-74958000D03*
%TD*%
D15*
%TO.C,*%
X235500000Y-127500000D03*
%TD*%
D21*
%TO.C,C61*%
X201925000Y-111872000D03*
X204000000Y-111872000D03*
%TD*%
D13*
%TO.C,C23*%
X226864000Y-98725000D03*
X226864000Y-100800000D03*
%TD*%
D22*
%TO.C,C40*%
X197200000Y-77125000D03*
X195125000Y-77125000D03*
%TD*%
D21*
%TO.C,C25*%
X211394030Y-79386000D03*
X213469030Y-79386000D03*
%TD*%
D22*
%TO.C,C42*%
X197200000Y-74911000D03*
X195125000Y-74911000D03*
%TD*%
D13*
%TO.C,C64*%
X220223500Y-103690500D03*
X220223500Y-105765500D03*
%TD*%
%TO.C,C33*%
X187772000Y-97625000D03*
X187772000Y-99700000D03*
%TD*%
%TO.C,C66*%
X222437500Y-103690500D03*
X222437500Y-105765500D03*
%TD*%
D22*
%TO.C,C38*%
X197200000Y-79339000D03*
X195125000Y-79339000D03*
%TD*%
D21*
%TO.C,C62*%
X201925000Y-114086000D03*
X204000000Y-114086000D03*
%TD*%
D22*
%TO.C,C55*%
X202246000Y-79386000D03*
X200171000Y-79386000D03*
%TD*%
D27*
%TO.C,R25*%
X183950000Y-76950000D03*
X183950000Y-74950000D03*
%TD*%
D14*
%TO.C,C45*%
X192200000Y-88500000D03*
X192200000Y-86425000D03*
%TD*%
D13*
%TO.C,C48*%
X224086000Y-85425000D03*
X224086000Y-87500000D03*
%TD*%
%TO.C,C29*%
X192200000Y-97625000D03*
X192200000Y-99700000D03*
%TD*%
%TO.C,C35*%
X185558000Y-97625000D03*
X185558000Y-99700000D03*
%TD*%
D11*
%TO.C,J27*%
X198500000Y-66960000D03*
D12*
X198500000Y-69500000D03*
X195960000Y-66960000D03*
X195960000Y-69500000D03*
%TD*%
D11*
%TO.C,J31*%
X218960000Y-125460000D03*
D12*
X221500000Y-125460000D03*
X218960000Y-128000000D03*
X221500000Y-128000000D03*
%TD*%
D21*
%TO.C,C56*%
X216125000Y-77172000D03*
X218200000Y-77172000D03*
%TD*%
D11*
%TO.C,J24*%
X185860000Y-126540000D03*
D12*
X185860000Y-124000000D03*
X188400000Y-126540000D03*
X188400000Y-124000000D03*
%TD*%
D21*
%TO.C,C52*%
X216125000Y-81600000D03*
X218200000Y-81600000D03*
%TD*%
D25*
%TO.C,J22*%
X238399500Y-101850000D03*
D26*
X238149500Y-99025000D03*
X238149500Y-104675000D03*
%TD*%
D15*
%TO.C,*%
X175500000Y-127500000D03*
%TD*%
D14*
%TO.C,C71*%
X185558000Y-93000000D03*
X185558000Y-90925000D03*
%TD*%
D22*
%TO.C,C73*%
X198700000Y-111872000D03*
X196625000Y-111872000D03*
%TD*%
D13*
%TO.C,C28*%
X192200000Y-102300000D03*
X192200000Y-104375000D03*
%TD*%
%TO.C,C39*%
X224628000Y-92300000D03*
X224628000Y-94375000D03*
%TD*%
D28*
%TO.C,J19*%
X209000000Y-130337500D03*
D29*
X211825000Y-130087500D03*
X206175000Y-130087500D03*
%TD*%
D13*
%TO.C,C30*%
X189986000Y-102300000D03*
X189986000Y-104375000D03*
%TD*%
D21*
%TO.C,C27*%
X211394030Y-74958000D03*
X213469030Y-74958000D03*
%TD*%
%TO.C,C54*%
X216125000Y-79386000D03*
X218200000Y-79386000D03*
%TD*%
D13*
%TO.C,C32*%
X187772000Y-102300000D03*
X187772000Y-104375000D03*
%TD*%
D21*
%TO.C,C26*%
X211394030Y-77172000D03*
X213469030Y-77172000D03*
%TD*%
D22*
%TO.C,C36*%
X197200000Y-81553000D03*
X195125000Y-81553000D03*
%TD*%
D13*
%TO.C,C50*%
X226300000Y-85425000D03*
X226300000Y-87500000D03*
%TD*%
D11*
%TO.C,J28*%
X197725000Y-126540000D03*
D12*
X197725000Y-124000000D03*
X200265000Y-126540000D03*
X200265000Y-124000000D03*
%TD*%
D30*
%TO.C,L5*%
X209000000Y-113525000D03*
X209000000Y-111475000D03*
%TD*%
D13*
%TO.C,C44*%
X219658000Y-85425000D03*
X219658000Y-87500000D03*
%TD*%
%TO.C,C37*%
X226842000Y-92300000D03*
X226842000Y-94375000D03*
%TD*%
D11*
%TO.C,J21*%
X219500000Y-69510000D03*
D12*
X219500000Y-66970000D03*
X222040000Y-69510000D03*
X222040000Y-66970000D03*
%TD*%
D13*
%TO.C,C43*%
X220200000Y-92300000D03*
X220200000Y-94375000D03*
%TD*%
D11*
%TO.C,J20*%
X231500000Y-110960000D03*
D12*
X234040000Y-110960000D03*
X231500000Y-113500000D03*
X234040000Y-113500000D03*
%TD*%
D31*
%TO.C,J18*%
X207500000Y-64662500D03*
D32*
X204675000Y-64912500D03*
X210325000Y-64912500D03*
%TD*%
D14*
%TO.C,C67*%
X189986000Y-93000000D03*
X189986000Y-90925000D03*
%TD*%
D13*
%TO.C,C68*%
X224651500Y-103690500D03*
X224651500Y-105765500D03*
%TD*%
D27*
%TO.C,R26*%
X187150000Y-76950000D03*
X187150000Y-74950000D03*
%TD*%
D24*
%TO.C,R24*%
X177500000Y-109000000D03*
X177500000Y-111000000D03*
%TD*%
D11*
%TO.C,J26*%
X230960000Y-81700000D03*
D12*
X230960000Y-79160000D03*
X233500000Y-81700000D03*
X233500000Y-79160000D03*
%TD*%
D14*
%TO.C,C51*%
X185558000Y-88500000D03*
X185558000Y-86425000D03*
%TD*%
%TO.C,C65*%
X192200000Y-93000000D03*
X192200000Y-90925000D03*
%TD*%
D13*
%TO.C,C20*%
X220222000Y-98687500D03*
X220222000Y-100762500D03*
%TD*%
D21*
%TO.C,C58*%
X216125000Y-74958000D03*
X218200000Y-74958000D03*
%TD*%
D22*
%TO.C,C72*%
X198700000Y-109658000D03*
X196625000Y-109658000D03*
%TD*%
D13*
%TO.C,C41*%
X222414000Y-92300000D03*
X222414000Y-94375000D03*
%TD*%
%TO.C,C34*%
X185558000Y-102300000D03*
X185558000Y-104375000D03*
%TD*%
D22*
%TO.C,C75*%
X198700000Y-116300000D03*
X196625000Y-116300000D03*
%TD*%
D13*
%TO.C,C70*%
X226865500Y-103690500D03*
X226865500Y-105765500D03*
%TD*%
M02*
