%TF.GenerationSoftware,KiCad,Pcbnew,9.0.3*%
%TF.CreationDate,2025-09-10T16:07:27-04:00*%
%TF.ProjectId,Group4_PCB_AP,47726f75-7034-45f5-9043-425f41502e6b,rev?*%
%TF.SameCoordinates,Original*%
%TF.FileFunction,Paste,Top*%
%TF.FilePolarity,Positive*%
%FSLAX46Y46*%
G04 Gerber Fmt 4.6, Leading zero omitted, Abs format (unit mm)*
G04 Created by KiCad (PCBNEW 9.0.3) date 2025-09-10 16:07:27*
%MOMM*%
%LPD*%
G01*
G04 APERTURE LIST*
G04 Aperture macros list*
%AMRoundRect*
0 Rectangle with rounded corners*
0 $1 Rounding radius*
0 $2 $3 $4 $5 $6 $7 $8 $9 X,Y pos of 4 corners*
0 Add a 4 corners polygon primitive as box body*
4,1,4,$2,$3,$4,$5,$6,$7,$8,$9,$2,$3,0*
0 Add four circle primitives for the rounded corners*
1,1,$1+$1,$2,$3*
1,1,$1+$1,$4,$5*
1,1,$1+$1,$6,$7*
1,1,$1+$1,$8,$9*
0 Add four rect primitives between the rounded corners*
20,1,$1+$1,$2,$3,$4,$5,0*
20,1,$1+$1,$4,$5,$6,$7,0*
20,1,$1+$1,$6,$7,$8,$9,0*
20,1,$1+$1,$8,$9,$2,$3,0*%
%AMOutline5P*
0 Free polygon, 5 corners , with rotation*
0 The origin of the aperture is its center*
0 number of corners: always 5*
0 $1 to $10 corner X, Y*
0 $11 Rotation angle, in degrees counterclockwise*
0 create outline with 5 corners*
4,1,5,$1,$2,$3,$4,$5,$6,$7,$8,$9,$10,$1,$2,$11*%
%AMOutline6P*
0 Free polygon, 6 corners , with rotation*
0 The origin of the aperture is its center*
0 number of corners: always 6*
0 $1 to $12 corner X, Y*
0 $13 Rotation angle, in degrees counterclockwise*
0 create outline with 6 corners*
4,1,6,$1,$2,$3,$4,$5,$6,$7,$8,$9,$10,$11,$12,$1,$2,$13*%
%AMOutline7P*
0 Free polygon, 7 corners , with rotation*
0 The origin of the aperture is its center*
0 number of corners: always 7*
0 $1 to $14 corner X, Y*
0 $15 Rotation angle, in degrees counterclockwise*
0 create outline with 7 corners*
4,1,7,$1,$2,$3,$4,$5,$6,$7,$8,$9,$10,$11,$12,$13,$14,$1,$2,$15*%
%AMOutline8P*
0 Free polygon, 8 corners , with rotation*
0 The origin of the aperture is its center*
0 number of corners: always 8*
0 $1 to $16 corner X, Y*
0 $17 Rotation angle, in degrees counterclockwise*
0 create outline with 8 corners*
4,1,8,$1,$2,$3,$4,$5,$6,$7,$8,$9,$10,$11,$12,$13,$14,$15,$16,$1,$2,$17*%
G04 Aperture macros list end*
%ADD10RoundRect,0.250000X-0.475000X0.337500X-0.475000X-0.337500X0.475000X-0.337500X0.475000X0.337500X0*%
%ADD11RoundRect,0.250000X0.475000X-0.337500X0.475000X0.337500X-0.475000X0.337500X-0.475000X-0.337500X0*%
%ADD12R,1.500000X0.508000*%
%ADD13R,0.508000X1.500000*%
%ADD14Outline7P,-6.415000X5.388600X-5.388600X6.415000X6.415000X6.415000X6.415000X-5.388600X5.388600X-6.415000X-5.388600X-6.415000X-6.415000X-5.388600X0.000000*%
%ADD15RoundRect,0.250000X-0.337500X-0.475000X0.337500X-0.475000X0.337500X0.475000X-0.337500X0.475000X0*%
%ADD16RoundRect,0.250000X0.337500X0.475000X-0.337500X0.475000X-0.337500X-0.475000X0.337500X-0.475000X0*%
%ADD17RoundRect,0.250000X0.350000X0.450000X-0.350000X0.450000X-0.350000X-0.450000X0.350000X-0.450000X0*%
%ADD18RoundRect,0.250000X-0.450000X0.350000X-0.450000X-0.350000X0.450000X-0.350000X0.450000X0.350000X0*%
%ADD19RoundRect,0.250000X0.450000X-0.350000X0.450000X0.350000X-0.450000X0.350000X-0.450000X-0.350000X0*%
%ADD20RoundRect,0.250000X0.450000X-0.325000X0.450000X0.325000X-0.450000X0.325000X-0.450000X-0.325000X0*%
G04 APERTURE END LIST*
D10*
%TO.C,C19*%
X207500000Y-77962500D03*
X207500000Y-80037500D03*
%TD*%
%TO.C,C22*%
X224650000Y-98687500D03*
X224650000Y-100762500D03*
%TD*%
D11*
%TO.C,C49*%
X187772000Y-88500000D03*
X187772000Y-86425000D03*
%TD*%
D10*
%TO.C,C21*%
X222436000Y-98687500D03*
X222436000Y-100762500D03*
%TD*%
D11*
%TO.C,C69*%
X187772000Y-93000000D03*
X187772000Y-90925000D03*
%TD*%
D12*
%TO.C,U1*%
X198000000Y-89570000D03*
X198000000Y-101000000D03*
X198000000Y-102270000D03*
D13*
X199813500Y-87756500D03*
X199813500Y-104083500D03*
X201083500Y-87756500D03*
D14*
X206163500Y-95920000D03*
D13*
X211243500Y-104083500D03*
X212513500Y-87756500D03*
X212513500Y-104083500D03*
D12*
X214327000Y-89570000D03*
X214327000Y-90840000D03*
X214327000Y-102270000D03*
X214327000Y-92110000D03*
X214327000Y-93380000D03*
X214327000Y-94650000D03*
X214327000Y-95920000D03*
X214327000Y-97190000D03*
X214327000Y-98460000D03*
X214327000Y-99730000D03*
X214327000Y-101000000D03*
D13*
X209973500Y-104083500D03*
X208703500Y-104083500D03*
X207433500Y-104083500D03*
X206163500Y-104083500D03*
X204893500Y-104083500D03*
X203623500Y-104083500D03*
X202353500Y-104083500D03*
X201083500Y-104083500D03*
D12*
X198000000Y-99730000D03*
X198000000Y-98460000D03*
X198000000Y-97190000D03*
X198000000Y-95920000D03*
X198000000Y-94650000D03*
X198000000Y-93380000D03*
X198000000Y-92110000D03*
X198000000Y-90840000D03*
D13*
X202353500Y-87756500D03*
X203623500Y-87756500D03*
X204893500Y-87756500D03*
X206163500Y-87756500D03*
X207433500Y-87756500D03*
X208703500Y-87756500D03*
X209973500Y-87756500D03*
X211243500Y-87756500D03*
%TD*%
D15*
%TO.C,C24*%
X211394030Y-81600000D03*
X213469030Y-81600000D03*
%TD*%
D16*
%TO.C,C57*%
X202246000Y-77172000D03*
X200171000Y-77172000D03*
%TD*%
D11*
%TO.C,C47*%
X189986000Y-88500000D03*
X189986000Y-86425000D03*
%TD*%
D17*
%TO.C,R19*%
X207500000Y-74500000D03*
X205500000Y-74500000D03*
%TD*%
D18*
%TO.C,R27*%
X181000000Y-83700000D03*
X181000000Y-85700000D03*
%TD*%
D16*
%TO.C,C74*%
X198700000Y-114086000D03*
X196625000Y-114086000D03*
%TD*%
D10*
%TO.C,C31*%
X189986000Y-97625000D03*
X189986000Y-99700000D03*
%TD*%
%TO.C,C46*%
X221872000Y-85425000D03*
X221872000Y-87500000D03*
%TD*%
D15*
%TO.C,C60*%
X201925000Y-109658000D03*
X204000000Y-109658000D03*
%TD*%
D16*
%TO.C,C53*%
X202246000Y-81600000D03*
X200171000Y-81600000D03*
%TD*%
D15*
%TO.C,C63*%
X201925000Y-116300000D03*
X204000000Y-116300000D03*
%TD*%
D11*
%TO.C,C76*%
X209000000Y-122537500D03*
X209000000Y-120462500D03*
%TD*%
D16*
%TO.C,C59*%
X202246000Y-74958000D03*
X200171000Y-74958000D03*
%TD*%
D15*
%TO.C,C61*%
X201925000Y-111872000D03*
X204000000Y-111872000D03*
%TD*%
D10*
%TO.C,C23*%
X226864000Y-98725000D03*
X226864000Y-100800000D03*
%TD*%
D16*
%TO.C,C40*%
X197200000Y-77125000D03*
X195125000Y-77125000D03*
%TD*%
D15*
%TO.C,C25*%
X211394030Y-79386000D03*
X213469030Y-79386000D03*
%TD*%
D16*
%TO.C,C42*%
X197200000Y-74911000D03*
X195125000Y-74911000D03*
%TD*%
D10*
%TO.C,C64*%
X220223500Y-103690500D03*
X220223500Y-105765500D03*
%TD*%
%TO.C,C33*%
X187772000Y-97625000D03*
X187772000Y-99700000D03*
%TD*%
%TO.C,C66*%
X222437500Y-103690500D03*
X222437500Y-105765500D03*
%TD*%
D16*
%TO.C,C38*%
X197200000Y-79339000D03*
X195125000Y-79339000D03*
%TD*%
D15*
%TO.C,C62*%
X201925000Y-114086000D03*
X204000000Y-114086000D03*
%TD*%
D16*
%TO.C,C55*%
X202246000Y-79386000D03*
X200171000Y-79386000D03*
%TD*%
D19*
%TO.C,R25*%
X183950000Y-76950000D03*
X183950000Y-74950000D03*
%TD*%
D11*
%TO.C,C45*%
X192200000Y-88500000D03*
X192200000Y-86425000D03*
%TD*%
D10*
%TO.C,C48*%
X224086000Y-85425000D03*
X224086000Y-87500000D03*
%TD*%
%TO.C,C29*%
X192200000Y-97625000D03*
X192200000Y-99700000D03*
%TD*%
%TO.C,C35*%
X185558000Y-97625000D03*
X185558000Y-99700000D03*
%TD*%
D15*
%TO.C,C56*%
X216125000Y-77172000D03*
X218200000Y-77172000D03*
%TD*%
%TO.C,C52*%
X216125000Y-81600000D03*
X218200000Y-81600000D03*
%TD*%
D11*
%TO.C,C71*%
X185558000Y-93000000D03*
X185558000Y-90925000D03*
%TD*%
D16*
%TO.C,C73*%
X198700000Y-111872000D03*
X196625000Y-111872000D03*
%TD*%
D10*
%TO.C,C28*%
X192200000Y-102300000D03*
X192200000Y-104375000D03*
%TD*%
%TO.C,C39*%
X224628000Y-92300000D03*
X224628000Y-94375000D03*
%TD*%
%TO.C,C30*%
X189986000Y-102300000D03*
X189986000Y-104375000D03*
%TD*%
D15*
%TO.C,C27*%
X211394030Y-74958000D03*
X213469030Y-74958000D03*
%TD*%
%TO.C,C54*%
X216125000Y-79386000D03*
X218200000Y-79386000D03*
%TD*%
D10*
%TO.C,C32*%
X187772000Y-102300000D03*
X187772000Y-104375000D03*
%TD*%
D15*
%TO.C,C26*%
X211394030Y-77172000D03*
X213469030Y-77172000D03*
%TD*%
D16*
%TO.C,C36*%
X197200000Y-81553000D03*
X195125000Y-81553000D03*
%TD*%
D10*
%TO.C,C50*%
X226300000Y-85425000D03*
X226300000Y-87500000D03*
%TD*%
D20*
%TO.C,L5*%
X209000000Y-113525000D03*
X209000000Y-111475000D03*
%TD*%
D10*
%TO.C,C44*%
X219658000Y-85425000D03*
X219658000Y-87500000D03*
%TD*%
%TO.C,C37*%
X226842000Y-92300000D03*
X226842000Y-94375000D03*
%TD*%
%TO.C,C43*%
X220200000Y-92300000D03*
X220200000Y-94375000D03*
%TD*%
D11*
%TO.C,C67*%
X189986000Y-93000000D03*
X189986000Y-90925000D03*
%TD*%
D10*
%TO.C,C68*%
X224651500Y-103690500D03*
X224651500Y-105765500D03*
%TD*%
D19*
%TO.C,R26*%
X187150000Y-76950000D03*
X187150000Y-74950000D03*
%TD*%
D18*
%TO.C,R24*%
X177500000Y-109000000D03*
X177500000Y-111000000D03*
%TD*%
D11*
%TO.C,C51*%
X185558000Y-88500000D03*
X185558000Y-86425000D03*
%TD*%
%TO.C,C65*%
X192200000Y-93000000D03*
X192200000Y-90925000D03*
%TD*%
D10*
%TO.C,C20*%
X220222000Y-98687500D03*
X220222000Y-100762500D03*
%TD*%
D15*
%TO.C,C58*%
X216125000Y-74958000D03*
X218200000Y-74958000D03*
%TD*%
D16*
%TO.C,C72*%
X198700000Y-109658000D03*
X196625000Y-109658000D03*
%TD*%
D10*
%TO.C,C41*%
X222414000Y-92300000D03*
X222414000Y-94375000D03*
%TD*%
%TO.C,C34*%
X185558000Y-102300000D03*
X185558000Y-104375000D03*
%TD*%
D16*
%TO.C,C75*%
X198700000Y-116300000D03*
X196625000Y-116300000D03*
%TD*%
D10*
%TO.C,C70*%
X226865500Y-103690500D03*
X226865500Y-105765500D03*
%TD*%
M02*
