%TF.GenerationSoftware,KiCad,Pcbnew,9.0.3*%
%TF.CreationDate,2025-09-10T16:07:27-04:00*%
%TF.ProjectId,Group4_PCB_AP,47726f75-7034-45f5-9043-425f41502e6b,rev?*%
%TF.SameCoordinates,Original*%
%TF.FileFunction,Copper,L2,Bot*%
%TF.FilePolarity,Positive*%
%FSLAX46Y46*%
G04 Gerber Fmt 4.6, Leading zero omitted, Abs format (unit mm)*
G04 Created by KiCad (PCBNEW 9.0.3) date 2025-09-10 16:07:27*
%MOMM*%
%LPD*%
G01*
G04 APERTURE LIST*
G04 Aperture macros list*
%AMRoundRect*
0 Rectangle with rounded corners*
0 $1 Rounding radius*
0 $2 $3 $4 $5 $6 $7 $8 $9 X,Y pos of 4 corners*
0 Add a 4 corners polygon primitive as box body*
4,1,4,$2,$3,$4,$5,$6,$7,$8,$9,$2,$3,0*
0 Add four circle primitives for the rounded corners*
1,1,$1+$1,$2,$3*
1,1,$1+$1,$4,$5*
1,1,$1+$1,$6,$7*
1,1,$1+$1,$8,$9*
0 Add four rect primitives between the rounded corners*
20,1,$1+$1,$2,$3,$4,$5,0*
20,1,$1+$1,$4,$5,$6,$7,0*
20,1,$1+$1,$6,$7,$8,$9,0*
20,1,$1+$1,$8,$9,$2,$3,0*%
G04 Aperture macros list end*
%TA.AperFunction,ComponentPad*%
%ADD10R,1.700000X1.700000*%
%TD*%
%TA.AperFunction,ComponentPad*%
%ADD11C,1.700000*%
%TD*%
%TA.AperFunction,ComponentPad*%
%ADD12C,7.000000*%
%TD*%
%TA.AperFunction,SMDPad,CuDef*%
%ADD13RoundRect,0.250000X-1.600000X0.425000X-1.600000X-0.425000X1.600000X-0.425000X1.600000X0.425000X0*%
%TD*%
%TA.AperFunction,SMDPad,CuDef*%
%ADD14RoundRect,0.250000X1.600000X-0.425000X1.600000X0.425000X-1.600000X0.425000X-1.600000X-0.425000X0*%
%TD*%
%TA.AperFunction,SMDPad,CuDef*%
%ADD15RoundRect,0.250000X-0.425000X-1.600000X0.425000X-1.600000X0.425000X1.600000X-0.425000X1.600000X0*%
%TD*%
%TA.AperFunction,SMDPad,CuDef*%
%ADD16RoundRect,0.250000X0.425000X1.600000X-0.425000X1.600000X-0.425000X-1.600000X0.425000X-1.600000X0*%
%TD*%
%TA.AperFunction,ViaPad*%
%ADD17C,0.604800*%
%TD*%
%TA.AperFunction,Conductor*%
%ADD18C,0.508000*%
%TD*%
%TA.AperFunction,Conductor*%
%ADD19C,1.524000*%
%TD*%
G04 APERTURE END LIST*
D10*
%TO.P,J33,1,Pin_1*%
%TO.N,/VDD*%
X179400000Y-76960000D03*
D11*
%TO.P,J33,2,Pin_2*%
X179400000Y-79500000D03*
%TO.P,J33,3,Pin_3*%
%TO.N,/GND*%
X176860000Y-76960000D03*
%TO.P,J33,4,Pin_4*%
X176860000Y-79500000D03*
%TD*%
D12*
%TO.P,,1*%
%TO.N,/GND*%
X175500000Y-67500000D03*
%TD*%
D13*
%TO.P,J30,2,Ext*%
%TO.N,/GND*%
X172850500Y-103300000D03*
X172850500Y-97650000D03*
%TD*%
D12*
%TO.P,,1*%
%TO.N,/GND*%
X235500000Y-67500000D03*
%TD*%
D10*
%TO.P,J25,1,Pin_1*%
%TO.N,/VDD_MIX*%
X188836604Y-66960000D03*
D11*
%TO.P,J25,2,Pin_2*%
X188836604Y-69500000D03*
%TO.P,J25,3,Pin_3*%
%TO.N,/GND*%
X186296604Y-66960000D03*
%TO.P,J25,4,Pin_4*%
X186296604Y-69500000D03*
%TD*%
D14*
%TO.P,J23,2,Ext*%
%TO.N,/GND*%
X238149500Y-88525000D03*
X238149500Y-94175000D03*
%TD*%
D10*
%TO.P,J32,1,Pin_1*%
%TO.N,/GND*%
X174460000Y-115725000D03*
D11*
%TO.P,J32,2,Pin_2*%
X177000000Y-115725000D03*
%TO.P,J32,3,Pin_3*%
X174460000Y-118265000D03*
%TO.P,J32,4,Pin_4*%
X177000000Y-118265000D03*
%TD*%
D13*
%TO.P,J29,2,Ext*%
%TO.N,/GND*%
X172850500Y-92825000D03*
X172850500Y-87175000D03*
%TD*%
D12*
%TO.P,,1*%
%TO.N,/GND*%
X235500000Y-127500000D03*
%TD*%
D10*
%TO.P,J27,1,Pin_1*%
%TO.N,/VDD_BB*%
X198500000Y-66960000D03*
D11*
%TO.P,J27,2,Pin_2*%
X198500000Y-69500000D03*
%TO.P,J27,3,Pin_3*%
%TO.N,/GND*%
X195960000Y-66960000D03*
%TO.P,J27,4,Pin_4*%
X195960000Y-69500000D03*
%TD*%
D10*
%TO.P,J31,1,Pin_1*%
%TO.N,/GND*%
X218960000Y-125460000D03*
D11*
%TO.P,J31,2,Pin_2*%
X221500000Y-125460000D03*
%TO.P,J31,3,Pin_3*%
X218960000Y-128000000D03*
%TO.P,J31,4,Pin_4*%
X221500000Y-128000000D03*
%TD*%
D10*
%TO.P,J24,1,Pin_1*%
%TO.N,/VDD_LNA*%
X185860000Y-126540000D03*
D11*
%TO.P,J24,2,Pin_2*%
X185860000Y-124000000D03*
%TO.P,J24,3,Pin_3*%
%TO.N,/GND*%
X188400000Y-126540000D03*
%TO.P,J24,4,Pin_4*%
X188400000Y-124000000D03*
%TD*%
D14*
%TO.P,J22,2,Ext*%
%TO.N,/GND*%
X238149500Y-99025000D03*
X238149500Y-104675000D03*
%TD*%
D12*
%TO.P,,1*%
%TO.N,/GND*%
X175500000Y-127500000D03*
%TD*%
D15*
%TO.P,J19,2,Ext*%
%TO.N,/GND*%
X211825000Y-130087500D03*
X206175000Y-130087500D03*
%TD*%
D10*
%TO.P,J28,1,Pin_1*%
%TO.N,/DQ_EN*%
X197725000Y-126540000D03*
D11*
%TO.P,J28,2,Pin_2*%
X197725000Y-124000000D03*
%TO.P,J28,3,Pin_3*%
%TO.N,/GND*%
X200265000Y-126540000D03*
%TO.P,J28,4,Pin_4*%
X200265000Y-124000000D03*
%TD*%
D10*
%TO.P,J21,1,Pin_1*%
%TO.N,/BIAS_MIXER*%
X219500000Y-69510000D03*
D11*
%TO.P,J21,2,Pin_2*%
X219500000Y-66970000D03*
%TO.P,J21,3,Pin_3*%
%TO.N,/GND*%
X222040000Y-69510000D03*
%TO.P,J21,4,Pin_4*%
X222040000Y-66970000D03*
%TD*%
D10*
%TO.P,J20,1,Pin_1*%
%TO.N,/BIAS_LNA*%
X231500000Y-110960000D03*
D11*
%TO.P,J20,2,Pin_2*%
X234040000Y-110960000D03*
%TO.P,J20,3,Pin_3*%
%TO.N,/GND*%
X231500000Y-113500000D03*
%TO.P,J20,4,Pin_4*%
X234040000Y-113500000D03*
%TD*%
D16*
%TO.P,J18,2,Ext*%
%TO.N,/GND*%
X204675000Y-64912500D03*
X210325000Y-64912500D03*
%TD*%
D10*
%TO.P,J26,1,Pin_1*%
%TO.N,/VDD_DIV*%
X230960000Y-81700000D03*
D11*
%TO.P,J26,2,Pin_2*%
X230960000Y-79160000D03*
%TO.P,J26,3,Pin_3*%
%TO.N,/GND*%
X233500000Y-81700000D03*
%TO.P,J26,4,Pin_4*%
X233500000Y-79160000D03*
%TD*%
D17*
%TO.N,/GND*%
X194955500Y-105017500D03*
X212955500Y-108017500D03*
X185955500Y-82517500D03*
X190455500Y-109517500D03*
X202455500Y-64517500D03*
X224955500Y-81017500D03*
X182955500Y-87017500D03*
X218955500Y-90017500D03*
X172500000Y-95000000D03*
X194955500Y-109517500D03*
X197955500Y-87017500D03*
X182955500Y-67517500D03*
X238455500Y-75017500D03*
X175455500Y-108017500D03*
X236955500Y-82517500D03*
X194955500Y-106517500D03*
X220455500Y-112517500D03*
X211455500Y-106517500D03*
X190455500Y-81017500D03*
X218955500Y-115517500D03*
X209955500Y-75017500D03*
X188955500Y-76517500D03*
X232455500Y-105017500D03*
X203955500Y-130517500D03*
X182955500Y-73517500D03*
X226455500Y-67517500D03*
X227955500Y-69017500D03*
X211455500Y-126017500D03*
X209955500Y-69017500D03*
X191955500Y-112517500D03*
X206955500Y-124517500D03*
X221955500Y-90017500D03*
X193455500Y-78017500D03*
X233955500Y-120017500D03*
X209955500Y-73517500D03*
X226455500Y-117017500D03*
X193455500Y-114017500D03*
X215955500Y-106517500D03*
X179955500Y-69017500D03*
X182955500Y-66017500D03*
X235455500Y-79517500D03*
X232455500Y-106517500D03*
X184455500Y-82517500D03*
X238455500Y-109517500D03*
X173750000Y-95000000D03*
X236955500Y-75017500D03*
X236955500Y-108017500D03*
X220455500Y-75017500D03*
X227955500Y-67517500D03*
X236955500Y-120017500D03*
X182955500Y-120017500D03*
X178455500Y-85517500D03*
X224955500Y-75017500D03*
X203955500Y-78017500D03*
X214455500Y-66017500D03*
X220455500Y-109517500D03*
X172455500Y-73517500D03*
X221955500Y-120017500D03*
X217455500Y-111017500D03*
X214455500Y-123017500D03*
X173955500Y-76517500D03*
X217455500Y-109517500D03*
X215955500Y-109517500D03*
X178455500Y-91517500D03*
X233955500Y-118517500D03*
X185955500Y-118517500D03*
X217455500Y-108017500D03*
X173955500Y-112517500D03*
X191955500Y-81017500D03*
X209955500Y-78017500D03*
X173955500Y-73517500D03*
X191955500Y-66017500D03*
X173955500Y-81017500D03*
X223455500Y-78017500D03*
X185955500Y-121517500D03*
X236955500Y-72017500D03*
X188955500Y-75017500D03*
X191955500Y-109517500D03*
X188955500Y-121517500D03*
X232455500Y-93017500D03*
X191955500Y-127517500D03*
X221955500Y-121517500D03*
X188955500Y-118517500D03*
X229455500Y-75017500D03*
X220455500Y-73517500D03*
X194955500Y-112517500D03*
X229455500Y-79517500D03*
X205455500Y-76517500D03*
X181455500Y-67517500D03*
X191955500Y-79517500D03*
X185955500Y-106517500D03*
X190455500Y-121517500D03*
X178455500Y-99017500D03*
X238455500Y-73517500D03*
X227955500Y-88517500D03*
X226455500Y-72017500D03*
X187455500Y-118517500D03*
X179955500Y-67517500D03*
X214455500Y-106517500D03*
X212955500Y-106517500D03*
X233955500Y-87017500D03*
X205455500Y-111017500D03*
X227955500Y-73517500D03*
X220455500Y-121517500D03*
X188955500Y-81017500D03*
X185955500Y-78017500D03*
X215955500Y-115517500D03*
X175250000Y-95000000D03*
X233955500Y-72017500D03*
X172455500Y-76517500D03*
X202455500Y-67517500D03*
X181455500Y-123017500D03*
X238455500Y-115517500D03*
X206955500Y-127517500D03*
X182955500Y-117017500D03*
X209955500Y-81017500D03*
X182955500Y-115517500D03*
X179955500Y-70517500D03*
X181455500Y-64517500D03*
X221955500Y-81017500D03*
X215955500Y-70517500D03*
X205455500Y-126017500D03*
X191955500Y-82517500D03*
X215955500Y-111017500D03*
X226455500Y-69017500D03*
X188955500Y-115517500D03*
X197955500Y-85517500D03*
X176955500Y-72017500D03*
X220455500Y-78017500D03*
X218955500Y-108017500D03*
X212955500Y-67517500D03*
X202455500Y-69017500D03*
X232455500Y-73517500D03*
X173955500Y-79517500D03*
X206955500Y-114017500D03*
X184455500Y-112517500D03*
X226455500Y-79517500D03*
X172455500Y-75017500D03*
X227955500Y-66017500D03*
X224955500Y-73517500D03*
X229455500Y-64517500D03*
X179955500Y-121517500D03*
X187455500Y-121517500D03*
X179955500Y-117017500D03*
X214455500Y-130517500D03*
X185955500Y-114017500D03*
X221955500Y-111017500D03*
X184455500Y-117017500D03*
X175455500Y-123017500D03*
X173955500Y-75017500D03*
X181455500Y-129017500D03*
X187455500Y-82517500D03*
X179955500Y-111017500D03*
X173955500Y-106517500D03*
X193455500Y-126017500D03*
X238455500Y-79517500D03*
X175455500Y-111017500D03*
X182955500Y-114017500D03*
X224955500Y-72017500D03*
X229455500Y-78017500D03*
X212955500Y-111017500D03*
X215955500Y-114017500D03*
X215955500Y-117017500D03*
X236955500Y-79517500D03*
X211455500Y-124517500D03*
X190455500Y-111017500D03*
X212955500Y-126017500D03*
X185955500Y-79517500D03*
X190455500Y-108017500D03*
X229455500Y-81017500D03*
X184455500Y-115517500D03*
X182955500Y-124517500D03*
X229455500Y-69017500D03*
X224955500Y-66017500D03*
X194955500Y-126017500D03*
X217455500Y-106517500D03*
X215955500Y-112517500D03*
X182955500Y-79517500D03*
X193455500Y-108017500D03*
X182955500Y-81017500D03*
X226455500Y-90017500D03*
X236955500Y-76517500D03*
X214455500Y-112517500D03*
X211455500Y-108017500D03*
X188955500Y-78017500D03*
X215955500Y-130517500D03*
X190455500Y-118517500D03*
X235455500Y-84017500D03*
X229455500Y-105017500D03*
X238455500Y-123017500D03*
X214455500Y-64517500D03*
X188955500Y-79517500D03*
X179955500Y-106517500D03*
X203955500Y-73517500D03*
X223455500Y-79517500D03*
X181455500Y-124517500D03*
X214455500Y-108017500D03*
X233955500Y-88517500D03*
X182955500Y-90017500D03*
X190455500Y-73517500D03*
X238455500Y-118517500D03*
X223455500Y-81017500D03*
X182955500Y-82517500D03*
X226455500Y-82517500D03*
X206955500Y-108017500D03*
X229455500Y-66017500D03*
X217455500Y-115517500D03*
X238500000Y-96500000D03*
X220455500Y-76517500D03*
X227955500Y-64517500D03*
X191955500Y-78017500D03*
X190455500Y-75017500D03*
X182955500Y-118517500D03*
X238455500Y-114017500D03*
X238455500Y-111017500D03*
X211455500Y-109517500D03*
X211455500Y-127517500D03*
X209955500Y-76517500D03*
X191955500Y-129017500D03*
X212955500Y-124517500D03*
X203955500Y-76517500D03*
X232455500Y-72017500D03*
X196455500Y-85517500D03*
X193455500Y-129017500D03*
X211455500Y-118517500D03*
X188955500Y-117017500D03*
X172455500Y-82517500D03*
X212955500Y-64517500D03*
X185955500Y-120017500D03*
X205455500Y-123017500D03*
X190455500Y-78017500D03*
X179955500Y-72017500D03*
X223455500Y-90017500D03*
X191955500Y-75017500D03*
X188955500Y-109517500D03*
X191955500Y-106517500D03*
X185955500Y-81017500D03*
X179955500Y-126017500D03*
X179955500Y-127517500D03*
X227955500Y-78017500D03*
X205455500Y-127517500D03*
X226455500Y-76517500D03*
X227955500Y-79517500D03*
X215955500Y-67517500D03*
X191955500Y-64517500D03*
X172455500Y-106517500D03*
X226455500Y-75017500D03*
X224955500Y-108017500D03*
X175455500Y-84017500D03*
X203955500Y-123017500D03*
X187455500Y-81017500D03*
X205455500Y-78017500D03*
X227955500Y-81017500D03*
X194955500Y-130517500D03*
X173955500Y-111017500D03*
X187455500Y-79517500D03*
X237000000Y-96500000D03*
X190455500Y-120017500D03*
X212955500Y-109517500D03*
X235455500Y-81017500D03*
X232455500Y-118517500D03*
X214455500Y-127517500D03*
X238455500Y-78017500D03*
X224955500Y-90017500D03*
X233955500Y-73517500D03*
X223455500Y-108017500D03*
X203955500Y-79517500D03*
X220455500Y-90017500D03*
X206955500Y-123017500D03*
X184455500Y-114017500D03*
X236955500Y-118517500D03*
X233955500Y-90017500D03*
X179955500Y-124517500D03*
X221955500Y-109517500D03*
X209955500Y-67517500D03*
X232455500Y-91517500D03*
X182955500Y-72017500D03*
X235455500Y-121517500D03*
X220455500Y-82517500D03*
X172455500Y-79517500D03*
X226455500Y-78017500D03*
X227955500Y-72017500D03*
X190455500Y-84017500D03*
X223455500Y-111017500D03*
X178455500Y-72017500D03*
X238455500Y-76517500D03*
X229455500Y-94517500D03*
X203955500Y-129017500D03*
X193455500Y-75017500D03*
X175455500Y-106517500D03*
X223455500Y-120017500D03*
X182955500Y-112517500D03*
X236955500Y-73517500D03*
X191955500Y-126017500D03*
X211455500Y-115517500D03*
X181455500Y-127517500D03*
X230955500Y-66017500D03*
X227955500Y-75017500D03*
X173955500Y-78017500D03*
X181455500Y-130517500D03*
X182955500Y-103517500D03*
X191955500Y-84017500D03*
X178455500Y-105017500D03*
X178455500Y-102017500D03*
X224955500Y-82517500D03*
X182955500Y-64517500D03*
X217455500Y-114017500D03*
X221955500Y-73517500D03*
X229455500Y-91517500D03*
X236955500Y-84017500D03*
X215955500Y-129017500D03*
X232455500Y-123017500D03*
X227955500Y-82517500D03*
X224955500Y-76517500D03*
X191955500Y-124517500D03*
X181455500Y-126017500D03*
X229455500Y-72017500D03*
X236955500Y-78017500D03*
X182955500Y-84017500D03*
X230955500Y-73517500D03*
X172455500Y-81017500D03*
X187455500Y-117017500D03*
X184455500Y-81017500D03*
X193455500Y-73517500D03*
X217455500Y-112517500D03*
X215955500Y-124517500D03*
X203955500Y-124517500D03*
X233955500Y-85517500D03*
X181455500Y-70517500D03*
X232455500Y-87017500D03*
X212955500Y-123017500D03*
X235455500Y-120017500D03*
X187455500Y-108017500D03*
X182955500Y-85517500D03*
X215955500Y-108017500D03*
X178455500Y-84017500D03*
X230955500Y-64517500D03*
X214455500Y-126017500D03*
X178455500Y-100517500D03*
X178455500Y-90017500D03*
X196455500Y-87017500D03*
X193455500Y-130517500D03*
X230955500Y-67517500D03*
X206955500Y-115517500D03*
X224955500Y-69017500D03*
X211455500Y-114017500D03*
X209955500Y-79517500D03*
X187455500Y-114017500D03*
X187455500Y-106517500D03*
X191955500Y-67517500D03*
X193455500Y-84017500D03*
X233955500Y-75017500D03*
X182955500Y-111017500D03*
X214455500Y-118517500D03*
X191955500Y-73517500D03*
X191955500Y-118517500D03*
X173955500Y-84017500D03*
X172455500Y-123017500D03*
X193455500Y-76517500D03*
X233955500Y-96017500D03*
X206955500Y-126017500D03*
X194955500Y-115517500D03*
X236955500Y-123017500D03*
X218955500Y-112517500D03*
X226455500Y-66017500D03*
X194955500Y-121517500D03*
X226455500Y-115517500D03*
X173955500Y-82517500D03*
X235455500Y-82517500D03*
X238455500Y-81017500D03*
X206955500Y-106517500D03*
X179955500Y-120017500D03*
X205455500Y-118517500D03*
X203955500Y-75017500D03*
X173955500Y-109517500D03*
X173955500Y-72017500D03*
X232455500Y-90017500D03*
X218955500Y-114017500D03*
X238455500Y-112517500D03*
X215955500Y-123017500D03*
X227955500Y-76517500D03*
X235455500Y-123017500D03*
X175455500Y-109517500D03*
X229455500Y-70517500D03*
X223455500Y-76517500D03*
X229455500Y-90017500D03*
X197955500Y-84017500D03*
X193455500Y-82517500D03*
X184455500Y-84017500D03*
X196455500Y-106517500D03*
X214455500Y-115517500D03*
X235455500Y-85517500D03*
X203955500Y-69017500D03*
X182955500Y-109517500D03*
X193455500Y-81017500D03*
X181455500Y-66017500D03*
X193455500Y-106517500D03*
X172455500Y-108017500D03*
X235455500Y-73517500D03*
X179955500Y-108017500D03*
X211455500Y-123017500D03*
X233955500Y-121517500D03*
X182955500Y-70517500D03*
X184455500Y-120017500D03*
X236955500Y-121517500D03*
X238455500Y-121517500D03*
X238455500Y-108017500D03*
X214455500Y-111017500D03*
X172455500Y-78017500D03*
X203955500Y-67517500D03*
X223455500Y-121517500D03*
X238455500Y-120017500D03*
X212955500Y-127517500D03*
X235455500Y-118517500D03*
X214455500Y-129017500D03*
X215955500Y-127517500D03*
X190455500Y-82517500D03*
X176250000Y-94000000D03*
X185955500Y-115517500D03*
X173955500Y-108017500D03*
X200955500Y-118517500D03*
X217455500Y-117017500D03*
X235500000Y-96500000D03*
X206955500Y-118517500D03*
X226455500Y-70517500D03*
X233955500Y-76517500D03*
X202455500Y-66017500D03*
X188955500Y-82517500D03*
X232455500Y-75017500D03*
X230955500Y-76517500D03*
X190455500Y-117017500D03*
X229455500Y-73517500D03*
X224955500Y-70517500D03*
X226455500Y-73517500D03*
X181455500Y-72017500D03*
X182955500Y-100517500D03*
X205455500Y-109517500D03*
X179955500Y-118517500D03*
X179955500Y-109517500D03*
X191955500Y-108017500D03*
X233955500Y-123017500D03*
X184455500Y-118517500D03*
X193455500Y-124517500D03*
X190455500Y-106517500D03*
X206955500Y-109517500D03*
X221955500Y-108017500D03*
X212955500Y-66017500D03*
X184455500Y-79517500D03*
X191955500Y-130517500D03*
X187455500Y-84017500D03*
X179955500Y-129017500D03*
X188955500Y-106517500D03*
X235455500Y-108017500D03*
X194955500Y-85517500D03*
X221955500Y-79517500D03*
X185955500Y-112517500D03*
X203955500Y-127517500D03*
X182955500Y-126017500D03*
X232455500Y-108017500D03*
X196455500Y-84017500D03*
X212955500Y-112517500D03*
X232455500Y-100517500D03*
X178455500Y-103517500D03*
X224955500Y-79517500D03*
X191955500Y-76517500D03*
X224955500Y-67517500D03*
X193455500Y-109517500D03*
X238455500Y-82517500D03*
X224955500Y-117017500D03*
X194955500Y-123017500D03*
X194955500Y-111017500D03*
X205455500Y-69017500D03*
X193455500Y-127517500D03*
X172455500Y-109517500D03*
X223455500Y-73517500D03*
X203955500Y-81017500D03*
X220455500Y-114017500D03*
X229455500Y-102017500D03*
X211455500Y-117017500D03*
X224955500Y-78017500D03*
X220455500Y-81017500D03*
X214455500Y-114017500D03*
X211455500Y-112517500D03*
X230955500Y-69017500D03*
X238455500Y-85517500D03*
X218955500Y-109517500D03*
X188955500Y-84017500D03*
X172455500Y-84017500D03*
X212955500Y-69017500D03*
X181455500Y-69017500D03*
X212955500Y-114017500D03*
X218955500Y-111017500D03*
X203955500Y-126017500D03*
X212955500Y-118517500D03*
X236955500Y-85517500D03*
X184455500Y-111017500D03*
X187455500Y-120017500D03*
X179955500Y-123017500D03*
X223455500Y-109517500D03*
X232455500Y-76517500D03*
X205455500Y-112517500D03*
X179955500Y-66017500D03*
X172455500Y-72017500D03*
X206955500Y-117017500D03*
X221955500Y-78017500D03*
X214455500Y-67517500D03*
X220455500Y-108017500D03*
X209955500Y-82517500D03*
X175455500Y-112517500D03*
X215955500Y-126017500D03*
X185955500Y-84017500D03*
X176250000Y-95750000D03*
X194955500Y-127517500D03*
X172455500Y-111017500D03*
X205455500Y-117017500D03*
X238455500Y-84017500D03*
X178455500Y-88517500D03*
X205455500Y-81017500D03*
X175455500Y-72017500D03*
X191955500Y-111017500D03*
X194955500Y-124517500D03*
X190455500Y-79517500D03*
X194955500Y-108017500D03*
X235455500Y-78017500D03*
X214455500Y-109517500D03*
X224955500Y-109517500D03*
X214455500Y-124517500D03*
X223455500Y-75017500D03*
X232455500Y-121517500D03*
X233955500Y-91517500D03*
X212955500Y-115517500D03*
X205455500Y-67517500D03*
X211455500Y-111017500D03*
X227955500Y-70517500D03*
X172455500Y-112517500D03*
X232455500Y-88517500D03*
X193455500Y-112517500D03*
X193455500Y-123017500D03*
X179955500Y-130517500D03*
X205455500Y-124517500D03*
X205455500Y-108017500D03*
X214455500Y-117017500D03*
X221955500Y-82517500D03*
X227955500Y-90017500D03*
X193455500Y-111017500D03*
X206955500Y-111017500D03*
X236955500Y-81017500D03*
X191955500Y-120017500D03*
X211455500Y-69017500D03*
X188955500Y-120017500D03*
X221955500Y-75017500D03*
X182955500Y-127517500D03*
X179955500Y-115517500D03*
X229455500Y-67517500D03*
X212955500Y-117017500D03*
X223455500Y-82517500D03*
X235455500Y-75017500D03*
X230955500Y-72017500D03*
X235455500Y-72017500D03*
X185955500Y-117017500D03*
X229455500Y-93017500D03*
X215955500Y-118517500D03*
X221955500Y-76517500D03*
X220455500Y-79517500D03*
X188955500Y-108017500D03*
X226455500Y-64517500D03*
X184455500Y-72017500D03*
X173955500Y-123017500D03*
X187455500Y-115517500D03*
X233955500Y-102017500D03*
X176955500Y-123017500D03*
X223455500Y-118517500D03*
X194955500Y-114017500D03*
X212955500Y-73517500D03*
X215955500Y-66017500D03*
X235455500Y-76517500D03*
X205455500Y-79517500D03*
X182955500Y-69017500D03*
X206955500Y-112517500D03*
X238455500Y-72017500D03*
X238455500Y-117017500D03*
X190455500Y-76517500D03*
X184455500Y-121517500D03*
X230955500Y-75017500D03*
X220455500Y-111017500D03*
X179955500Y-64517500D03*
X194955500Y-84017500D03*
X229455500Y-88517500D03*
X232455500Y-120017500D03*
X194955500Y-129017500D03*
X178455500Y-123017500D03*
X230955500Y-70517500D03*
X229455500Y-76517500D03*
X196455500Y-105017500D03*
X205455500Y-114017500D03*
X221955500Y-112517500D03*
X205455500Y-115517500D03*
X211455500Y-67517500D03*
X178455500Y-87017500D03*
X226455500Y-81017500D03*
X193455500Y-79517500D03*
X233955500Y-97517500D03*
%TO.N,/VDD*%
X177500000Y-107000000D03*
%TO.N,/VDD_MIX*%
X217500000Y-89000000D03*
X201200000Y-83800000D03*
%TO.N,/VDD_DIV*%
X198700000Y-120500000D03*
X181000000Y-88500000D03*
X231000000Y-103700000D03*
%TO.N,/VDD_BB*%
X214900000Y-72600000D03*
X185750000Y-73500000D03*
%TD*%
D18*
%TO.N,/GND*%
X195960000Y-69500000D02*
X195960000Y-66960000D01*
X195960000Y-66960000D02*
X195950000Y-66950000D01*
X222040000Y-66970000D02*
X222470000Y-67400000D01*
X235400000Y-67400000D02*
X235500000Y-67500000D01*
%TO.N,/VDD*%
X177500000Y-83300000D02*
X179400000Y-81400000D01*
X177500000Y-107000000D02*
X177500000Y-83300000D01*
X179400000Y-81400000D02*
X179400000Y-79500000D01*
%TO.N,/VDD_MIX*%
X212300000Y-83800000D02*
X217537500Y-89037500D01*
X201200000Y-83800000D02*
X212300000Y-83800000D01*
D19*
%TO.N,/VDD_DIV*%
X197000000Y-120500000D02*
X181000000Y-104500000D01*
X231000000Y-81740000D02*
X231000000Y-107500000D01*
X231000000Y-107500000D02*
X218000000Y-120500000D01*
X230960000Y-81700000D02*
X231000000Y-81740000D01*
X230960000Y-81700000D02*
X230800000Y-81860000D01*
X181000000Y-104500000D02*
X181000000Y-88500000D01*
X218000000Y-120500000D02*
X197000000Y-120500000D01*
D18*
%TO.N,/VDD_BB*%
X213600000Y-71300000D02*
X214900000Y-72600000D01*
X185750000Y-73500000D02*
X187500000Y-71750000D01*
X198500000Y-69500000D02*
X201300000Y-69500000D01*
X187500000Y-71750000D02*
X202650000Y-71750000D01*
X203100000Y-71300000D02*
X213600000Y-71300000D01*
X202650000Y-71750000D02*
X203100000Y-71300000D01*
X198500000Y-66950000D02*
X198500000Y-69500000D01*
X201300000Y-69500000D02*
X203100000Y-71300000D01*
%TD*%
%TA.AperFunction,Conductor*%
%TO.N,/GND*%
G36*
X221034075Y-125652993D02*
G01*
X221099901Y-125767007D01*
X221192993Y-125860099D01*
X221307007Y-125925925D01*
X221370591Y-125942962D01*
X220769971Y-126543581D01*
X220848711Y-126660895D01*
X220869727Y-126727529D01*
X220851383Y-126794947D01*
X220802051Y-126840483D01*
X220792440Y-126845380D01*
X220738282Y-126884727D01*
X220738282Y-126884728D01*
X221370591Y-127517037D01*
X221307007Y-127534075D01*
X221192993Y-127599901D01*
X221099901Y-127692993D01*
X221034075Y-127807007D01*
X221017037Y-127870591D01*
X220384728Y-127238282D01*
X220384727Y-127238282D01*
X220345380Y-127292440D01*
X220340483Y-127302051D01*
X220292506Y-127352845D01*
X220224684Y-127369638D01*
X220158550Y-127347098D01*
X220119516Y-127302048D01*
X220114626Y-127292452D01*
X220075270Y-127238282D01*
X220075269Y-127238282D01*
X219442962Y-127870590D01*
X219425925Y-127807007D01*
X219360099Y-127692993D01*
X219267007Y-127599901D01*
X219152993Y-127534075D01*
X219089409Y-127517037D01*
X219758802Y-126847642D01*
X219820125Y-126814157D01*
X219834833Y-126815078D01*
X219834556Y-126812501D01*
X219917375Y-126803598D01*
X220052086Y-126753354D01*
X220052093Y-126753350D01*
X220167187Y-126667190D01*
X220167190Y-126667187D01*
X220253350Y-126552093D01*
X220253354Y-126552086D01*
X220275529Y-126492632D01*
X220314319Y-126319390D01*
X220314682Y-126318734D01*
X220314642Y-126317984D01*
X220347642Y-126258802D01*
X221017037Y-125589408D01*
X221034075Y-125652993D01*
G37*
%TD.AperFunction*%
%TA.AperFunction,Conductor*%
G36*
X176534075Y-115917993D02*
G01*
X176599901Y-116032007D01*
X176692993Y-116125099D01*
X176807007Y-116190925D01*
X176870591Y-116207962D01*
X176269971Y-116808581D01*
X176348711Y-116925895D01*
X176369727Y-116992529D01*
X176351383Y-117059947D01*
X176302051Y-117105483D01*
X176292440Y-117110380D01*
X176238282Y-117149727D01*
X176238282Y-117149728D01*
X176870591Y-117782037D01*
X176807007Y-117799075D01*
X176692993Y-117864901D01*
X176599901Y-117957993D01*
X176534075Y-118072007D01*
X176517037Y-118135591D01*
X175884728Y-117503282D01*
X175884727Y-117503282D01*
X175845380Y-117557440D01*
X175840483Y-117567051D01*
X175792506Y-117617845D01*
X175724684Y-117634638D01*
X175658550Y-117612098D01*
X175619516Y-117567048D01*
X175614626Y-117557452D01*
X175575270Y-117503282D01*
X175575269Y-117503282D01*
X174942962Y-118135590D01*
X174925925Y-118072007D01*
X174860099Y-117957993D01*
X174767007Y-117864901D01*
X174652993Y-117799075D01*
X174589409Y-117782037D01*
X175258802Y-117112642D01*
X175320125Y-117079157D01*
X175334833Y-117080078D01*
X175334556Y-117077501D01*
X175417375Y-117068598D01*
X175552086Y-117018354D01*
X175552093Y-117018350D01*
X175667187Y-116932190D01*
X175667190Y-116932187D01*
X175753350Y-116817093D01*
X175753354Y-116817086D01*
X175775529Y-116757632D01*
X175814319Y-116584390D01*
X175814682Y-116583734D01*
X175814642Y-116582984D01*
X175847642Y-116523802D01*
X176517037Y-115854408D01*
X176534075Y-115917993D01*
G37*
%TD.AperFunction*%
%TA.AperFunction,Conductor*%
G36*
X197075270Y-67721717D02*
G01*
X197075270Y-67721716D01*
X197114622Y-67667554D01*
X197165015Y-67568654D01*
X197212990Y-67517858D01*
X197280811Y-67501063D01*
X197346946Y-67523600D01*
X197390397Y-67578315D01*
X197399500Y-67624949D01*
X197399500Y-67834678D01*
X197414032Y-67907735D01*
X197414033Y-67907739D01*
X197416367Y-67911232D01*
X197469399Y-67990601D01*
X197548423Y-68043402D01*
X197552260Y-68045966D01*
X197552264Y-68045967D01*
X197625321Y-68060499D01*
X197625324Y-68060500D01*
X197625326Y-68060500D01*
X197871500Y-68060500D01*
X197938539Y-68080185D01*
X197984294Y-68132989D01*
X197995500Y-68184500D01*
X197995500Y-68445947D01*
X197975815Y-68512986D01*
X197927805Y-68556427D01*
X197923213Y-68558767D01*
X197918400Y-68562264D01*
X197783072Y-68660586D01*
X197783070Y-68660588D01*
X197783069Y-68660588D01*
X197660588Y-68783069D01*
X197660588Y-68783070D01*
X197660586Y-68783072D01*
X197646512Y-68802443D01*
X197558768Y-68923211D01*
X197480128Y-69077550D01*
X197479099Y-69080720D01*
X197478381Y-69081769D01*
X197478266Y-69082048D01*
X197478207Y-69082023D01*
X197439657Y-69138393D01*
X197375297Y-69165587D01*
X197306451Y-69153668D01*
X197254979Y-69106420D01*
X197243239Y-69080711D01*
X197211096Y-68981784D01*
X197114624Y-68792449D01*
X197075270Y-68738282D01*
X197075269Y-68738282D01*
X196442962Y-69370590D01*
X196425925Y-69307007D01*
X196360099Y-69192993D01*
X196267007Y-69099901D01*
X196152993Y-69034075D01*
X196089409Y-69017037D01*
X196721716Y-68384728D01*
X196667550Y-68345375D01*
X196657954Y-68340486D01*
X196607157Y-68292512D01*
X196590361Y-68224692D01*
X196612897Y-68158556D01*
X196657954Y-68119514D01*
X196667554Y-68114622D01*
X196721716Y-68075270D01*
X196721717Y-68075270D01*
X196089408Y-67442962D01*
X196152993Y-67425925D01*
X196267007Y-67360099D01*
X196360099Y-67267007D01*
X196425925Y-67152993D01*
X196442962Y-67089408D01*
X197075270Y-67721717D01*
G37*
%TD.AperFunction*%
%TA.AperFunction,Conductor*%
G36*
X203529475Y-62820185D02*
G01*
X203575230Y-62872989D01*
X203585174Y-62942147D01*
X203567973Y-62989600D01*
X203565643Y-62993376D01*
X203565641Y-62993380D01*
X203510494Y-63159802D01*
X203510493Y-63159809D01*
X203500000Y-63262513D01*
X203500000Y-64662500D01*
X205849999Y-64662500D01*
X205849999Y-63262528D01*
X205849998Y-63262513D01*
X205839505Y-63159802D01*
X205784358Y-62993380D01*
X205784356Y-62993376D01*
X205782027Y-62989600D01*
X205763585Y-62922208D01*
X205784506Y-62855544D01*
X205838147Y-62810773D01*
X205887564Y-62800500D01*
X209112436Y-62800500D01*
X209179475Y-62820185D01*
X209225230Y-62872989D01*
X209235174Y-62942147D01*
X209217973Y-62989600D01*
X209215643Y-62993376D01*
X209215641Y-62993380D01*
X209160494Y-63159802D01*
X209160493Y-63159809D01*
X209150000Y-63262513D01*
X209150000Y-64662500D01*
X211499999Y-64662500D01*
X211499999Y-63262528D01*
X211499998Y-63262513D01*
X211489505Y-63159802D01*
X211434358Y-62993380D01*
X211434356Y-62993376D01*
X211432027Y-62989600D01*
X211413585Y-62922208D01*
X211434506Y-62855544D01*
X211488147Y-62810773D01*
X211537564Y-62800500D01*
X240075500Y-62800500D01*
X240142539Y-62820185D01*
X240188294Y-62872989D01*
X240199500Y-62924500D01*
X240199500Y-87287290D01*
X240179815Y-87354329D01*
X240127011Y-87400084D01*
X240057853Y-87410028D01*
X240036497Y-87404996D01*
X239902200Y-87360495D01*
X239902190Y-87360493D01*
X239799486Y-87350000D01*
X238399500Y-87350000D01*
X238399500Y-89699999D01*
X239799472Y-89699999D01*
X239799486Y-89699998D01*
X239902197Y-89689505D01*
X240036496Y-89645003D01*
X240106324Y-89642601D01*
X240166366Y-89678333D01*
X240197559Y-89740853D01*
X240199500Y-89762709D01*
X240199500Y-92937290D01*
X240179815Y-93004329D01*
X240127011Y-93050084D01*
X240057853Y-93060028D01*
X240036497Y-93054996D01*
X239902200Y-93010495D01*
X239902190Y-93010493D01*
X239799486Y-93000000D01*
X238399500Y-93000000D01*
X238399500Y-95349999D01*
X239799472Y-95349999D01*
X239799486Y-95349998D01*
X239902197Y-95339505D01*
X240036496Y-95295003D01*
X240106324Y-95292601D01*
X240166366Y-95328333D01*
X240197559Y-95390853D01*
X240199500Y-95412709D01*
X240199500Y-97787290D01*
X240179815Y-97854329D01*
X240127011Y-97900084D01*
X240057853Y-97910028D01*
X240036497Y-97904996D01*
X239902200Y-97860495D01*
X239902190Y-97860493D01*
X239799486Y-97850000D01*
X238399500Y-97850000D01*
X238399500Y-100199999D01*
X239799472Y-100199999D01*
X239799486Y-100199998D01*
X239902197Y-100189505D01*
X240036496Y-100145003D01*
X240106324Y-100142601D01*
X240166366Y-100178333D01*
X240197559Y-100240853D01*
X240199500Y-100262709D01*
X240199500Y-103437290D01*
X240179815Y-103504329D01*
X240127011Y-103550084D01*
X240057853Y-103560028D01*
X240036497Y-103554996D01*
X239902200Y-103510495D01*
X239902190Y-103510493D01*
X239799486Y-103500000D01*
X238399500Y-103500000D01*
X238399500Y-105849999D01*
X239799472Y-105849999D01*
X239799486Y-105849998D01*
X239902197Y-105839505D01*
X240036496Y-105795003D01*
X240106324Y-105792601D01*
X240166366Y-105828333D01*
X240197559Y-105890853D01*
X240199500Y-105912709D01*
X240199500Y-132075500D01*
X240179815Y-132142539D01*
X240127011Y-132188294D01*
X240075500Y-132199500D01*
X213037564Y-132199500D01*
X212970525Y-132179815D01*
X212924770Y-132127011D01*
X212914826Y-132057853D01*
X212932027Y-132010400D01*
X212934356Y-132006623D01*
X212934358Y-132006619D01*
X212989505Y-131840197D01*
X212989506Y-131840190D01*
X212999999Y-131737486D01*
X213000000Y-131737473D01*
X213000000Y-130337500D01*
X210650001Y-130337500D01*
X210650001Y-131737486D01*
X210660494Y-131840197D01*
X210715641Y-132006619D01*
X210715643Y-132006623D01*
X210717973Y-132010400D01*
X210736415Y-132077792D01*
X210715494Y-132144456D01*
X210661853Y-132189227D01*
X210612436Y-132199500D01*
X207387564Y-132199500D01*
X207320525Y-132179815D01*
X207274770Y-132127011D01*
X207264826Y-132057853D01*
X207282027Y-132010400D01*
X207284356Y-132006623D01*
X207284358Y-132006619D01*
X207339505Y-131840197D01*
X207339506Y-131840190D01*
X207349999Y-131737486D01*
X207350000Y-131737473D01*
X207350000Y-130337500D01*
X205000001Y-130337500D01*
X205000001Y-131737486D01*
X205010494Y-131840197D01*
X205065641Y-132006619D01*
X205065643Y-132006623D01*
X205067973Y-132010400D01*
X205086415Y-132077792D01*
X205065494Y-132144456D01*
X205011853Y-132189227D01*
X204962436Y-132199500D01*
X170924500Y-132199500D01*
X170857461Y-132179815D01*
X170811706Y-132127011D01*
X170800500Y-132075500D01*
X170800500Y-127303496D01*
X171500000Y-127303496D01*
X171500000Y-127696503D01*
X171538521Y-128087629D01*
X171615194Y-128473087D01*
X171729282Y-128849186D01*
X171879683Y-129212285D01*
X171879685Y-129212290D01*
X172064941Y-129558879D01*
X172064952Y-129558897D01*
X172283289Y-129885662D01*
X172283299Y-129885676D01*
X172498521Y-130147924D01*
X174098381Y-128548064D01*
X174181457Y-128656331D01*
X174343669Y-128818543D01*
X174451934Y-128901618D01*
X172852074Y-130501477D01*
X173114323Y-130716700D01*
X173114337Y-130716710D01*
X173441102Y-130935047D01*
X173441120Y-130935058D01*
X173787709Y-131120314D01*
X173787714Y-131120316D01*
X174150813Y-131270717D01*
X174526912Y-131384805D01*
X174912371Y-131461478D01*
X174912370Y-131461478D01*
X175303496Y-131500000D01*
X175696504Y-131500000D01*
X176087629Y-131461478D01*
X176473087Y-131384805D01*
X176849186Y-131270717D01*
X177212285Y-131120316D01*
X177212290Y-131120314D01*
X177558879Y-130935058D01*
X177558897Y-130935047D01*
X177885662Y-130716710D01*
X177885676Y-130716700D01*
X178147923Y-130501478D01*
X178147924Y-130501477D01*
X176548064Y-128901618D01*
X176656331Y-128818543D01*
X176818543Y-128656331D01*
X176901618Y-128548065D01*
X178501477Y-130147924D01*
X178501478Y-130147923D01*
X178716700Y-129885676D01*
X178716710Y-129885662D01*
X178935047Y-129558897D01*
X178935058Y-129558879D01*
X179120314Y-129212290D01*
X179120316Y-129212285D01*
X179270717Y-128849186D01*
X179384804Y-128473088D01*
X179391881Y-128437513D01*
X205000000Y-128437513D01*
X205000000Y-129837500D01*
X205925000Y-129837500D01*
X206425000Y-129837500D01*
X207349999Y-129837500D01*
X207349999Y-128437529D01*
X207349998Y-128437513D01*
X210650000Y-128437513D01*
X210650000Y-129837500D01*
X211575000Y-129837500D01*
X212075000Y-129837500D01*
X212999999Y-129837500D01*
X212999999Y-128437528D01*
X212999998Y-128437513D01*
X212989505Y-128334802D01*
X212934358Y-128168380D01*
X212934356Y-128168375D01*
X212842315Y-128019154D01*
X212718345Y-127895184D01*
X212569124Y-127803143D01*
X212569119Y-127803141D01*
X212402697Y-127747994D01*
X212402690Y-127747993D01*
X212299986Y-127737500D01*
X212075000Y-127737500D01*
X212075000Y-129837500D01*
X211575000Y-129837500D01*
X211575000Y-127737500D01*
X211350029Y-127737500D01*
X211350012Y-127737501D01*
X211247302Y-127747994D01*
X211080880Y-127803141D01*
X211080875Y-127803143D01*
X210931654Y-127895184D01*
X210807684Y-128019154D01*
X210715643Y-128168375D01*
X210715641Y-128168380D01*
X210660494Y-128334802D01*
X210660493Y-128334809D01*
X210650000Y-128437513D01*
X207349998Y-128437513D01*
X207349998Y-128437512D01*
X207339505Y-128334802D01*
X207284358Y-128168380D01*
X207284356Y-128168375D01*
X207192315Y-128019154D01*
X207068345Y-127895184D01*
X206919124Y-127803143D01*
X206919119Y-127803141D01*
X206752697Y-127747994D01*
X206752690Y-127747993D01*
X206649986Y-127737500D01*
X206425000Y-127737500D01*
X206425000Y-129837500D01*
X205925000Y-129837500D01*
X205925000Y-127737500D01*
X205700029Y-127737500D01*
X205700012Y-127737501D01*
X205597302Y-127747994D01*
X205430880Y-127803141D01*
X205430875Y-127803143D01*
X205281654Y-127895184D01*
X205157684Y-128019154D01*
X205065643Y-128168375D01*
X205065641Y-128168380D01*
X205010494Y-128334802D01*
X205010493Y-128334809D01*
X205000000Y-128437513D01*
X179391881Y-128437513D01*
X179397320Y-128410172D01*
X179397320Y-128410171D01*
X179461478Y-128087629D01*
X179500000Y-127696503D01*
X179500000Y-127303496D01*
X179461478Y-126912370D01*
X179384805Y-126526912D01*
X179270717Y-126150813D01*
X179120317Y-125787716D01*
X179082886Y-125717688D01*
X179082885Y-125717686D01*
X178935058Y-125441120D01*
X178935047Y-125441102D01*
X178716710Y-125114337D01*
X178716700Y-125114323D01*
X178501477Y-124852074D01*
X176901617Y-126451934D01*
X176818543Y-126343669D01*
X176656331Y-126181457D01*
X176548064Y-126098381D01*
X178147924Y-124498521D01*
X177885676Y-124283299D01*
X177885662Y-124283289D01*
X177558897Y-124064952D01*
X177558879Y-124064941D01*
X177470824Y-124017875D01*
X177275345Y-123913389D01*
X184759500Y-123913389D01*
X184759500Y-124086611D01*
X184764218Y-124116401D01*
X184785823Y-124252812D01*
X184786598Y-124257701D01*
X184840127Y-124422445D01*
X184918768Y-124576788D01*
X185020586Y-124716928D01*
X185143072Y-124839414D01*
X185283212Y-124941232D01*
X185437555Y-125019873D01*
X185602299Y-125073402D01*
X185773389Y-125100500D01*
X185773390Y-125100500D01*
X185946610Y-125100500D01*
X185946611Y-125100500D01*
X186117701Y-125073402D01*
X186282445Y-125019873D01*
X186436788Y-124941232D01*
X186576928Y-124839414D01*
X186699414Y-124716928D01*
X186801232Y-124576788D01*
X186879873Y-124422445D01*
X186880896Y-124419294D01*
X186881610Y-124418250D01*
X186881734Y-124417952D01*
X186881796Y-124417977D01*
X186920327Y-124361618D01*
X186984683Y-124334415D01*
X187053530Y-124346323D01*
X187105011Y-124393562D01*
X187116760Y-124419287D01*
X187148904Y-124518217D01*
X187245375Y-124707550D01*
X187284728Y-124761716D01*
X187917037Y-124129408D01*
X187934075Y-124192993D01*
X187999901Y-124307007D01*
X188092993Y-124400099D01*
X188207007Y-124465925D01*
X188270591Y-124482962D01*
X187669971Y-125083581D01*
X187748711Y-125200895D01*
X187749920Y-125204729D01*
X187752844Y-125207491D01*
X187760343Y-125237778D01*
X187769727Y-125267529D01*
X187768671Y-125271408D01*
X187769638Y-125275312D01*
X187759573Y-125304844D01*
X187751383Y-125334947D01*
X187748397Y-125337640D01*
X187747100Y-125341447D01*
X187702051Y-125380483D01*
X187692440Y-125385380D01*
X187638282Y-125424727D01*
X187638282Y-125424728D01*
X188270591Y-126057037D01*
X188207007Y-126074075D01*
X188092993Y-126139901D01*
X187999901Y-126232993D01*
X187934075Y-126347007D01*
X187917037Y-126410591D01*
X187284728Y-125778282D01*
X187284727Y-125778282D01*
X187245380Y-125832440D01*
X187245378Y-125832443D01*
X187194984Y-125931346D01*
X187147010Y-125982141D01*
X187079188Y-125998936D01*
X187013054Y-125976398D01*
X186969603Y-125921683D01*
X186960500Y-125875050D01*
X186960500Y-125665323D01*
X186960499Y-125665321D01*
X186945967Y-125592264D01*
X186945966Y-125592260D01*
X186928584Y-125566246D01*
X186890601Y-125509399D01*
X186816669Y-125460000D01*
X186807739Y-125454033D01*
X186807735Y-125454032D01*
X186734677Y-125439500D01*
X186734674Y-125439500D01*
X184985326Y-125439500D01*
X184985323Y-125439500D01*
X184912264Y-125454032D01*
X184912260Y-125454033D01*
X184829399Y-125509399D01*
X184774033Y-125592260D01*
X184774032Y-125592264D01*
X184759500Y-125665321D01*
X184759500Y-127414678D01*
X184774032Y-127487735D01*
X184774033Y-127487739D01*
X184774034Y-127487740D01*
X184829399Y-127570601D01*
X184912260Y-127625966D01*
X184912264Y-127625967D01*
X184985321Y-127640499D01*
X184985324Y-127640500D01*
X184985326Y-127640500D01*
X186734676Y-127640500D01*
X186734677Y-127640499D01*
X186807740Y-127625966D01*
X186890601Y-127570601D01*
X186945966Y-127487740D01*
X186960500Y-127414674D01*
X186960500Y-127204949D01*
X186980185Y-127137910D01*
X187032989Y-127092155D01*
X187102147Y-127082211D01*
X187165703Y-127111236D01*
X187194985Y-127148654D01*
X187245375Y-127247550D01*
X187284728Y-127301716D01*
X187917037Y-126669408D01*
X187934075Y-126732993D01*
X187999901Y-126847007D01*
X188092993Y-126940099D01*
X188207007Y-127005925D01*
X188270590Y-127022962D01*
X187638282Y-127655269D01*
X187638282Y-127655270D01*
X187692449Y-127694624D01*
X187881782Y-127791095D01*
X188083870Y-127856757D01*
X188293754Y-127890000D01*
X188506246Y-127890000D01*
X188716127Y-127856757D01*
X188716130Y-127856757D01*
X188918217Y-127791095D01*
X189107554Y-127694622D01*
X189161716Y-127655270D01*
X189161717Y-127655270D01*
X188529408Y-127022962D01*
X188592993Y-127005925D01*
X188707007Y-126940099D01*
X188800099Y-126847007D01*
X188865925Y-126732993D01*
X188882962Y-126669408D01*
X189515270Y-127301717D01*
X189515270Y-127301716D01*
X189554622Y-127247554D01*
X189651095Y-127058217D01*
X189716757Y-126856130D01*
X189716757Y-126856127D01*
X189750000Y-126646246D01*
X189750000Y-126433753D01*
X189716757Y-126223872D01*
X189716757Y-126223869D01*
X189651095Y-126021782D01*
X189554624Y-125832449D01*
X189515270Y-125778282D01*
X189515269Y-125778282D01*
X188882962Y-126410590D01*
X188865925Y-126347007D01*
X188800099Y-126232993D01*
X188707007Y-126139901D01*
X188592993Y-126074075D01*
X188529409Y-126057037D01*
X189161716Y-125424728D01*
X189107550Y-125385375D01*
X189097954Y-125380486D01*
X189047157Y-125332512D01*
X189030361Y-125264692D01*
X189052897Y-125198556D01*
X189097954Y-125159514D01*
X189107554Y-125154622D01*
X189161716Y-125115270D01*
X189161717Y-125115270D01*
X188529408Y-124482962D01*
X188592993Y-124465925D01*
X188707007Y-124400099D01*
X188800099Y-124307007D01*
X188865925Y-124192993D01*
X188882962Y-124129408D01*
X189515270Y-124761717D01*
X189515270Y-124761716D01*
X189554622Y-124707554D01*
X189651095Y-124518217D01*
X189716757Y-124316130D01*
X189716757Y-124316127D01*
X189750000Y-124106246D01*
X189750000Y-123913389D01*
X196624500Y-123913389D01*
X196624500Y-124086611D01*
X196629218Y-124116401D01*
X196650823Y-124252812D01*
X196651598Y-124257701D01*
X196705127Y-124422445D01*
X196783768Y-124576788D01*
X196885586Y-124716928D01*
X197008072Y-124839414D01*
X197148212Y-124941232D01*
X197302555Y-125019873D01*
X197467299Y-125073402D01*
X197638389Y-125100500D01*
X197638390Y-125100500D01*
X197811610Y-125100500D01*
X197811611Y-125100500D01*
X197982701Y-125073402D01*
X198147445Y-125019873D01*
X198301788Y-124941232D01*
X198441928Y-124839414D01*
X198564414Y-124716928D01*
X198666232Y-124576788D01*
X198744873Y-124422445D01*
X198745896Y-124419294D01*
X198746610Y-124418250D01*
X198746734Y-124417952D01*
X198746796Y-124417977D01*
X198785327Y-124361618D01*
X198849683Y-124334415D01*
X198918530Y-124346323D01*
X198970011Y-124393562D01*
X198981760Y-124419287D01*
X199013904Y-124518217D01*
X199110375Y-124707550D01*
X199149728Y-124761716D01*
X199782037Y-124129408D01*
X199799075Y-124192993D01*
X199864901Y-124307007D01*
X199957993Y-124400099D01*
X200072007Y-124465925D01*
X200135591Y-124482962D01*
X199534971Y-125083581D01*
X199613711Y-125200895D01*
X199614920Y-125204729D01*
X199617844Y-125207491D01*
X199625343Y-125237778D01*
X199634727Y-125267529D01*
X199633671Y-125271408D01*
X199634638Y-125275312D01*
X199624573Y-125304844D01*
X199616383Y-125334947D01*
X199613397Y-125337640D01*
X199612100Y-125341447D01*
X199567051Y-125380483D01*
X199557440Y-125385380D01*
X199503282Y-125424727D01*
X199503282Y-125424728D01*
X200135591Y-126057037D01*
X200072007Y-126074075D01*
X199957993Y-126139901D01*
X199864901Y-126232993D01*
X199799075Y-126347007D01*
X199782037Y-126410591D01*
X199149728Y-125778282D01*
X199149727Y-125778282D01*
X199110380Y-125832440D01*
X199110378Y-125832443D01*
X199059984Y-125931346D01*
X199012010Y-125982141D01*
X198944188Y-125998936D01*
X198878054Y-125976398D01*
X198834603Y-125921683D01*
X198825500Y-125875050D01*
X198825500Y-125665323D01*
X198825499Y-125665321D01*
X198810967Y-125592264D01*
X198810966Y-125592260D01*
X198793584Y-125566246D01*
X198755601Y-125509399D01*
X198681669Y-125460000D01*
X198672739Y-125454033D01*
X198672735Y-125454032D01*
X198599677Y-125439500D01*
X198599674Y-125439500D01*
X196850326Y-125439500D01*
X196850323Y-125439500D01*
X196777264Y-125454032D01*
X196777260Y-125454033D01*
X196694399Y-125509399D01*
X196639033Y-125592260D01*
X196639032Y-125592264D01*
X196624500Y-125665321D01*
X196624500Y-127414678D01*
X196639032Y-127487735D01*
X196639033Y-127487739D01*
X196639034Y-127487740D01*
X196694399Y-127570601D01*
X196777260Y-127625966D01*
X196777264Y-127625967D01*
X196850321Y-127640499D01*
X196850324Y-127640500D01*
X196850326Y-127640500D01*
X198599676Y-127640500D01*
X198599677Y-127640499D01*
X198672740Y-127625966D01*
X198755601Y-127570601D01*
X198810966Y-127487740D01*
X198825500Y-127414674D01*
X198825500Y-127204949D01*
X198845185Y-127137910D01*
X198897989Y-127092155D01*
X198967147Y-127082211D01*
X199030703Y-127111236D01*
X199059985Y-127148654D01*
X199110375Y-127247550D01*
X199149728Y-127301716D01*
X199782037Y-126669408D01*
X199799075Y-126732993D01*
X199864901Y-126847007D01*
X199957993Y-126940099D01*
X200072007Y-127005925D01*
X200135590Y-127022962D01*
X199503282Y-127655269D01*
X199503282Y-127655270D01*
X199557449Y-127694624D01*
X199746782Y-127791095D01*
X199948870Y-127856757D01*
X200158754Y-127890000D01*
X200371246Y-127890000D01*
X200581127Y-127856757D01*
X200581130Y-127856757D01*
X200783217Y-127791095D01*
X200972554Y-127694622D01*
X201026716Y-127655270D01*
X201026717Y-127655270D01*
X200394408Y-127022962D01*
X200457993Y-127005925D01*
X200572007Y-126940099D01*
X200665099Y-126847007D01*
X200730925Y-126732993D01*
X200747962Y-126669409D01*
X201380270Y-127301717D01*
X201380270Y-127301716D01*
X201419622Y-127247554D01*
X201516095Y-127058217D01*
X201581757Y-126856130D01*
X201581757Y-126856127D01*
X201615000Y-126646246D01*
X201615000Y-126433753D01*
X201581757Y-126223872D01*
X201581757Y-126223869D01*
X201516095Y-126021782D01*
X201419624Y-125832449D01*
X201380270Y-125778282D01*
X201380269Y-125778282D01*
X200747962Y-126410590D01*
X200730925Y-126347007D01*
X200665099Y-126232993D01*
X200572007Y-126139901D01*
X200457993Y-126074075D01*
X200394409Y-126057037D01*
X201026716Y-125424728D01*
X200972550Y-125385375D01*
X200962954Y-125380486D01*
X200912157Y-125332512D01*
X200895361Y-125264692D01*
X200917897Y-125198556D01*
X200962954Y-125159514D01*
X200972554Y-125154622D01*
X201026716Y-125115270D01*
X201026717Y-125115270D01*
X200394408Y-124482962D01*
X200457993Y-124465925D01*
X200572007Y-124400099D01*
X200665099Y-124307007D01*
X200730925Y-124192993D01*
X200747962Y-124129409D01*
X201380270Y-124761717D01*
X201380270Y-124761716D01*
X201419622Y-124707554D01*
X201493707Y-124562155D01*
X217610000Y-124562155D01*
X217610000Y-125210000D01*
X218526988Y-125210000D01*
X218494075Y-125267007D01*
X218460000Y-125394174D01*
X218460000Y-125525826D01*
X218494075Y-125652993D01*
X218526988Y-125710000D01*
X217610000Y-125710000D01*
X217610000Y-126357844D01*
X217616401Y-126417372D01*
X217616403Y-126417379D01*
X217666645Y-126552086D01*
X217666649Y-126552093D01*
X217752809Y-126667187D01*
X217752812Y-126667190D01*
X217867906Y-126753350D01*
X217867913Y-126753354D01*
X218002620Y-126803596D01*
X218002619Y-126803596D01*
X218085444Y-126812501D01*
X218085116Y-126815550D01*
X218102014Y-126814642D01*
X218161196Y-126847642D01*
X218830591Y-127517037D01*
X218767007Y-127534075D01*
X218652993Y-127599901D01*
X218559901Y-127692993D01*
X218494075Y-127807007D01*
X218477037Y-127870591D01*
X217844728Y-127238282D01*
X217844727Y-127238282D01*
X217805380Y-127292439D01*
X217708904Y-127481782D01*
X217643242Y-127683869D01*
X217643242Y-127683872D01*
X217610000Y-127893753D01*
X217610000Y-128106246D01*
X217643242Y-128316127D01*
X217643242Y-128316130D01*
X217708904Y-128518217D01*
X217805375Y-128707550D01*
X217844728Y-128761716D01*
X218477037Y-128129408D01*
X218494075Y-128192993D01*
X218559901Y-128307007D01*
X218652993Y-128400099D01*
X218767007Y-128465925D01*
X218830590Y-128482962D01*
X218198282Y-129115269D01*
X218198282Y-129115270D01*
X218252449Y-129154624D01*
X218441782Y-129251095D01*
X218643870Y-129316757D01*
X218853754Y-129350000D01*
X219066246Y-129350000D01*
X219276127Y-129316757D01*
X219276130Y-129316757D01*
X219478217Y-129251095D01*
X219667554Y-129154622D01*
X219721716Y-129115270D01*
X219721717Y-129115270D01*
X219089408Y-128482962D01*
X219152993Y-128465925D01*
X219267007Y-128400099D01*
X219360099Y-128307007D01*
X219425925Y-128192993D01*
X219442962Y-128129408D01*
X220075270Y-128761717D01*
X220075270Y-128761716D01*
X220114622Y-128707554D01*
X220119514Y-128697954D01*
X220167488Y-128647157D01*
X220235308Y-128630361D01*
X220301444Y-128652897D01*
X220340486Y-128697954D01*
X220345375Y-128707550D01*
X220384728Y-128761716D01*
X221017037Y-128129408D01*
X221034075Y-128192993D01*
X221099901Y-128307007D01*
X221192993Y-128400099D01*
X221307007Y-128465925D01*
X221370590Y-128482962D01*
X220738282Y-129115269D01*
X220738282Y-129115270D01*
X220792449Y-129154624D01*
X220981782Y-129251095D01*
X221183870Y-129316757D01*
X221393754Y-129350000D01*
X221606246Y-129350000D01*
X221816127Y-129316757D01*
X221816130Y-129316757D01*
X222018217Y-129251095D01*
X222207554Y-129154622D01*
X222261716Y-129115270D01*
X222261717Y-129115270D01*
X221629408Y-128482962D01*
X221692993Y-128465925D01*
X221807007Y-128400099D01*
X221900099Y-128307007D01*
X221965925Y-128192993D01*
X221982962Y-128129408D01*
X222615270Y-128761717D01*
X222615270Y-128761716D01*
X222654622Y-128707554D01*
X222751095Y-128518217D01*
X222816757Y-128316130D01*
X222816757Y-128316127D01*
X222850000Y-128106246D01*
X222850000Y-127893753D01*
X222816757Y-127683872D01*
X222816757Y-127683869D01*
X222751095Y-127481782D01*
X222687385Y-127356744D01*
X222687384Y-127356742D01*
X222660253Y-127303496D01*
X231500000Y-127303496D01*
X231500000Y-127696503D01*
X231538521Y-128087629D01*
X231615194Y-128473087D01*
X231729282Y-128849186D01*
X231879683Y-129212285D01*
X231879685Y-129212290D01*
X232064941Y-129558879D01*
X232064952Y-129558897D01*
X232283289Y-129885662D01*
X232283299Y-129885676D01*
X232498521Y-130147924D01*
X234098381Y-128548064D01*
X234181457Y-128656331D01*
X234343669Y-128818543D01*
X234451934Y-128901618D01*
X232852074Y-130501477D01*
X233114323Y-130716700D01*
X233114337Y-130716710D01*
X233441102Y-130935047D01*
X233441120Y-130935058D01*
X233787709Y-131120314D01*
X233787714Y-131120316D01*
X234150813Y-131270717D01*
X234526912Y-131384805D01*
X234912371Y-131461478D01*
X234912370Y-131461478D01*
X235303496Y-131500000D01*
X235696504Y-131500000D01*
X236087629Y-131461478D01*
X236473087Y-131384805D01*
X236849186Y-131270717D01*
X237212285Y-131120316D01*
X237212290Y-131120314D01*
X237558879Y-130935058D01*
X237558897Y-130935047D01*
X237885662Y-130716710D01*
X237885676Y-130716700D01*
X238147923Y-130501478D01*
X238147924Y-130501477D01*
X236548064Y-128901618D01*
X236656331Y-128818543D01*
X236818543Y-128656331D01*
X236901618Y-128548065D01*
X238501477Y-130147924D01*
X238501478Y-130147923D01*
X238716700Y-129885676D01*
X238716710Y-129885662D01*
X238935047Y-129558897D01*
X238935058Y-129558879D01*
X239120314Y-129212290D01*
X239120316Y-129212285D01*
X239270717Y-128849186D01*
X239384805Y-128473087D01*
X239461478Y-128087629D01*
X239500000Y-127696503D01*
X239500000Y-127303496D01*
X239461478Y-126912370D01*
X239384805Y-126526912D01*
X239270717Y-126150813D01*
X239120316Y-125787714D01*
X239120314Y-125787709D01*
X238935058Y-125441120D01*
X238935047Y-125441102D01*
X238716710Y-125114337D01*
X238716700Y-125114323D01*
X238501477Y-124852074D01*
X236901617Y-126451934D01*
X236818543Y-126343669D01*
X236656331Y-126181457D01*
X236548064Y-126098381D01*
X238147924Y-124498521D01*
X237885676Y-124283299D01*
X237885662Y-124283289D01*
X237558897Y-124064952D01*
X237558879Y-124064941D01*
X237212290Y-123879685D01*
X237212285Y-123879683D01*
X236849186Y-123729282D01*
X236473087Y-123615194D01*
X236087628Y-123538521D01*
X236087629Y-123538521D01*
X235696504Y-123500000D01*
X235303496Y-123500000D01*
X234912370Y-123538521D01*
X234526912Y-123615194D01*
X234150813Y-123729282D01*
X233787714Y-123879683D01*
X233787709Y-123879685D01*
X233441120Y-124064941D01*
X233441102Y-124064952D01*
X233114337Y-124283289D01*
X233114323Y-124283299D01*
X232852075Y-124498520D01*
X232852074Y-124498521D01*
X234451935Y-126098381D01*
X234343669Y-126181457D01*
X234181457Y-126343669D01*
X234098381Y-126451934D01*
X232498521Y-124852074D01*
X232498520Y-124852075D01*
X232283299Y-125114323D01*
X232283289Y-125114337D01*
X232064952Y-125441102D01*
X232064941Y-125441120D01*
X231879685Y-125787709D01*
X231879683Y-125787714D01*
X231729282Y-126150813D01*
X231615194Y-126526912D01*
X231538521Y-126912370D01*
X231500000Y-127303496D01*
X222660253Y-127303496D01*
X222654626Y-127292452D01*
X222615270Y-127238282D01*
X222615269Y-127238282D01*
X221982962Y-127870590D01*
X221965925Y-127807007D01*
X221900099Y-127692993D01*
X221807007Y-127599901D01*
X221692993Y-127534075D01*
X221629409Y-127517037D01*
X222261716Y-126884728D01*
X222207550Y-126845375D01*
X222197954Y-126840486D01*
X222147157Y-126792512D01*
X222130361Y-126724692D01*
X222152897Y-126658556D01*
X222197954Y-126619514D01*
X222207554Y-126614622D01*
X222261716Y-126575270D01*
X222261717Y-126575270D01*
X221629408Y-125942962D01*
X221692993Y-125925925D01*
X221807007Y-125860099D01*
X221900099Y-125767007D01*
X221965925Y-125652993D01*
X221982962Y-125589408D01*
X222615270Y-126221717D01*
X222615270Y-126221716D01*
X222654622Y-126167554D01*
X222751095Y-125978217D01*
X222816757Y-125776130D01*
X222816757Y-125776127D01*
X222850000Y-125566246D01*
X222850000Y-125353753D01*
X222816757Y-125143872D01*
X222816757Y-125143869D01*
X222751095Y-124941782D01*
X222654624Y-124752449D01*
X222615270Y-124698282D01*
X222615269Y-124698282D01*
X221982962Y-125330590D01*
X221965925Y-125267007D01*
X221900099Y-125152993D01*
X221807007Y-125059901D01*
X221692993Y-124994075D01*
X221629409Y-124977037D01*
X222146790Y-124459655D01*
X222261716Y-124344728D01*
X222207550Y-124305375D01*
X222018217Y-124208904D01*
X221816129Y-124143242D01*
X221606246Y-124110000D01*
X221393754Y-124110000D01*
X221183872Y-124143242D01*
X221183869Y-124143242D01*
X220981782Y-124208904D01*
X220792439Y-124305380D01*
X220738282Y-124344727D01*
X220738282Y-124344728D01*
X221370591Y-124977037D01*
X221307007Y-124994075D01*
X221192993Y-125059901D01*
X221099901Y-125152993D01*
X221034075Y-125267007D01*
X221017037Y-125330591D01*
X220347642Y-124661196D01*
X220314319Y-124600609D01*
X220275527Y-124427364D01*
X220253354Y-124367913D01*
X220253350Y-124367906D01*
X220167190Y-124252812D01*
X220167187Y-124252809D01*
X220052093Y-124166649D01*
X220052086Y-124166645D01*
X219917379Y-124116403D01*
X219917372Y-124116401D01*
X219857844Y-124110000D01*
X219210000Y-124110000D01*
X219210000Y-125026988D01*
X219152993Y-124994075D01*
X219025826Y-124960000D01*
X218894174Y-124960000D01*
X218767007Y-124994075D01*
X218710000Y-125026988D01*
X218710000Y-124110000D01*
X218062155Y-124110000D01*
X218002627Y-124116401D01*
X218002620Y-124116403D01*
X217867913Y-124166645D01*
X217867906Y-124166649D01*
X217752812Y-124252809D01*
X217752809Y-124252812D01*
X217666649Y-124367906D01*
X217666645Y-124367913D01*
X217616403Y-124502620D01*
X217616401Y-124502627D01*
X217610000Y-124562155D01*
X201493707Y-124562155D01*
X201516095Y-124518217D01*
X201581757Y-124316130D01*
X201581757Y-124316127D01*
X201615000Y-124106246D01*
X201615000Y-123893753D01*
X201581757Y-123683872D01*
X201581757Y-123683869D01*
X201516095Y-123481782D01*
X201419624Y-123292449D01*
X201380270Y-123238282D01*
X201380269Y-123238282D01*
X200747962Y-123870590D01*
X200730925Y-123807007D01*
X200665099Y-123692993D01*
X200572007Y-123599901D01*
X200457993Y-123534075D01*
X200394409Y-123517037D01*
X201026716Y-122884728D01*
X200972550Y-122845375D01*
X200783217Y-122748904D01*
X200581129Y-122683242D01*
X200371246Y-122650000D01*
X200158754Y-122650000D01*
X199948872Y-122683242D01*
X199948869Y-122683242D01*
X199746782Y-122748904D01*
X199557439Y-122845380D01*
X199503282Y-122884727D01*
X199503282Y-122884728D01*
X200135591Y-123517037D01*
X200072007Y-123534075D01*
X199957993Y-123599901D01*
X199864901Y-123692993D01*
X199799075Y-123807007D01*
X199782037Y-123870591D01*
X199149728Y-123238282D01*
X199149727Y-123238282D01*
X199110380Y-123292439D01*
X199013904Y-123481783D01*
X198981760Y-123580712D01*
X198942322Y-123638388D01*
X198877964Y-123665586D01*
X198809117Y-123653671D01*
X198757642Y-123606427D01*
X198745898Y-123580712D01*
X198744873Y-123577555D01*
X198666232Y-123423212D01*
X198564414Y-123283072D01*
X198441928Y-123160586D01*
X198301788Y-123058768D01*
X198147445Y-122980127D01*
X197982701Y-122926598D01*
X197982699Y-122926597D01*
X197982698Y-122926597D01*
X197851271Y-122905781D01*
X197811611Y-122899500D01*
X197638389Y-122899500D01*
X197598728Y-122905781D01*
X197467302Y-122926597D01*
X197302552Y-122980128D01*
X197148211Y-123058768D01*
X197068256Y-123116859D01*
X197008072Y-123160586D01*
X197008070Y-123160588D01*
X197008069Y-123160588D01*
X196885588Y-123283069D01*
X196885588Y-123283070D01*
X196885586Y-123283072D01*
X196841859Y-123343256D01*
X196783768Y-123423211D01*
X196705128Y-123577552D01*
X196651597Y-123742302D01*
X196629838Y-123879685D01*
X196624500Y-123913389D01*
X189750000Y-123913389D01*
X189750000Y-123893753D01*
X189716757Y-123683872D01*
X189716757Y-123683869D01*
X189651095Y-123481782D01*
X189554624Y-123292449D01*
X189515270Y-123238282D01*
X189515269Y-123238282D01*
X188882962Y-123870590D01*
X188865925Y-123807007D01*
X188800099Y-123692993D01*
X188707007Y-123599901D01*
X188592993Y-123534075D01*
X188529409Y-123517037D01*
X189161716Y-122884728D01*
X189107550Y-122845375D01*
X188918217Y-122748904D01*
X188716129Y-122683242D01*
X188506246Y-122650000D01*
X188293754Y-122650000D01*
X188083872Y-122683242D01*
X188083869Y-122683242D01*
X187881782Y-122748904D01*
X187692439Y-122845380D01*
X187638282Y-122884727D01*
X187638282Y-122884728D01*
X188270591Y-123517037D01*
X188207007Y-123534075D01*
X188092993Y-123599901D01*
X187999901Y-123692993D01*
X187934075Y-123807007D01*
X187917037Y-123870591D01*
X187284728Y-123238282D01*
X187284727Y-123238282D01*
X187245380Y-123292439D01*
X187148904Y-123481783D01*
X187116760Y-123580712D01*
X187077322Y-123638388D01*
X187012964Y-123665586D01*
X186944117Y-123653671D01*
X186892642Y-123606427D01*
X186880898Y-123580712D01*
X186879873Y-123577555D01*
X186801232Y-123423212D01*
X186699414Y-123283072D01*
X186576928Y-123160586D01*
X186436788Y-123058768D01*
X186282445Y-122980127D01*
X186117701Y-122926598D01*
X186117699Y-122926597D01*
X186117698Y-122926597D01*
X185986271Y-122905781D01*
X185946611Y-122899500D01*
X185773389Y-122899500D01*
X185733728Y-122905781D01*
X185602302Y-122926597D01*
X185437552Y-122980128D01*
X185283211Y-123058768D01*
X185203256Y-123116859D01*
X185143072Y-123160586D01*
X185143070Y-123160588D01*
X185143069Y-123160588D01*
X185020588Y-123283069D01*
X185020588Y-123283070D01*
X185020586Y-123283072D01*
X184976859Y-123343256D01*
X184918768Y-123423211D01*
X184840128Y-123577552D01*
X184786597Y-123742302D01*
X184764838Y-123879685D01*
X184759500Y-123913389D01*
X177275345Y-123913389D01*
X177212290Y-123879685D01*
X177212285Y-123879683D01*
X176849186Y-123729282D01*
X176473087Y-123615194D01*
X176087628Y-123538521D01*
X176087629Y-123538521D01*
X175696504Y-123500000D01*
X175303496Y-123500000D01*
X174912370Y-123538521D01*
X174526912Y-123615194D01*
X174150813Y-123729282D01*
X173787714Y-123879683D01*
X173787709Y-123879685D01*
X173441120Y-124064941D01*
X173441102Y-124064952D01*
X173114337Y-124283289D01*
X173114323Y-124283299D01*
X172852075Y-124498520D01*
X172852074Y-124498521D01*
X174451935Y-126098381D01*
X174343669Y-126181457D01*
X174181457Y-126343669D01*
X174098381Y-126451934D01*
X172498521Y-124852074D01*
X172498520Y-124852075D01*
X172283299Y-125114323D01*
X172283289Y-125114337D01*
X172064952Y-125441102D01*
X172064941Y-125441120D01*
X171879685Y-125787709D01*
X171879683Y-125787714D01*
X171729282Y-126150813D01*
X171615194Y-126526912D01*
X171538521Y-126912370D01*
X171500000Y-127303496D01*
X170800500Y-127303496D01*
X170800500Y-114827155D01*
X173110000Y-114827155D01*
X173110000Y-115475000D01*
X174026988Y-115475000D01*
X173994075Y-115532007D01*
X173960000Y-115659174D01*
X173960000Y-115790826D01*
X173994075Y-115917993D01*
X174026988Y-115975000D01*
X173110000Y-115975000D01*
X173110000Y-116622844D01*
X173116401Y-116682372D01*
X173116403Y-116682379D01*
X173166645Y-116817086D01*
X173166649Y-116817093D01*
X173252809Y-116932187D01*
X173252812Y-116932190D01*
X173367906Y-117018350D01*
X173367913Y-117018354D01*
X173502620Y-117068596D01*
X173502619Y-117068596D01*
X173585444Y-117077501D01*
X173585116Y-117080550D01*
X173602014Y-117079642D01*
X173661196Y-117112642D01*
X174330591Y-117782037D01*
X174267007Y-117799075D01*
X174152993Y-117864901D01*
X174059901Y-117957993D01*
X173994075Y-118072007D01*
X173977037Y-118135591D01*
X173344728Y-117503282D01*
X173344727Y-117503282D01*
X173305380Y-117557439D01*
X173208904Y-117746782D01*
X173143242Y-117948869D01*
X173143242Y-117948872D01*
X173110000Y-118158753D01*
X173110000Y-118371246D01*
X173143242Y-118581127D01*
X173143242Y-118581130D01*
X173208904Y-118783217D01*
X173305375Y-118972550D01*
X173344728Y-119026716D01*
X173977037Y-118394408D01*
X173994075Y-118457993D01*
X174059901Y-118572007D01*
X174152993Y-118665099D01*
X174267007Y-118730925D01*
X174330590Y-118747962D01*
X173698282Y-119380269D01*
X173698282Y-119380270D01*
X173752449Y-119419624D01*
X173941782Y-119516095D01*
X174143870Y-119581757D01*
X174353754Y-119615000D01*
X174566246Y-119615000D01*
X174776127Y-119581757D01*
X174776130Y-119581757D01*
X174978217Y-119516095D01*
X175167554Y-119419622D01*
X175221716Y-119380270D01*
X175221717Y-119380270D01*
X174589408Y-118747962D01*
X174652993Y-118730925D01*
X174767007Y-118665099D01*
X174860099Y-118572007D01*
X174925925Y-118457993D01*
X174942962Y-118394408D01*
X175575270Y-119026717D01*
X175575270Y-119026716D01*
X175614622Y-118972554D01*
X175619514Y-118962954D01*
X175667488Y-118912157D01*
X175735308Y-118895361D01*
X175801444Y-118917897D01*
X175840486Y-118962954D01*
X175845375Y-118972550D01*
X175884728Y-119026716D01*
X176517037Y-118394408D01*
X176534075Y-118457993D01*
X176599901Y-118572007D01*
X176692993Y-118665099D01*
X176807007Y-118730925D01*
X176870590Y-118747962D01*
X176238282Y-119380269D01*
X176238282Y-119380270D01*
X176292449Y-119419624D01*
X176481782Y-119516095D01*
X176683870Y-119581757D01*
X176893754Y-119615000D01*
X177106246Y-119615000D01*
X177316127Y-119581757D01*
X177316130Y-119581757D01*
X177518217Y-119516095D01*
X177707554Y-119419622D01*
X177761716Y-119380270D01*
X177761717Y-119380270D01*
X177129408Y-118747962D01*
X177192993Y-118730925D01*
X177307007Y-118665099D01*
X177400099Y-118572007D01*
X177465925Y-118457993D01*
X177482962Y-118394408D01*
X178115270Y-119026717D01*
X178115270Y-119026716D01*
X178154622Y-118972554D01*
X178251095Y-118783217D01*
X178316757Y-118581130D01*
X178316757Y-118581127D01*
X178350000Y-118371246D01*
X178350000Y-118158753D01*
X178316757Y-117948872D01*
X178316757Y-117948869D01*
X178251095Y-117746782D01*
X178154624Y-117557449D01*
X178115270Y-117503282D01*
X178115269Y-117503282D01*
X177482962Y-118135590D01*
X177465925Y-118072007D01*
X177400099Y-117957993D01*
X177307007Y-117864901D01*
X177192993Y-117799075D01*
X177129409Y-117782037D01*
X177761716Y-117149728D01*
X177707550Y-117110375D01*
X177697954Y-117105486D01*
X177647157Y-117057512D01*
X177630361Y-116989692D01*
X177652897Y-116923556D01*
X177697954Y-116884514D01*
X177707554Y-116879622D01*
X177761716Y-116840270D01*
X177761717Y-116840270D01*
X177129408Y-116207962D01*
X177192993Y-116190925D01*
X177307007Y-116125099D01*
X177400099Y-116032007D01*
X177465925Y-115917993D01*
X177482962Y-115854408D01*
X178115270Y-116486717D01*
X178115270Y-116486716D01*
X178154622Y-116432554D01*
X178251095Y-116243217D01*
X178316757Y-116041130D01*
X178316757Y-116041127D01*
X178350000Y-115831246D01*
X178350000Y-115618753D01*
X178316757Y-115408872D01*
X178316757Y-115408869D01*
X178251095Y-115206782D01*
X178154624Y-115017449D01*
X178115270Y-114963282D01*
X178115269Y-114963282D01*
X177482962Y-115595590D01*
X177465925Y-115532007D01*
X177400099Y-115417993D01*
X177307007Y-115324901D01*
X177192993Y-115259075D01*
X177129409Y-115242037D01*
X177761716Y-114609728D01*
X177707550Y-114570375D01*
X177518217Y-114473904D01*
X177316129Y-114408242D01*
X177106246Y-114375000D01*
X176893754Y-114375000D01*
X176683872Y-114408242D01*
X176683869Y-114408242D01*
X176481782Y-114473904D01*
X176292439Y-114570380D01*
X176238282Y-114609727D01*
X176238282Y-114609728D01*
X176870591Y-115242037D01*
X176807007Y-115259075D01*
X176692993Y-115324901D01*
X176599901Y-115417993D01*
X176534075Y-115532007D01*
X176517037Y-115595591D01*
X175847642Y-114926196D01*
X175814319Y-114865609D01*
X175775527Y-114692364D01*
X175753354Y-114632913D01*
X175753350Y-114632906D01*
X175667190Y-114517812D01*
X175667187Y-114517809D01*
X175552093Y-114431649D01*
X175552086Y-114431645D01*
X175417379Y-114381403D01*
X175417372Y-114381401D01*
X175357844Y-114375000D01*
X174710000Y-114375000D01*
X174710000Y-115291988D01*
X174652993Y-115259075D01*
X174525826Y-115225000D01*
X174394174Y-115225000D01*
X174267007Y-115259075D01*
X174210000Y-115291988D01*
X174210000Y-114375000D01*
X173562155Y-114375000D01*
X173502627Y-114381401D01*
X173502620Y-114381403D01*
X173367913Y-114431645D01*
X173367906Y-114431649D01*
X173252812Y-114517809D01*
X173252809Y-114517812D01*
X173166649Y-114632906D01*
X173166645Y-114632913D01*
X173116403Y-114767620D01*
X173116401Y-114767627D01*
X173110000Y-114827155D01*
X170800500Y-114827155D01*
X170800500Y-104537709D01*
X170820185Y-104470670D01*
X170872989Y-104424915D01*
X170942147Y-104414971D01*
X170963504Y-104420003D01*
X171097802Y-104464505D01*
X171097809Y-104464506D01*
X171200519Y-104474999D01*
X172600499Y-104474999D01*
X173100500Y-104474999D01*
X174500472Y-104474999D01*
X174500486Y-104474998D01*
X174603197Y-104464505D01*
X174769619Y-104409358D01*
X174769624Y-104409356D01*
X174918845Y-104317315D01*
X175042815Y-104193345D01*
X175134856Y-104044124D01*
X175134858Y-104044119D01*
X175190005Y-103877697D01*
X175190006Y-103877690D01*
X175200499Y-103774986D01*
X175200500Y-103774973D01*
X175200500Y-103550000D01*
X173100500Y-103550000D01*
X173100500Y-104474999D01*
X172600499Y-104474999D01*
X172600500Y-104474998D01*
X172600500Y-103050000D01*
X173100500Y-103050000D01*
X175200499Y-103050000D01*
X175200499Y-102825028D01*
X175200498Y-102825013D01*
X175190005Y-102722302D01*
X175134858Y-102555880D01*
X175134856Y-102555875D01*
X175042815Y-102406654D01*
X174918845Y-102282684D01*
X174769624Y-102190643D01*
X174769619Y-102190641D01*
X174603197Y-102135494D01*
X174603190Y-102135493D01*
X174500486Y-102125000D01*
X173100500Y-102125000D01*
X173100500Y-103050000D01*
X172600500Y-103050000D01*
X172600500Y-102125000D01*
X171200528Y-102125000D01*
X171200512Y-102125001D01*
X171097802Y-102135494D01*
X170963504Y-102179996D01*
X170893675Y-102182398D01*
X170833634Y-102146666D01*
X170802441Y-102084145D01*
X170800500Y-102062290D01*
X170800500Y-98887709D01*
X170820185Y-98820670D01*
X170872989Y-98774915D01*
X170942147Y-98764971D01*
X170963504Y-98770003D01*
X171097802Y-98814505D01*
X171097809Y-98814506D01*
X171200519Y-98824999D01*
X172600499Y-98824999D01*
X173100500Y-98824999D01*
X174500472Y-98824999D01*
X174500486Y-98824998D01*
X174603197Y-98814505D01*
X174769619Y-98759358D01*
X174769624Y-98759356D01*
X174918845Y-98667315D01*
X175042815Y-98543345D01*
X175134856Y-98394124D01*
X175134858Y-98394119D01*
X175190005Y-98227697D01*
X175190006Y-98227690D01*
X175200499Y-98124986D01*
X175200500Y-98124973D01*
X175200500Y-97900000D01*
X173100500Y-97900000D01*
X173100500Y-98824999D01*
X172600499Y-98824999D01*
X172600500Y-98824998D01*
X172600500Y-97400000D01*
X173100500Y-97400000D01*
X175200499Y-97400000D01*
X175200499Y-97175028D01*
X175200498Y-97175013D01*
X175190005Y-97072302D01*
X175134858Y-96905880D01*
X175134856Y-96905875D01*
X175042815Y-96756654D01*
X174918845Y-96632684D01*
X174769624Y-96540643D01*
X174769619Y-96540641D01*
X174603197Y-96485494D01*
X174603190Y-96485493D01*
X174500486Y-96475000D01*
X173100500Y-96475000D01*
X173100500Y-97400000D01*
X172600500Y-97400000D01*
X172600500Y-96475000D01*
X171200528Y-96475000D01*
X171200512Y-96475001D01*
X171097802Y-96485494D01*
X170963504Y-96529996D01*
X170893675Y-96532398D01*
X170833634Y-96496666D01*
X170802441Y-96434145D01*
X170800500Y-96412290D01*
X170800500Y-94062709D01*
X170820185Y-93995670D01*
X170872989Y-93949915D01*
X170942147Y-93939971D01*
X170963504Y-93945003D01*
X171097802Y-93989505D01*
X171097809Y-93989506D01*
X171200519Y-93999999D01*
X172600499Y-93999999D01*
X173100500Y-93999999D01*
X174500472Y-93999999D01*
X174500486Y-93999998D01*
X174603197Y-93989505D01*
X174769619Y-93934358D01*
X174769624Y-93934356D01*
X174918845Y-93842315D01*
X175042815Y-93718345D01*
X175134856Y-93569124D01*
X175134858Y-93569119D01*
X175190005Y-93402697D01*
X175190006Y-93402690D01*
X175200499Y-93299986D01*
X175200500Y-93299973D01*
X175200500Y-93075000D01*
X173100500Y-93075000D01*
X173100500Y-93999999D01*
X172600499Y-93999999D01*
X172600500Y-93999998D01*
X172600500Y-92575000D01*
X173100500Y-92575000D01*
X175200499Y-92575000D01*
X175200499Y-92350028D01*
X175200498Y-92350013D01*
X175190005Y-92247302D01*
X175134858Y-92080880D01*
X175134856Y-92080875D01*
X175042815Y-91931654D01*
X174918845Y-91807684D01*
X174769624Y-91715643D01*
X174769619Y-91715641D01*
X174603197Y-91660494D01*
X174603190Y-91660493D01*
X174500486Y-91650000D01*
X173100500Y-91650000D01*
X173100500Y-92575000D01*
X172600500Y-92575000D01*
X172600500Y-91650000D01*
X171200528Y-91650000D01*
X171200512Y-91650001D01*
X171097802Y-91660494D01*
X170963504Y-91704996D01*
X170893675Y-91707398D01*
X170833634Y-91671666D01*
X170802441Y-91609145D01*
X170800500Y-91587290D01*
X170800500Y-88412709D01*
X170820185Y-88345670D01*
X170872989Y-88299915D01*
X170942147Y-88289971D01*
X170963504Y-88295003D01*
X171097802Y-88339505D01*
X171097809Y-88339506D01*
X171200519Y-88349999D01*
X172600499Y-88349999D01*
X173100500Y-88349999D01*
X174500472Y-88349999D01*
X174500486Y-88349998D01*
X174603197Y-88339505D01*
X174769619Y-88284358D01*
X174769624Y-88284356D01*
X174918845Y-88192315D01*
X175042815Y-88068345D01*
X175134856Y-87919124D01*
X175134858Y-87919119D01*
X175190005Y-87752697D01*
X175190006Y-87752690D01*
X175200499Y-87649986D01*
X175200500Y-87649973D01*
X175200500Y-87425000D01*
X173100500Y-87425000D01*
X173100500Y-88349999D01*
X172600499Y-88349999D01*
X172600500Y-88349998D01*
X172600500Y-86925000D01*
X173100500Y-86925000D01*
X175200499Y-86925000D01*
X175200499Y-86700028D01*
X175200498Y-86700013D01*
X175190005Y-86597302D01*
X175134858Y-86430880D01*
X175134856Y-86430875D01*
X175042815Y-86281654D01*
X174918845Y-86157684D01*
X174769624Y-86065643D01*
X174769619Y-86065641D01*
X174603197Y-86010494D01*
X174603190Y-86010493D01*
X174500486Y-86000000D01*
X173100500Y-86000000D01*
X173100500Y-86925000D01*
X172600500Y-86925000D01*
X172600500Y-86000000D01*
X171200528Y-86000000D01*
X171200512Y-86000001D01*
X171097802Y-86010494D01*
X170963504Y-86054996D01*
X170893675Y-86057398D01*
X170833634Y-86021666D01*
X170802441Y-85959145D01*
X170800500Y-85937290D01*
X170800500Y-76853753D01*
X175510000Y-76853753D01*
X175510000Y-77066246D01*
X175543242Y-77276127D01*
X175543242Y-77276130D01*
X175608904Y-77478217D01*
X175705375Y-77667550D01*
X175744728Y-77721716D01*
X176377037Y-77089408D01*
X176394075Y-77152993D01*
X176459901Y-77267007D01*
X176552993Y-77360099D01*
X176667007Y-77425925D01*
X176730591Y-77442962D01*
X176129971Y-78043581D01*
X176208711Y-78160895D01*
X176209920Y-78164729D01*
X176212844Y-78167491D01*
X176220343Y-78197778D01*
X176229727Y-78227529D01*
X176228671Y-78231408D01*
X176229638Y-78235312D01*
X176219573Y-78264844D01*
X176211383Y-78294947D01*
X176208397Y-78297640D01*
X176207100Y-78301447D01*
X176162051Y-78340483D01*
X176152440Y-78345380D01*
X176098282Y-78384727D01*
X176098282Y-78384728D01*
X176730591Y-79017037D01*
X176667007Y-79034075D01*
X176552993Y-79099901D01*
X176459901Y-79192993D01*
X176394075Y-79307007D01*
X176377037Y-79370591D01*
X175744728Y-78738282D01*
X175744727Y-78738282D01*
X175705380Y-78792439D01*
X175608904Y-78981782D01*
X175543242Y-79183869D01*
X175543242Y-79183872D01*
X175510000Y-79393753D01*
X175510000Y-79606246D01*
X175543242Y-79816127D01*
X175543242Y-79816130D01*
X175608904Y-80018217D01*
X175705375Y-80207550D01*
X175744728Y-80261716D01*
X176377037Y-79629408D01*
X176394075Y-79692993D01*
X176459901Y-79807007D01*
X176552993Y-79900099D01*
X176667007Y-79965925D01*
X176730590Y-79982962D01*
X176098282Y-80615269D01*
X176098282Y-80615270D01*
X176152449Y-80654624D01*
X176341782Y-80751095D01*
X176543870Y-80816757D01*
X176753754Y-80850000D01*
X176966246Y-80850000D01*
X177176127Y-80816757D01*
X177176130Y-80816757D01*
X177378217Y-80751095D01*
X177567554Y-80654622D01*
X177621716Y-80615270D01*
X177621717Y-80615270D01*
X176989408Y-79982962D01*
X177052993Y-79965925D01*
X177167007Y-79900099D01*
X177260099Y-79807007D01*
X177325925Y-79692993D01*
X177342962Y-79629408D01*
X177975270Y-80261717D01*
X177975270Y-80261716D01*
X178014622Y-80207554D01*
X178111096Y-80018215D01*
X178143239Y-79919288D01*
X178182676Y-79861612D01*
X178247034Y-79834413D01*
X178315880Y-79846327D01*
X178367357Y-79893571D01*
X178379100Y-79919284D01*
X178380127Y-79922446D01*
X178380128Y-79922447D01*
X178458768Y-80076788D01*
X178560586Y-80216928D01*
X178683072Y-80339414D01*
X178721717Y-80367491D01*
X178823207Y-80441229D01*
X178823209Y-80441230D01*
X178823212Y-80441232D01*
X178827791Y-80443565D01*
X178878588Y-80491536D01*
X178895500Y-80554051D01*
X178895500Y-81139667D01*
X178875815Y-81206706D01*
X178859181Y-81227348D01*
X177096301Y-82990227D01*
X177096295Y-82990236D01*
X177054190Y-83063160D01*
X177054191Y-83063161D01*
X177029882Y-83105265D01*
X177029881Y-83105270D01*
X176995500Y-83233581D01*
X176995500Y-83233583D01*
X176995500Y-106736042D01*
X176994450Y-106741318D01*
X176991380Y-106767741D01*
X176987762Y-106781420D01*
X176984779Y-106786589D01*
X176947100Y-106927209D01*
X176947100Y-107072791D01*
X176984779Y-107213411D01*
X176984780Y-107213412D01*
X176984780Y-107213413D01*
X177057567Y-107339485D01*
X177057569Y-107339488D01*
X177057570Y-107339489D01*
X177160511Y-107442430D01*
X177286589Y-107515221D01*
X177427209Y-107552900D01*
X177427211Y-107552900D01*
X177572788Y-107552900D01*
X177572791Y-107552900D01*
X177713411Y-107515221D01*
X177839489Y-107442430D01*
X177942430Y-107339489D01*
X178015221Y-107213411D01*
X178052900Y-107072791D01*
X178052900Y-106927209D01*
X178015221Y-106786589D01*
X178015216Y-106786580D01*
X178013939Y-106783496D01*
X178004500Y-106736042D01*
X178004500Y-88400274D01*
X179987500Y-88400274D01*
X179987500Y-104599727D01*
X180026407Y-104795327D01*
X180026409Y-104795335D01*
X180064572Y-104887467D01*
X180064572Y-104887468D01*
X180102730Y-104979592D01*
X180102737Y-104979605D01*
X180213539Y-105145430D01*
X180213542Y-105145434D01*
X196213540Y-121145431D01*
X196354569Y-121286460D01*
X196354570Y-121286461D01*
X196520394Y-121397262D01*
X196520401Y-121397266D01*
X196612533Y-121435428D01*
X196704665Y-121473591D01*
X196900272Y-121512499D01*
X196900276Y-121512500D01*
X196900277Y-121512500D01*
X218099724Y-121512500D01*
X218099725Y-121512499D01*
X218295335Y-121473591D01*
X218387467Y-121435428D01*
X218479599Y-121397266D01*
X218645431Y-121286460D01*
X218786460Y-121145431D01*
X225451562Y-114480330D01*
X226538139Y-113393753D01*
X230150000Y-113393753D01*
X230150000Y-113606246D01*
X230183242Y-113816127D01*
X230183242Y-113816130D01*
X230248904Y-114018217D01*
X230345375Y-114207550D01*
X230384728Y-114261716D01*
X231017037Y-113629408D01*
X231034075Y-113692993D01*
X231099901Y-113807007D01*
X231192993Y-113900099D01*
X231307007Y-113965925D01*
X231370590Y-113982962D01*
X230738282Y-114615269D01*
X230738282Y-114615270D01*
X230792449Y-114654624D01*
X230981782Y-114751095D01*
X231183870Y-114816757D01*
X231393754Y-114850000D01*
X231606246Y-114850000D01*
X231816127Y-114816757D01*
X231816130Y-114816757D01*
X232018217Y-114751095D01*
X232207554Y-114654622D01*
X232261716Y-114615270D01*
X232261717Y-114615270D01*
X231629408Y-113982962D01*
X231692993Y-113965925D01*
X231807007Y-113900099D01*
X231900099Y-113807007D01*
X231965925Y-113692993D01*
X231982962Y-113629408D01*
X232615270Y-114261717D01*
X232615270Y-114261716D01*
X232654622Y-114207554D01*
X232659514Y-114197954D01*
X232707488Y-114147157D01*
X232775308Y-114130361D01*
X232841444Y-114152897D01*
X232880486Y-114197954D01*
X232885375Y-114207550D01*
X232924728Y-114261716D01*
X233557037Y-113629408D01*
X233574075Y-113692993D01*
X233639901Y-113807007D01*
X233732993Y-113900099D01*
X233847007Y-113965925D01*
X233910590Y-113982962D01*
X233278282Y-114615269D01*
X233278282Y-114615270D01*
X233332449Y-114654624D01*
X233521782Y-114751095D01*
X233723870Y-114816757D01*
X233933754Y-114850000D01*
X234146246Y-114850000D01*
X234356127Y-114816757D01*
X234356130Y-114816757D01*
X234558217Y-114751095D01*
X234747554Y-114654622D01*
X234801716Y-114615270D01*
X234801717Y-114615270D01*
X234169408Y-113982962D01*
X234232993Y-113965925D01*
X234347007Y-113900099D01*
X234440099Y-113807007D01*
X234505925Y-113692993D01*
X234522962Y-113629408D01*
X235155270Y-114261717D01*
X235155270Y-114261716D01*
X235194622Y-114207554D01*
X235291095Y-114018217D01*
X235356757Y-113816130D01*
X235356757Y-113816127D01*
X235390000Y-113606246D01*
X235390000Y-113393753D01*
X235356757Y-113183872D01*
X235356757Y-113183869D01*
X235291095Y-112981782D01*
X235194624Y-112792449D01*
X235155270Y-112738282D01*
X235155269Y-112738282D01*
X234522962Y-113370590D01*
X234505925Y-113307007D01*
X234440099Y-113192993D01*
X234347007Y-113099901D01*
X234232993Y-113034075D01*
X234169409Y-113017037D01*
X234801716Y-112384728D01*
X234747550Y-112345375D01*
X234558217Y-112248904D01*
X234459287Y-112216760D01*
X234401611Y-112177323D01*
X234374413Y-112112964D01*
X234386328Y-112044118D01*
X234433572Y-111992642D01*
X234459290Y-111980897D01*
X234462445Y-111979873D01*
X234616788Y-111901232D01*
X234756928Y-111799414D01*
X234879414Y-111676928D01*
X234981232Y-111536788D01*
X235059873Y-111382445D01*
X235113402Y-111217701D01*
X235140500Y-111046611D01*
X235140500Y-110873389D01*
X235113402Y-110702299D01*
X235059873Y-110537555D01*
X234981232Y-110383212D01*
X234879414Y-110243072D01*
X234756928Y-110120586D01*
X234616788Y-110018768D01*
X234462445Y-109940127D01*
X234297701Y-109886598D01*
X234297699Y-109886597D01*
X234297698Y-109886597D01*
X234166271Y-109865781D01*
X234126611Y-109859500D01*
X233953389Y-109859500D01*
X233913728Y-109865781D01*
X233782302Y-109886597D01*
X233617552Y-109940128D01*
X233463211Y-110018768D01*
X233383256Y-110076859D01*
X233323072Y-110120586D01*
X233323070Y-110120588D01*
X233323069Y-110120588D01*
X233200588Y-110243069D01*
X233200588Y-110243070D01*
X233200586Y-110243072D01*
X233156859Y-110303256D01*
X233098768Y-110383211D01*
X233020128Y-110537552D01*
X232966597Y-110702302D01*
X232939500Y-110873389D01*
X232939500Y-111046611D01*
X232966598Y-111217701D01*
X233020127Y-111382445D01*
X233098768Y-111536788D01*
X233200586Y-111676928D01*
X233323072Y-111799414D01*
X233463212Y-111901232D01*
X233617555Y-111979873D01*
X233620708Y-111980897D01*
X233621752Y-111981611D01*
X233622048Y-111981734D01*
X233622022Y-111981795D01*
X233678383Y-112020330D01*
X233705585Y-112084688D01*
X233693674Y-112153535D01*
X233646433Y-112205013D01*
X233620712Y-112216760D01*
X233521783Y-112248904D01*
X233332439Y-112345380D01*
X233278282Y-112384727D01*
X233278282Y-112384728D01*
X233910591Y-113017037D01*
X233847007Y-113034075D01*
X233732993Y-113099901D01*
X233639901Y-113192993D01*
X233574075Y-113307007D01*
X233557037Y-113370591D01*
X232924728Y-112738282D01*
X232924727Y-112738282D01*
X232885380Y-112792440D01*
X232880483Y-112802051D01*
X232832506Y-112852845D01*
X232764684Y-112869638D01*
X232698550Y-112847098D01*
X232659516Y-112802048D01*
X232654626Y-112792452D01*
X232615270Y-112738282D01*
X232615269Y-112738282D01*
X231982962Y-113370590D01*
X231965925Y-113307007D01*
X231900099Y-113192993D01*
X231807007Y-113099901D01*
X231692993Y-113034075D01*
X231629409Y-113017037D01*
X232261716Y-112384728D01*
X232207550Y-112345375D01*
X232108655Y-112294985D01*
X232057859Y-112247010D01*
X232041064Y-112179189D01*
X232063602Y-112113054D01*
X232118317Y-112069603D01*
X232164950Y-112060500D01*
X232374676Y-112060500D01*
X232374677Y-112060499D01*
X232447740Y-112045966D01*
X232530601Y-111990601D01*
X232585966Y-111907740D01*
X232600500Y-111834674D01*
X232600500Y-110085326D01*
X232600500Y-110085323D01*
X232600499Y-110085321D01*
X232585967Y-110012264D01*
X232585966Y-110012260D01*
X232572130Y-109991553D01*
X232530601Y-109929399D01*
X232447740Y-109874034D01*
X232447739Y-109874033D01*
X232447735Y-109874032D01*
X232374677Y-109859500D01*
X232374674Y-109859500D01*
X230625326Y-109859500D01*
X230625323Y-109859500D01*
X230552264Y-109874032D01*
X230552260Y-109874033D01*
X230469399Y-109929399D01*
X230414033Y-110012260D01*
X230414032Y-110012264D01*
X230399500Y-110085321D01*
X230399500Y-111834678D01*
X230414032Y-111907735D01*
X230414033Y-111907739D01*
X230414034Y-111907740D01*
X230469399Y-111990601D01*
X230549494Y-112044118D01*
X230552260Y-112045966D01*
X230552264Y-112045967D01*
X230625321Y-112060499D01*
X230625324Y-112060500D01*
X230835051Y-112060500D01*
X230902090Y-112080185D01*
X230947845Y-112132989D01*
X230957789Y-112202147D01*
X230928764Y-112265703D01*
X230891346Y-112294985D01*
X230792439Y-112345380D01*
X230738282Y-112384727D01*
X230738282Y-112384728D01*
X231370591Y-113017037D01*
X231307007Y-113034075D01*
X231192993Y-113099901D01*
X231099901Y-113192993D01*
X231034075Y-113307007D01*
X231017037Y-113370591D01*
X230384728Y-112738282D01*
X230384727Y-112738282D01*
X230345380Y-112792439D01*
X230248904Y-112981782D01*
X230183242Y-113183869D01*
X230183242Y-113183872D01*
X230150000Y-113393753D01*
X226538139Y-113393753D01*
X229940339Y-109991553D01*
X231786457Y-108145434D01*
X231786460Y-108145431D01*
X231897266Y-107979599D01*
X231973590Y-107795335D01*
X232012500Y-107599723D01*
X232012500Y-105149986D01*
X235799501Y-105149986D01*
X235809994Y-105252697D01*
X235865141Y-105419119D01*
X235865143Y-105419124D01*
X235957184Y-105568345D01*
X236081154Y-105692315D01*
X236230375Y-105784356D01*
X236230380Y-105784358D01*
X236396802Y-105839505D01*
X236396809Y-105839506D01*
X236499519Y-105849999D01*
X237899499Y-105849999D01*
X237899500Y-105849998D01*
X237899500Y-104925000D01*
X235799501Y-104925000D01*
X235799501Y-105149986D01*
X232012500Y-105149986D01*
X232012500Y-104200013D01*
X235799500Y-104200013D01*
X235799500Y-104425000D01*
X237899500Y-104425000D01*
X237899500Y-103500000D01*
X236499528Y-103500000D01*
X236499512Y-103500001D01*
X236396802Y-103510494D01*
X236230380Y-103565641D01*
X236230375Y-103565643D01*
X236081154Y-103657684D01*
X235957184Y-103781654D01*
X235865143Y-103930875D01*
X235865141Y-103930880D01*
X235809994Y-104097302D01*
X235809993Y-104097309D01*
X235799500Y-104200013D01*
X232012500Y-104200013D01*
X232012500Y-99499986D01*
X235799501Y-99499986D01*
X235809994Y-99602697D01*
X235865141Y-99769119D01*
X235865143Y-99769124D01*
X235957184Y-99918345D01*
X236081154Y-100042315D01*
X236230375Y-100134356D01*
X236230380Y-100134358D01*
X236396802Y-100189505D01*
X236396809Y-100189506D01*
X236499519Y-100199999D01*
X237899499Y-100199999D01*
X237899500Y-100199998D01*
X237899500Y-99275000D01*
X235799501Y-99275000D01*
X235799501Y-99499986D01*
X232012500Y-99499986D01*
X232012500Y-98550013D01*
X235799500Y-98550013D01*
X235799500Y-98775000D01*
X237899500Y-98775000D01*
X237899500Y-97850000D01*
X236499528Y-97850000D01*
X236499512Y-97850001D01*
X236396802Y-97860494D01*
X236230380Y-97915641D01*
X236230375Y-97915643D01*
X236081154Y-98007684D01*
X235957184Y-98131654D01*
X235865143Y-98280875D01*
X235865141Y-98280880D01*
X235809994Y-98447302D01*
X235809993Y-98447309D01*
X235799500Y-98550013D01*
X232012500Y-98550013D01*
X232012500Y-94649986D01*
X235799501Y-94649986D01*
X235809994Y-94752697D01*
X235865141Y-94919119D01*
X235865143Y-94919124D01*
X235957184Y-95068345D01*
X236081154Y-95192315D01*
X236230375Y-95284356D01*
X236230380Y-95284358D01*
X236396802Y-95339505D01*
X236396809Y-95339506D01*
X236499519Y-95349999D01*
X237899499Y-95349999D01*
X237899500Y-95349998D01*
X237899500Y-94425000D01*
X235799501Y-94425000D01*
X235799501Y-94649986D01*
X232012500Y-94649986D01*
X232012500Y-93700013D01*
X235799500Y-93700013D01*
X235799500Y-93925000D01*
X237899500Y-93925000D01*
X237899500Y-93000000D01*
X236499528Y-93000000D01*
X236499512Y-93000001D01*
X236396802Y-93010494D01*
X236230380Y-93065641D01*
X236230375Y-93065643D01*
X236081154Y-93157684D01*
X235957184Y-93281654D01*
X235865143Y-93430875D01*
X235865141Y-93430880D01*
X235809994Y-93597302D01*
X235809993Y-93597309D01*
X235799500Y-93700013D01*
X232012500Y-93700013D01*
X232012500Y-88999986D01*
X235799501Y-88999986D01*
X235809994Y-89102697D01*
X235865141Y-89269119D01*
X235865143Y-89269124D01*
X235957184Y-89418345D01*
X236081154Y-89542315D01*
X236230375Y-89634356D01*
X236230380Y-89634358D01*
X236396802Y-89689505D01*
X236396809Y-89689506D01*
X236499519Y-89699999D01*
X237899499Y-89699999D01*
X237899500Y-89699998D01*
X237899500Y-88775000D01*
X235799501Y-88775000D01*
X235799501Y-88999986D01*
X232012500Y-88999986D01*
X232012500Y-88050013D01*
X235799500Y-88050013D01*
X235799500Y-88275000D01*
X237899500Y-88275000D01*
X237899500Y-87350000D01*
X236499528Y-87350000D01*
X236499512Y-87350001D01*
X236396802Y-87360494D01*
X236230380Y-87415641D01*
X236230375Y-87415643D01*
X236081154Y-87507684D01*
X235957184Y-87631654D01*
X235865143Y-87780875D01*
X235865141Y-87780880D01*
X235809994Y-87947302D01*
X235809993Y-87947309D01*
X235799500Y-88050013D01*
X232012500Y-88050013D01*
X232012500Y-82735441D01*
X232032185Y-82668402D01*
X232033398Y-82666550D01*
X232037217Y-82660832D01*
X232045966Y-82647740D01*
X232060500Y-82574674D01*
X232060500Y-82364949D01*
X232080185Y-82297910D01*
X232132989Y-82252155D01*
X232202147Y-82242211D01*
X232265703Y-82271236D01*
X232294985Y-82308654D01*
X232345375Y-82407550D01*
X232384728Y-82461716D01*
X233017037Y-81829408D01*
X233034075Y-81892993D01*
X233099901Y-82007007D01*
X233192993Y-82100099D01*
X233307007Y-82165925D01*
X233370590Y-82182962D01*
X232738282Y-82815269D01*
X232738282Y-82815270D01*
X232792449Y-82854624D01*
X232981782Y-82951095D01*
X233183870Y-83016757D01*
X233393754Y-83050000D01*
X233606246Y-83050000D01*
X233816127Y-83016757D01*
X233816130Y-83016757D01*
X234018217Y-82951095D01*
X234207554Y-82854622D01*
X234261716Y-82815270D01*
X234261717Y-82815270D01*
X233629408Y-82182962D01*
X233692993Y-82165925D01*
X233807007Y-82100099D01*
X233900099Y-82007007D01*
X233965925Y-81892993D01*
X233982962Y-81829408D01*
X234615270Y-82461717D01*
X234615270Y-82461716D01*
X234654622Y-82407554D01*
X234751095Y-82218217D01*
X234816757Y-82016130D01*
X234816757Y-82016127D01*
X234850000Y-81806246D01*
X234850000Y-81593753D01*
X234816757Y-81383872D01*
X234816757Y-81383869D01*
X234751095Y-81181782D01*
X234654624Y-80992449D01*
X234615270Y-80938282D01*
X234615269Y-80938282D01*
X233982962Y-81570590D01*
X233965925Y-81507007D01*
X233900099Y-81392993D01*
X233807007Y-81299901D01*
X233692993Y-81234075D01*
X233629409Y-81217037D01*
X234261716Y-80584728D01*
X234207550Y-80545375D01*
X234197954Y-80540486D01*
X234147157Y-80492512D01*
X234130361Y-80424692D01*
X234152897Y-80358556D01*
X234197954Y-80319514D01*
X234207554Y-80314622D01*
X234261716Y-80275270D01*
X234261717Y-80275270D01*
X233629408Y-79642962D01*
X233692993Y-79625925D01*
X233807007Y-79560099D01*
X233900099Y-79467007D01*
X233965925Y-79352993D01*
X233982962Y-79289408D01*
X234615270Y-79921717D01*
X234615270Y-79921716D01*
X234654622Y-79867554D01*
X234751095Y-79678217D01*
X234816757Y-79476130D01*
X234816757Y-79476127D01*
X234850000Y-79266246D01*
X234850000Y-79053753D01*
X234816757Y-78843872D01*
X234816757Y-78843869D01*
X234751095Y-78641782D01*
X234654624Y-78452449D01*
X234615270Y-78398282D01*
X234615269Y-78398282D01*
X233982962Y-79030590D01*
X233965925Y-78967007D01*
X233900099Y-78852993D01*
X233807007Y-78759901D01*
X233692993Y-78694075D01*
X233629409Y-78677037D01*
X234261716Y-78044728D01*
X234207550Y-78005375D01*
X234018217Y-77908904D01*
X233816129Y-77843242D01*
X233606246Y-77810000D01*
X233393754Y-77810000D01*
X233183872Y-77843242D01*
X233183869Y-77843242D01*
X232981782Y-77908904D01*
X232792439Y-78005380D01*
X232738282Y-78044727D01*
X232738282Y-78044728D01*
X233370591Y-78677037D01*
X233307007Y-78694075D01*
X233192993Y-78759901D01*
X233099901Y-78852993D01*
X233034075Y-78967007D01*
X233017037Y-79030591D01*
X232384728Y-78398282D01*
X232384727Y-78398282D01*
X232345380Y-78452439D01*
X232248904Y-78641783D01*
X232216760Y-78740712D01*
X232177322Y-78798388D01*
X232112964Y-78825586D01*
X232044117Y-78813671D01*
X231992642Y-78766427D01*
X231980898Y-78740712D01*
X231979873Y-78737555D01*
X231901232Y-78583212D01*
X231799414Y-78443072D01*
X231676928Y-78320586D01*
X231536788Y-78218768D01*
X231382445Y-78140127D01*
X231217701Y-78086598D01*
X231217699Y-78086597D01*
X231217698Y-78086597D01*
X231086271Y-78065781D01*
X231046611Y-78059500D01*
X230873389Y-78059500D01*
X230833728Y-78065781D01*
X230702302Y-78086597D01*
X230537552Y-78140128D01*
X230383211Y-78218768D01*
X230319794Y-78264844D01*
X230243072Y-78320586D01*
X230243070Y-78320588D01*
X230243069Y-78320588D01*
X230120588Y-78443069D01*
X230120588Y-78443070D01*
X230120586Y-78443072D01*
X230093664Y-78480127D01*
X230018768Y-78583211D01*
X229940128Y-78737552D01*
X229886597Y-78902302D01*
X229865727Y-79034075D01*
X229859500Y-79073389D01*
X229859500Y-79246611D01*
X229886598Y-79417701D01*
X229940127Y-79582445D01*
X230018768Y-79736788D01*
X230120586Y-79876928D01*
X230243072Y-79999414D01*
X230383212Y-80101232D01*
X230537555Y-80179873D01*
X230702299Y-80233402D01*
X230873389Y-80260500D01*
X230873390Y-80260500D01*
X231046610Y-80260500D01*
X231046611Y-80260500D01*
X231217701Y-80233402D01*
X231382445Y-80179873D01*
X231536788Y-80101232D01*
X231676928Y-79999414D01*
X231799414Y-79876928D01*
X231901232Y-79736788D01*
X231979873Y-79582445D01*
X231980896Y-79579294D01*
X231981610Y-79578250D01*
X231981734Y-79577952D01*
X231981796Y-79577977D01*
X232020327Y-79521618D01*
X232084683Y-79494415D01*
X232153530Y-79506323D01*
X232205011Y-79553562D01*
X232216760Y-79579287D01*
X232248904Y-79678217D01*
X232345375Y-79867550D01*
X232384728Y-79921716D01*
X233017037Y-79289408D01*
X233034075Y-79352993D01*
X233099901Y-79467007D01*
X233192993Y-79560099D01*
X233307007Y-79625925D01*
X233370591Y-79642962D01*
X232769971Y-80243581D01*
X232848711Y-80360895D01*
X232849920Y-80364729D01*
X232852844Y-80367491D01*
X232860343Y-80397778D01*
X232869727Y-80427529D01*
X232868671Y-80431408D01*
X232869638Y-80435312D01*
X232859573Y-80464844D01*
X232851383Y-80494947D01*
X232848397Y-80497640D01*
X232847100Y-80501447D01*
X232802051Y-80540483D01*
X232792440Y-80545380D01*
X232738282Y-80584727D01*
X232738282Y-80584728D01*
X233370591Y-81217037D01*
X233307007Y-81234075D01*
X233192993Y-81299901D01*
X233099901Y-81392993D01*
X233034075Y-81507007D01*
X233017037Y-81570591D01*
X232384728Y-80938282D01*
X232384727Y-80938282D01*
X232345380Y-80992440D01*
X232345378Y-80992443D01*
X232294984Y-81091346D01*
X232247010Y-81142141D01*
X232179188Y-81158936D01*
X232113054Y-81136398D01*
X232069603Y-81081683D01*
X232060500Y-81035050D01*
X232060500Y-80825323D01*
X232060499Y-80825321D01*
X232045967Y-80752264D01*
X232045966Y-80752260D01*
X232045188Y-80751095D01*
X231990601Y-80669399D01*
X231909590Y-80615270D01*
X231907739Y-80614033D01*
X231907735Y-80614032D01*
X231834677Y-80599500D01*
X231834674Y-80599500D01*
X230085326Y-80599500D01*
X230085323Y-80599500D01*
X230012264Y-80614032D01*
X230012260Y-80614033D01*
X229929399Y-80669399D01*
X229874033Y-80752260D01*
X229874032Y-80752264D01*
X229859500Y-80825321D01*
X229859500Y-81460111D01*
X229850061Y-81507563D01*
X229826410Y-81564660D01*
X229826407Y-81564672D01*
X229787500Y-81760272D01*
X229787500Y-81959727D01*
X229826407Y-82155327D01*
X229826409Y-82155335D01*
X229850061Y-82212435D01*
X229859500Y-82259888D01*
X229859500Y-82574678D01*
X229874032Y-82647735D01*
X229874033Y-82647739D01*
X229874034Y-82647740D01*
X229929399Y-82730601D01*
X229929400Y-82730602D01*
X229929401Y-82730603D01*
X229932386Y-82732597D01*
X229937430Y-82738632D01*
X229938038Y-82739240D01*
X229937983Y-82739294D01*
X229977194Y-82786207D01*
X229987500Y-82835702D01*
X229987500Y-107029247D01*
X229967815Y-107096286D01*
X229951181Y-107116928D01*
X217616928Y-119451181D01*
X217555605Y-119484666D01*
X217529247Y-119487500D01*
X197470753Y-119487500D01*
X197403714Y-119467815D01*
X197383072Y-119451181D01*
X182048819Y-104116928D01*
X182015334Y-104055605D01*
X182012500Y-104029247D01*
X182012500Y-88400274D01*
X181973591Y-88204670D01*
X181973590Y-88204669D01*
X181973590Y-88204665D01*
X181909532Y-88050013D01*
X181897269Y-88020407D01*
X181897262Y-88020394D01*
X181786460Y-87854569D01*
X181786457Y-87854565D01*
X181645434Y-87713542D01*
X181645430Y-87713539D01*
X181479605Y-87602737D01*
X181479592Y-87602730D01*
X181295339Y-87526411D01*
X181295329Y-87526408D01*
X181099725Y-87487500D01*
X181099723Y-87487500D01*
X180900277Y-87487500D01*
X180900275Y-87487500D01*
X180704670Y-87526408D01*
X180704660Y-87526411D01*
X180520407Y-87602730D01*
X180520394Y-87602737D01*
X180354569Y-87713539D01*
X180354565Y-87713542D01*
X180213542Y-87854565D01*
X180213539Y-87854569D01*
X180102737Y-88020394D01*
X180102730Y-88020407D01*
X180026411Y-88204660D01*
X180026408Y-88204670D01*
X179987500Y-88400274D01*
X178004500Y-88400274D01*
X178004500Y-83727209D01*
X200647100Y-83727209D01*
X200647100Y-83872791D01*
X200684779Y-84013411D01*
X200684780Y-84013412D01*
X200684780Y-84013413D01*
X200757567Y-84139485D01*
X200757569Y-84139488D01*
X200757570Y-84139489D01*
X200860511Y-84242430D01*
X200986589Y-84315221D01*
X201127209Y-84352900D01*
X201127211Y-84352900D01*
X201272788Y-84352900D01*
X201272791Y-84352900D01*
X201413411Y-84315221D01*
X201413413Y-84315219D01*
X201413416Y-84315219D01*
X201416509Y-84313938D01*
X201463959Y-84304500D01*
X212039667Y-84304500D01*
X212106706Y-84324185D01*
X212127348Y-84340819D01*
X216956616Y-89170087D01*
X216983495Y-89210313D01*
X216984778Y-89213410D01*
X217057567Y-89339485D01*
X217057569Y-89339488D01*
X217057570Y-89339489D01*
X217160511Y-89442430D01*
X217286589Y-89515221D01*
X217427209Y-89552900D01*
X217427211Y-89552900D01*
X217572789Y-89552900D01*
X217572791Y-89552900D01*
X217713411Y-89515221D01*
X217713413Y-89515220D01*
X217720922Y-89512110D01*
X217721263Y-89512934D01*
X217724991Y-89511389D01*
X217724719Y-89510731D01*
X217732227Y-89507621D01*
X217732227Y-89507620D01*
X217732230Y-89507620D01*
X217847270Y-89441201D01*
X217941201Y-89347270D01*
X218007620Y-89232230D01*
X218007621Y-89232227D01*
X218010731Y-89224719D01*
X218011389Y-89224991D01*
X218012934Y-89221263D01*
X218012110Y-89220922D01*
X218015220Y-89213413D01*
X218020770Y-89192700D01*
X218052900Y-89072791D01*
X218052900Y-88927209D01*
X218015221Y-88786589D01*
X217942430Y-88660511D01*
X217839489Y-88557570D01*
X217839488Y-88557569D01*
X217839485Y-88557567D01*
X217713410Y-88484778D01*
X217710313Y-88483495D01*
X217670087Y-88456616D01*
X212609772Y-83396301D01*
X212609770Y-83396299D01*
X212584320Y-83381605D01*
X212536838Y-83354191D01*
X212536837Y-83354191D01*
X212494730Y-83329881D01*
X212494731Y-83329881D01*
X212462652Y-83321285D01*
X212366419Y-83295500D01*
X212366416Y-83295500D01*
X201463959Y-83295500D01*
X201416509Y-83286062D01*
X201413416Y-83284780D01*
X201358853Y-83270160D01*
X201272791Y-83247100D01*
X201127209Y-83247100D01*
X200986589Y-83284779D01*
X200986587Y-83284780D01*
X200986586Y-83284780D01*
X200860514Y-83357567D01*
X200860509Y-83357571D01*
X200757571Y-83460509D01*
X200757567Y-83460514D01*
X200684780Y-83586586D01*
X200684780Y-83586587D01*
X200684779Y-83586589D01*
X200647100Y-83727209D01*
X178004500Y-83727209D01*
X178004500Y-83560333D01*
X178024185Y-83493294D01*
X178040819Y-83472652D01*
X178865736Y-82647735D01*
X179803701Y-81709770D01*
X179852245Y-81625688D01*
X179870119Y-81594730D01*
X179904500Y-81466419D01*
X179904500Y-80554051D01*
X179924185Y-80487012D01*
X179972208Y-80443565D01*
X179976788Y-80441232D01*
X180116928Y-80339414D01*
X180239414Y-80216928D01*
X180341232Y-80076788D01*
X180419873Y-79922445D01*
X180473402Y-79757701D01*
X180500500Y-79586611D01*
X180500500Y-79413389D01*
X180473402Y-79242299D01*
X180419873Y-79077555D01*
X180341232Y-78923212D01*
X180239414Y-78783072D01*
X180116928Y-78660586D01*
X179976788Y-78558768D01*
X179822445Y-78480127D01*
X179657701Y-78426598D01*
X179657699Y-78426597D01*
X179657698Y-78426597D01*
X179526271Y-78405781D01*
X179486611Y-78399500D01*
X179313389Y-78399500D01*
X179273728Y-78405781D01*
X179142302Y-78426597D01*
X178977552Y-78480128D01*
X178823211Y-78558768D01*
X178743256Y-78616859D01*
X178683072Y-78660586D01*
X178683070Y-78660588D01*
X178683069Y-78660588D01*
X178560588Y-78783069D01*
X178560588Y-78783070D01*
X178560586Y-78783072D01*
X178529698Y-78825586D01*
X178458768Y-78923211D01*
X178380128Y-79077550D01*
X178379099Y-79080720D01*
X178378381Y-79081769D01*
X178378266Y-79082048D01*
X178378207Y-79082023D01*
X178339657Y-79138393D01*
X178275297Y-79165587D01*
X178206451Y-79153668D01*
X178154979Y-79106420D01*
X178143239Y-79080711D01*
X178111096Y-78981784D01*
X178014624Y-78792449D01*
X177975270Y-78738282D01*
X177975269Y-78738282D01*
X177342962Y-79370590D01*
X177325925Y-79307007D01*
X177260099Y-79192993D01*
X177167007Y-79099901D01*
X177052993Y-79034075D01*
X176989409Y-79017037D01*
X177621716Y-78384728D01*
X177567550Y-78345375D01*
X177557954Y-78340486D01*
X177507157Y-78292512D01*
X177490361Y-78224692D01*
X177512897Y-78158556D01*
X177557954Y-78119514D01*
X177567554Y-78114622D01*
X177621716Y-78075270D01*
X177621717Y-78075270D01*
X176989408Y-77442962D01*
X177052993Y-77425925D01*
X177167007Y-77360099D01*
X177260099Y-77267007D01*
X177325925Y-77152993D01*
X177342962Y-77089408D01*
X177975270Y-77721717D01*
X177975270Y-77721716D01*
X178014622Y-77667554D01*
X178065015Y-77568654D01*
X178112990Y-77517858D01*
X178180811Y-77501063D01*
X178246946Y-77523600D01*
X178290397Y-77578315D01*
X178299500Y-77624949D01*
X178299500Y-77834678D01*
X178314032Y-77907735D01*
X178314033Y-77907739D01*
X178332405Y-77935235D01*
X178369399Y-77990601D01*
X178448691Y-78043581D01*
X178452260Y-78045966D01*
X178452264Y-78045967D01*
X178525321Y-78060499D01*
X178525324Y-78060500D01*
X178525326Y-78060500D01*
X180274676Y-78060500D01*
X180274677Y-78060499D01*
X180347740Y-78045966D01*
X180430601Y-77990601D01*
X180485966Y-77907740D01*
X180500500Y-77834674D01*
X180500500Y-76085326D01*
X180500500Y-76085323D01*
X180500499Y-76085321D01*
X180485967Y-76012264D01*
X180485966Y-76012260D01*
X180430601Y-75929399D01*
X180347740Y-75874034D01*
X180347739Y-75874033D01*
X180347735Y-75874032D01*
X180274677Y-75859500D01*
X180274674Y-75859500D01*
X178525326Y-75859500D01*
X178525323Y-75859500D01*
X178452264Y-75874032D01*
X178452260Y-75874033D01*
X178369399Y-75929399D01*
X178314033Y-76012260D01*
X178314032Y-76012264D01*
X178299500Y-76085321D01*
X178299500Y-76295050D01*
X178279815Y-76362089D01*
X178227011Y-76407844D01*
X178157853Y-76417788D01*
X178094297Y-76388763D01*
X178065015Y-76351345D01*
X178014624Y-76252450D01*
X177975270Y-76198282D01*
X177975269Y-76198282D01*
X177342962Y-76830590D01*
X177325925Y-76767007D01*
X177260099Y-76652993D01*
X177167007Y-76559901D01*
X177052993Y-76494075D01*
X176989409Y-76477037D01*
X177621716Y-75844728D01*
X177567550Y-75805375D01*
X177378217Y-75708904D01*
X177176129Y-75643242D01*
X176966246Y-75610000D01*
X176753754Y-75610000D01*
X176543872Y-75643242D01*
X176543869Y-75643242D01*
X176341782Y-75708904D01*
X176152439Y-75805380D01*
X176098282Y-75844727D01*
X176098282Y-75844728D01*
X176730591Y-76477037D01*
X176667007Y-76494075D01*
X176552993Y-76559901D01*
X176459901Y-76652993D01*
X176394075Y-76767007D01*
X176377037Y-76830591D01*
X175744728Y-76198282D01*
X175744727Y-76198282D01*
X175705380Y-76252439D01*
X175608904Y-76441782D01*
X175543242Y-76643869D01*
X175543242Y-76643872D01*
X175510000Y-76853753D01*
X170800500Y-76853753D01*
X170800500Y-73427209D01*
X185197100Y-73427209D01*
X185197100Y-73572791D01*
X185234779Y-73713411D01*
X185234780Y-73713412D01*
X185234780Y-73713413D01*
X185307567Y-73839485D01*
X185307569Y-73839488D01*
X185307570Y-73839489D01*
X185410511Y-73942430D01*
X185536589Y-74015221D01*
X185677209Y-74052900D01*
X185677211Y-74052900D01*
X185822788Y-74052900D01*
X185822791Y-74052900D01*
X185963411Y-74015221D01*
X186089489Y-73942430D01*
X186192430Y-73839489D01*
X186265221Y-73713411D01*
X186265223Y-73713401D01*
X186266500Y-73710321D01*
X186293380Y-73670089D01*
X187672652Y-72290819D01*
X187733975Y-72257334D01*
X187760333Y-72254500D01*
X202716416Y-72254500D01*
X202716419Y-72254500D01*
X202844730Y-72220119D01*
X202887371Y-72195500D01*
X202959770Y-72153701D01*
X203272652Y-71840819D01*
X203333975Y-71807334D01*
X203360333Y-71804500D01*
X213339667Y-71804500D01*
X213406706Y-71824185D01*
X213427348Y-71840819D01*
X214356616Y-72770087D01*
X214383495Y-72810313D01*
X214384778Y-72813410D01*
X214457567Y-72939485D01*
X214457569Y-72939488D01*
X214457570Y-72939489D01*
X214560511Y-73042430D01*
X214560512Y-73042431D01*
X214560514Y-73042432D01*
X214586734Y-73057570D01*
X214686589Y-73115221D01*
X214827209Y-73152900D01*
X214827211Y-73152900D01*
X214972788Y-73152900D01*
X214972791Y-73152900D01*
X215113411Y-73115221D01*
X215239489Y-73042430D01*
X215342430Y-72939489D01*
X215415221Y-72813411D01*
X215452900Y-72672791D01*
X215452900Y-72527209D01*
X215415221Y-72386589D01*
X215342430Y-72260511D01*
X215239489Y-72157570D01*
X215239488Y-72157569D01*
X215239485Y-72157567D01*
X215113410Y-72084778D01*
X215110313Y-72083495D01*
X215070087Y-72056616D01*
X213909772Y-70896301D01*
X213909770Y-70896299D01*
X213884320Y-70881605D01*
X213836838Y-70854191D01*
X213836837Y-70854191D01*
X213794730Y-70829881D01*
X213794731Y-70829881D01*
X213762652Y-70821285D01*
X213666419Y-70795500D01*
X213666416Y-70795500D01*
X203360332Y-70795500D01*
X203293293Y-70775815D01*
X203272651Y-70759181D01*
X201609772Y-69096301D01*
X201609771Y-69096300D01*
X201609770Y-69096299D01*
X201577296Y-69077550D01*
X201536838Y-69054191D01*
X201536837Y-69054191D01*
X201494730Y-69029881D01*
X201494731Y-69029881D01*
X201462652Y-69021285D01*
X201366419Y-68995500D01*
X201366416Y-68995500D01*
X199554051Y-68995500D01*
X199487012Y-68975815D01*
X199443565Y-68927791D01*
X199441232Y-68923212D01*
X199441230Y-68923209D01*
X199441229Y-68923207D01*
X199411672Y-68882526D01*
X199339414Y-68783072D01*
X199216928Y-68660586D01*
X199076788Y-68558768D01*
X199076668Y-68558706D01*
X199072195Y-68556427D01*
X199021404Y-68508448D01*
X199004500Y-68445947D01*
X199004500Y-68184500D01*
X199024185Y-68117461D01*
X199076989Y-68071706D01*
X199128500Y-68060500D01*
X199374676Y-68060500D01*
X199374677Y-68060499D01*
X199447740Y-68045966D01*
X199530601Y-67990601D01*
X199585966Y-67907740D01*
X199600500Y-67834674D01*
X199600500Y-66562486D01*
X203500001Y-66562486D01*
X203510494Y-66665197D01*
X203565641Y-66831619D01*
X203565643Y-66831624D01*
X203657684Y-66980845D01*
X203781654Y-67104815D01*
X203930875Y-67196856D01*
X203930880Y-67196858D01*
X204097302Y-67252005D01*
X204097309Y-67252006D01*
X204200019Y-67262499D01*
X204424999Y-67262499D01*
X204925000Y-67262499D01*
X205149972Y-67262499D01*
X205149986Y-67262498D01*
X205252697Y-67252005D01*
X205419119Y-67196858D01*
X205419124Y-67196856D01*
X205568345Y-67104815D01*
X205692315Y-66980845D01*
X205784356Y-66831624D01*
X205784358Y-66831619D01*
X205839505Y-66665197D01*
X205839506Y-66665190D01*
X205849999Y-66562486D01*
X209150001Y-66562486D01*
X209160494Y-66665197D01*
X209215641Y-66831619D01*
X209215643Y-66831624D01*
X209307684Y-66980845D01*
X209431654Y-67104815D01*
X209580875Y-67196856D01*
X209580880Y-67196858D01*
X209747302Y-67252005D01*
X209747309Y-67252006D01*
X209850019Y-67262499D01*
X210074999Y-67262499D01*
X210575000Y-67262499D01*
X210799972Y-67262499D01*
X210799986Y-67262498D01*
X210902697Y-67252005D01*
X211069119Y-67196858D01*
X211069124Y-67196856D01*
X211218345Y-67104815D01*
X211342315Y-66980845D01*
X211402426Y-66883389D01*
X218399500Y-66883389D01*
X218399500Y-67056610D01*
X218421712Y-67196856D01*
X218426598Y-67227701D01*
X218480127Y-67392445D01*
X218558768Y-67546788D01*
X218660586Y-67686928D01*
X218783072Y-67809414D01*
X218923212Y-67911232D01*
X219077555Y-67989873D01*
X219242299Y-68043402D01*
X219413389Y-68070500D01*
X219413390Y-68070500D01*
X219586610Y-68070500D01*
X219586611Y-68070500D01*
X219757701Y-68043402D01*
X219922445Y-67989873D01*
X220076788Y-67911232D01*
X220216928Y-67809414D01*
X220339414Y-67686928D01*
X220441232Y-67546788D01*
X220519873Y-67392445D01*
X220520896Y-67389294D01*
X220521610Y-67388250D01*
X220521734Y-67387952D01*
X220521796Y-67387977D01*
X220560327Y-67331618D01*
X220624683Y-67304415D01*
X220693530Y-67316323D01*
X220745011Y-67363562D01*
X220756760Y-67389287D01*
X220788904Y-67488217D01*
X220885375Y-67677550D01*
X220924728Y-67731716D01*
X221557037Y-67099408D01*
X221574075Y-67162993D01*
X221639901Y-67277007D01*
X221732993Y-67370099D01*
X221847007Y-67435925D01*
X221910591Y-67452962D01*
X221309971Y-68053581D01*
X221388711Y-68170895D01*
X221389920Y-68174729D01*
X221392844Y-68177491D01*
X221400343Y-68207778D01*
X221409727Y-68237529D01*
X221408671Y-68241408D01*
X221409638Y-68245312D01*
X221399573Y-68274844D01*
X221391383Y-68304947D01*
X221388397Y-68307640D01*
X221387100Y-68311447D01*
X221342051Y-68350483D01*
X221332440Y-68355380D01*
X221278282Y-68394727D01*
X221278282Y-68394728D01*
X221910591Y-69027037D01*
X221847007Y-69044075D01*
X221732993Y-69109901D01*
X221639901Y-69202993D01*
X221574075Y-69317007D01*
X221557037Y-69380591D01*
X220924728Y-68748282D01*
X220924727Y-68748282D01*
X220885380Y-68802440D01*
X220885378Y-68802443D01*
X220834984Y-68901346D01*
X220787010Y-68952141D01*
X220719188Y-68968936D01*
X220653054Y-68946398D01*
X220609603Y-68891683D01*
X220600500Y-68845050D01*
X220600500Y-68635323D01*
X220600499Y-68635321D01*
X220585967Y-68562264D01*
X220585966Y-68562260D01*
X220559022Y-68521935D01*
X220530601Y-68479399D01*
X220475235Y-68442405D01*
X220447739Y-68424033D01*
X220447735Y-68424032D01*
X220374677Y-68409500D01*
X220374674Y-68409500D01*
X218625326Y-68409500D01*
X218625323Y-68409500D01*
X218552264Y-68424032D01*
X218552260Y-68424033D01*
X218469399Y-68479399D01*
X218414033Y-68562260D01*
X218414032Y-68562264D01*
X218399500Y-68635321D01*
X218399500Y-70384678D01*
X218414032Y-70457735D01*
X218414033Y-70457739D01*
X218414034Y-70457740D01*
X218469399Y-70540601D01*
X218552260Y-70595966D01*
X218552264Y-70595967D01*
X218625321Y-70610499D01*
X218625324Y-70610500D01*
X218625326Y-70610500D01*
X220374676Y-70610500D01*
X220374677Y-70610499D01*
X220447740Y-70595966D01*
X220530601Y-70540601D01*
X220585966Y-70457740D01*
X220600500Y-70384674D01*
X220600500Y-70174949D01*
X220620185Y-70107910D01*
X220672989Y-70062155D01*
X220742147Y-70052211D01*
X220805703Y-70081236D01*
X220834985Y-70118654D01*
X220885375Y-70217550D01*
X220924728Y-70271716D01*
X221557037Y-69639408D01*
X221574075Y-69702993D01*
X221639901Y-69817007D01*
X221732993Y-69910099D01*
X221847007Y-69975925D01*
X221910590Y-69992962D01*
X221278282Y-70625269D01*
X221278282Y-70625270D01*
X221332449Y-70664624D01*
X221521782Y-70761095D01*
X221723870Y-70826757D01*
X221933754Y-70860000D01*
X222146246Y-70860000D01*
X222356127Y-70826757D01*
X222356130Y-70826757D01*
X222558217Y-70761095D01*
X222747554Y-70664622D01*
X222801716Y-70625270D01*
X222801717Y-70625270D01*
X222716791Y-70540344D01*
X222169408Y-69992962D01*
X222232993Y-69975925D01*
X222347007Y-69910099D01*
X222440099Y-69817007D01*
X222505925Y-69702993D01*
X222522962Y-69639408D01*
X223155270Y-70271717D01*
X223155270Y-70271716D01*
X223194622Y-70217554D01*
X223291095Y-70028217D01*
X223356757Y-69826130D01*
X223356757Y-69826127D01*
X223390000Y-69616246D01*
X223390000Y-69403753D01*
X223356757Y-69193872D01*
X223356757Y-69193869D01*
X223291095Y-68991782D01*
X223194624Y-68802449D01*
X223155270Y-68748282D01*
X223155269Y-68748282D01*
X222522962Y-69380590D01*
X222505925Y-69317007D01*
X222440099Y-69202993D01*
X222347007Y-69109901D01*
X222232993Y-69044075D01*
X222169409Y-69027037D01*
X222801716Y-68394728D01*
X222747550Y-68355375D01*
X222737954Y-68350486D01*
X222687157Y-68302512D01*
X222670361Y-68234692D01*
X222692897Y-68168556D01*
X222737954Y-68129514D01*
X222747554Y-68124622D01*
X222801716Y-68085270D01*
X222801717Y-68085270D01*
X222169408Y-67452962D01*
X222232993Y-67435925D01*
X222347007Y-67370099D01*
X222440099Y-67277007D01*
X222505925Y-67162993D01*
X222522962Y-67099408D01*
X223155270Y-67731717D01*
X223155270Y-67731716D01*
X223194622Y-67677554D01*
X223291095Y-67488217D01*
X223351114Y-67303496D01*
X231500000Y-67303496D01*
X231500000Y-67696503D01*
X231538521Y-68087629D01*
X231615194Y-68473087D01*
X231729282Y-68849186D01*
X231879683Y-69212285D01*
X231879685Y-69212290D01*
X232064941Y-69558879D01*
X232064952Y-69558897D01*
X232283289Y-69885662D01*
X232283299Y-69885676D01*
X232498521Y-70147924D01*
X234098381Y-68548064D01*
X234181457Y-68656331D01*
X234343669Y-68818543D01*
X234451934Y-68901618D01*
X232852074Y-70501477D01*
X233114323Y-70716700D01*
X233114337Y-70716710D01*
X233441102Y-70935047D01*
X233441120Y-70935058D01*
X233787709Y-71120314D01*
X233787714Y-71120316D01*
X234150813Y-71270717D01*
X234526912Y-71384805D01*
X234912371Y-71461478D01*
X234912370Y-71461478D01*
X235303496Y-71500000D01*
X235696504Y-71500000D01*
X236087629Y-71461478D01*
X236473087Y-71384805D01*
X236849186Y-71270717D01*
X237212285Y-71120316D01*
X237212290Y-71120314D01*
X237558879Y-70935058D01*
X237558897Y-70935047D01*
X237885662Y-70716710D01*
X237885676Y-70716700D01*
X238147923Y-70501478D01*
X238147924Y-70501477D01*
X236548064Y-68901618D01*
X236656331Y-68818543D01*
X236818543Y-68656331D01*
X236901618Y-68548065D01*
X238501477Y-70147924D01*
X238501478Y-70147923D01*
X238716700Y-69885676D01*
X238716710Y-69885662D01*
X238935047Y-69558897D01*
X238935058Y-69558879D01*
X239120314Y-69212290D01*
X239120316Y-69212285D01*
X239270717Y-68849186D01*
X239384805Y-68473087D01*
X239461478Y-68087629D01*
X239500000Y-67696503D01*
X239500000Y-67303496D01*
X239461478Y-66912370D01*
X239384805Y-66526912D01*
X239270717Y-66150813D01*
X239120316Y-65787714D01*
X239120314Y-65787709D01*
X238935058Y-65441120D01*
X238935047Y-65441102D01*
X238716710Y-65114337D01*
X238716700Y-65114323D01*
X238501477Y-64852074D01*
X236901617Y-66451934D01*
X236818543Y-66343669D01*
X236656331Y-66181457D01*
X236548064Y-66098381D01*
X238147924Y-64498521D01*
X237885676Y-64283299D01*
X237885662Y-64283289D01*
X237558897Y-64064952D01*
X237558879Y-64064941D01*
X237212290Y-63879685D01*
X237212285Y-63879683D01*
X236849186Y-63729282D01*
X236473087Y-63615194D01*
X236087628Y-63538521D01*
X236087629Y-63538521D01*
X235696504Y-63500000D01*
X235303496Y-63500000D01*
X234912370Y-63538521D01*
X234526912Y-63615194D01*
X234150813Y-63729282D01*
X233787714Y-63879683D01*
X233787709Y-63879685D01*
X233441120Y-64064941D01*
X233441102Y-64064952D01*
X233114337Y-64283289D01*
X233114323Y-64283299D01*
X232852075Y-64498520D01*
X232852074Y-64498521D01*
X234451935Y-66098381D01*
X234343669Y-66181457D01*
X234181457Y-66343669D01*
X234098381Y-66451934D01*
X232498521Y-64852074D01*
X232498520Y-64852075D01*
X232283299Y-65114323D01*
X232283289Y-65114337D01*
X232064952Y-65441102D01*
X232064941Y-65441120D01*
X231879685Y-65787709D01*
X231879683Y-65787714D01*
X231729282Y-66150813D01*
X231615194Y-66526912D01*
X231538521Y-66912370D01*
X231500000Y-67303496D01*
X223351114Y-67303496D01*
X223356757Y-67286130D01*
X223356757Y-67286129D01*
X223357562Y-67281050D01*
X223357562Y-67281049D01*
X223390000Y-67076246D01*
X223390000Y-66863753D01*
X223356757Y-66653872D01*
X223356757Y-66653869D01*
X223291095Y-66451782D01*
X223194624Y-66262449D01*
X223155270Y-66208282D01*
X223155269Y-66208282D01*
X222522962Y-66840590D01*
X222505925Y-66777007D01*
X222440099Y-66662993D01*
X222347007Y-66569901D01*
X222232993Y-66504075D01*
X222169409Y-66487037D01*
X222801716Y-65854728D01*
X222747550Y-65815375D01*
X222558217Y-65718904D01*
X222356129Y-65653242D01*
X222146246Y-65620000D01*
X221933754Y-65620000D01*
X221723872Y-65653242D01*
X221723869Y-65653242D01*
X221521782Y-65718904D01*
X221332439Y-65815380D01*
X221278282Y-65854727D01*
X221278282Y-65854728D01*
X221910591Y-66487037D01*
X221847007Y-66504075D01*
X221732993Y-66569901D01*
X221639901Y-66662993D01*
X221574075Y-66777007D01*
X221557037Y-66840590D01*
X220924728Y-66208282D01*
X220924727Y-66208282D01*
X220885380Y-66262439D01*
X220788904Y-66451783D01*
X220756760Y-66550712D01*
X220717322Y-66608388D01*
X220652964Y-66635586D01*
X220584117Y-66623671D01*
X220532642Y-66576427D01*
X220520898Y-66550712D01*
X220519873Y-66547555D01*
X220441232Y-66393212D01*
X220339414Y-66253072D01*
X220216928Y-66130586D01*
X220076788Y-66028768D01*
X219922445Y-65950127D01*
X219757701Y-65896598D01*
X219757699Y-65896597D01*
X219757698Y-65896597D01*
X219626271Y-65875781D01*
X219586611Y-65869500D01*
X219413389Y-65869500D01*
X219373728Y-65875781D01*
X219242302Y-65896597D01*
X219077552Y-65950128D01*
X218923211Y-66028768D01*
X218845374Y-66085321D01*
X218783072Y-66130586D01*
X218783070Y-66130588D01*
X218783069Y-66130588D01*
X218660588Y-66253069D01*
X218660588Y-66253070D01*
X218660586Y-66253072D01*
X218630087Y-66295050D01*
X218558768Y-66393211D01*
X218480128Y-66547552D01*
X218426597Y-66712302D01*
X218399500Y-66883389D01*
X211402426Y-66883389D01*
X211434357Y-66831621D01*
X211489505Y-66665197D01*
X211489506Y-66665190D01*
X211499999Y-66562486D01*
X211500000Y-66562473D01*
X211500000Y-65162500D01*
X210575000Y-65162500D01*
X210575000Y-67262499D01*
X210074999Y-67262499D01*
X210075000Y-67262498D01*
X210075000Y-65162500D01*
X209150001Y-65162500D01*
X209150001Y-66562486D01*
X205849999Y-66562486D01*
X205850000Y-66562473D01*
X205850000Y-65162500D01*
X204925000Y-65162500D01*
X204925000Y-67262499D01*
X204424999Y-67262499D01*
X204425000Y-67262498D01*
X204425000Y-65162500D01*
X203500001Y-65162500D01*
X203500001Y-66562486D01*
X199600500Y-66562486D01*
X199600500Y-66085326D01*
X199600500Y-66085323D01*
X199600499Y-66085321D01*
X199585967Y-66012264D01*
X199585966Y-66012260D01*
X199530601Y-65929399D01*
X199447740Y-65874034D01*
X199447739Y-65874033D01*
X199447735Y-65874032D01*
X199374677Y-65859500D01*
X199374674Y-65859500D01*
X197625326Y-65859500D01*
X197625323Y-65859500D01*
X197552264Y-65874032D01*
X197552260Y-65874033D01*
X197469399Y-65929399D01*
X197414033Y-66012260D01*
X197414032Y-66012264D01*
X197399500Y-66085321D01*
X197399500Y-66295050D01*
X197379815Y-66362089D01*
X197327011Y-66407844D01*
X197257853Y-66417788D01*
X197194297Y-66388763D01*
X197165015Y-66351345D01*
X197114624Y-66252450D01*
X197075270Y-66198282D01*
X197075269Y-66198282D01*
X196442962Y-66830590D01*
X196425925Y-66767007D01*
X196360099Y-66652993D01*
X196267007Y-66559901D01*
X196152993Y-66494075D01*
X196089409Y-66477037D01*
X196721716Y-65844728D01*
X196667550Y-65805375D01*
X196478217Y-65708904D01*
X196276129Y-65643242D01*
X196066246Y-65610000D01*
X195853754Y-65610000D01*
X195643872Y-65643242D01*
X195643869Y-65643242D01*
X195441782Y-65708904D01*
X195252439Y-65805380D01*
X195198282Y-65844727D01*
X195198282Y-65844728D01*
X195830591Y-66477037D01*
X195767007Y-66494075D01*
X195652993Y-66559901D01*
X195559901Y-66652993D01*
X195494075Y-66767007D01*
X195477037Y-66830591D01*
X194844728Y-66198282D01*
X194844727Y-66198282D01*
X194805380Y-66252439D01*
X194708904Y-66441782D01*
X194643242Y-66643869D01*
X194643242Y-66643872D01*
X194610000Y-66853753D01*
X194610000Y-67066246D01*
X194643242Y-67276127D01*
X194643242Y-67276130D01*
X194708904Y-67478217D01*
X194805375Y-67667550D01*
X194844728Y-67721716D01*
X195477037Y-67089408D01*
X195494075Y-67152993D01*
X195559901Y-67267007D01*
X195652993Y-67360099D01*
X195767007Y-67425925D01*
X195830591Y-67442962D01*
X195229971Y-68043581D01*
X195308711Y-68160895D01*
X195309920Y-68164729D01*
X195312844Y-68167491D01*
X195320343Y-68197778D01*
X195329727Y-68227529D01*
X195328671Y-68231408D01*
X195329638Y-68235312D01*
X195319573Y-68264844D01*
X195311383Y-68294947D01*
X195308397Y-68297640D01*
X195307100Y-68301447D01*
X195262051Y-68340483D01*
X195252440Y-68345380D01*
X195198282Y-68384727D01*
X195198282Y-68384728D01*
X195830591Y-69017037D01*
X195767007Y-69034075D01*
X195652993Y-69099901D01*
X195559901Y-69192993D01*
X195494075Y-69307007D01*
X195477037Y-69370590D01*
X194844728Y-68738282D01*
X194844727Y-68738282D01*
X194805380Y-68792439D01*
X194708904Y-68981782D01*
X194643242Y-69183869D01*
X194643242Y-69183872D01*
X194610000Y-69393753D01*
X194610000Y-69606246D01*
X194643242Y-69816127D01*
X194643242Y-69816130D01*
X194708904Y-70018217D01*
X194805375Y-70207550D01*
X194844728Y-70261716D01*
X195477037Y-69629408D01*
X195494075Y-69692993D01*
X195559901Y-69807007D01*
X195652993Y-69900099D01*
X195767007Y-69965925D01*
X195830590Y-69982962D01*
X195198282Y-70615269D01*
X195198282Y-70615270D01*
X195252449Y-70654624D01*
X195441782Y-70751095D01*
X195643870Y-70816757D01*
X195853754Y-70850000D01*
X196066246Y-70850000D01*
X196276127Y-70816757D01*
X196276130Y-70816757D01*
X196478217Y-70751095D01*
X196667554Y-70654622D01*
X196721716Y-70615270D01*
X196721717Y-70615270D01*
X196089408Y-69982962D01*
X196152993Y-69965925D01*
X196267007Y-69900099D01*
X196360099Y-69807007D01*
X196425925Y-69692993D01*
X196442962Y-69629408D01*
X197075270Y-70261717D01*
X197075270Y-70261716D01*
X197114622Y-70207554D01*
X197211096Y-70018215D01*
X197243239Y-69919288D01*
X197282676Y-69861612D01*
X197347034Y-69834413D01*
X197415880Y-69846327D01*
X197467357Y-69893571D01*
X197479100Y-69919284D01*
X197480127Y-69922446D01*
X197551312Y-70062155D01*
X197558768Y-70076788D01*
X197660586Y-70216928D01*
X197783072Y-70339414D01*
X197923212Y-70441232D01*
X198077555Y-70519873D01*
X198242299Y-70573402D01*
X198413389Y-70600500D01*
X198413390Y-70600500D01*
X198586610Y-70600500D01*
X198586611Y-70600500D01*
X198757701Y-70573402D01*
X198922445Y-70519873D01*
X199076788Y-70441232D01*
X199216928Y-70339414D01*
X199339414Y-70216928D01*
X199441232Y-70076788D01*
X199443565Y-70072208D01*
X199491536Y-70021412D01*
X199554051Y-70004500D01*
X201039667Y-70004500D01*
X201106706Y-70024185D01*
X201127348Y-70040819D01*
X201701799Y-70615270D01*
X202120349Y-71033819D01*
X202153834Y-71095142D01*
X202148850Y-71164833D01*
X202106978Y-71220767D01*
X202041514Y-71245184D01*
X202032668Y-71245500D01*
X187433581Y-71245500D01*
X187343387Y-71269667D01*
X187305265Y-71279882D01*
X187263161Y-71304191D01*
X187190236Y-71346295D01*
X187190227Y-71346301D01*
X185579909Y-72956618D01*
X185539689Y-72983495D01*
X185536585Y-72984780D01*
X185410517Y-73057565D01*
X185410509Y-73057571D01*
X185307571Y-73160509D01*
X185307567Y-73160514D01*
X185234780Y-73286586D01*
X185234780Y-73286587D01*
X185234779Y-73286589D01*
X185197100Y-73427209D01*
X170800500Y-73427209D01*
X170800500Y-67303496D01*
X171500000Y-67303496D01*
X171500000Y-67696503D01*
X171538521Y-68087629D01*
X171615194Y-68473087D01*
X171729282Y-68849186D01*
X171879683Y-69212285D01*
X171879685Y-69212290D01*
X172064941Y-69558879D01*
X172064952Y-69558897D01*
X172283289Y-69885662D01*
X172283299Y-69885676D01*
X172498521Y-70147924D01*
X174098381Y-68548064D01*
X174181457Y-68656331D01*
X174343669Y-68818543D01*
X174451934Y-68901618D01*
X172852074Y-70501477D01*
X173114323Y-70716700D01*
X173114337Y-70716710D01*
X173441102Y-70935047D01*
X173441120Y-70935058D01*
X173787709Y-71120314D01*
X173787714Y-71120316D01*
X174150813Y-71270717D01*
X174526912Y-71384805D01*
X174912371Y-71461478D01*
X174912370Y-71461478D01*
X175303496Y-71500000D01*
X175696504Y-71500000D01*
X176087629Y-71461478D01*
X176473087Y-71384805D01*
X176849186Y-71270717D01*
X177212285Y-71120316D01*
X177212290Y-71120314D01*
X177558879Y-70935058D01*
X177558897Y-70935047D01*
X177885662Y-70716710D01*
X177885675Y-70716700D01*
X178147924Y-70501477D01*
X176548064Y-68901618D01*
X176656331Y-68818543D01*
X176818543Y-68656331D01*
X176901618Y-68548065D01*
X178501477Y-70147924D01*
X178501478Y-70147923D01*
X178716700Y-69885676D01*
X178716710Y-69885662D01*
X178935047Y-69558897D01*
X178935058Y-69558879D01*
X179057168Y-69330428D01*
X179057168Y-69330427D01*
X179120317Y-69212283D01*
X179270717Y-68849186D01*
X179384805Y-68473087D01*
X179461478Y-68087629D01*
X179468547Y-68015857D01*
X179500000Y-67696503D01*
X179500000Y-67303496D01*
X179461478Y-66912373D01*
X179453661Y-66873073D01*
X179453661Y-66873072D01*
X179449818Y-66853753D01*
X184946604Y-66853753D01*
X184946604Y-67066246D01*
X184979846Y-67276127D01*
X184979846Y-67276130D01*
X185045508Y-67478217D01*
X185141979Y-67667550D01*
X185181332Y-67721716D01*
X185813641Y-67089408D01*
X185830679Y-67152993D01*
X185896505Y-67267007D01*
X185989597Y-67360099D01*
X186103611Y-67425925D01*
X186167195Y-67442962D01*
X185566575Y-68043581D01*
X185645315Y-68160895D01*
X185646524Y-68164729D01*
X185649448Y-68167491D01*
X185656947Y-68197778D01*
X185666331Y-68227529D01*
X185665275Y-68231408D01*
X185666242Y-68235312D01*
X185656177Y-68264844D01*
X185647987Y-68294947D01*
X185645001Y-68297640D01*
X185643704Y-68301447D01*
X185598655Y-68340483D01*
X185589044Y-68345380D01*
X185534886Y-68384727D01*
X185534886Y-68384728D01*
X186167195Y-69017037D01*
X186103611Y-69034075D01*
X185989597Y-69099901D01*
X185896505Y-69192993D01*
X185830679Y-69307007D01*
X185813641Y-69370591D01*
X185181332Y-68738282D01*
X185181331Y-68738282D01*
X185141984Y-68792439D01*
X185045508Y-68981782D01*
X184979846Y-69183869D01*
X184979846Y-69183872D01*
X184946604Y-69393753D01*
X184946604Y-69606246D01*
X184979846Y-69816127D01*
X184979846Y-69816130D01*
X185045508Y-70018217D01*
X185141979Y-70207550D01*
X185181332Y-70261716D01*
X185813641Y-69629408D01*
X185830679Y-69692993D01*
X185896505Y-69807007D01*
X185989597Y-69900099D01*
X186103611Y-69965925D01*
X186167194Y-69982962D01*
X185534886Y-70615269D01*
X185534886Y-70615270D01*
X185589053Y-70654624D01*
X185778386Y-70751095D01*
X185980474Y-70816757D01*
X186190358Y-70850000D01*
X186402850Y-70850000D01*
X186612731Y-70816757D01*
X186612734Y-70816757D01*
X186814821Y-70751095D01*
X187004158Y-70654622D01*
X187058320Y-70615270D01*
X187058321Y-70615270D01*
X186426012Y-69982962D01*
X186489597Y-69965925D01*
X186603611Y-69900099D01*
X186696703Y-69807007D01*
X186762529Y-69692993D01*
X186779566Y-69629408D01*
X187411874Y-70261717D01*
X187411874Y-70261716D01*
X187451226Y-70207554D01*
X187547700Y-70018215D01*
X187579843Y-69919288D01*
X187619280Y-69861612D01*
X187683638Y-69834413D01*
X187752484Y-69846327D01*
X187803961Y-69893571D01*
X187815704Y-69919284D01*
X187816731Y-69922446D01*
X187887916Y-70062155D01*
X187895372Y-70076788D01*
X187997190Y-70216928D01*
X188119676Y-70339414D01*
X188259816Y-70441232D01*
X188414159Y-70519873D01*
X188578903Y-70573402D01*
X188749993Y-70600500D01*
X188749994Y-70600500D01*
X188923214Y-70600500D01*
X188923215Y-70600500D01*
X189094305Y-70573402D01*
X189259049Y-70519873D01*
X189413392Y-70441232D01*
X189553532Y-70339414D01*
X189676018Y-70216928D01*
X189777836Y-70076788D01*
X189856477Y-69922445D01*
X189910006Y-69757701D01*
X189937104Y-69586611D01*
X189937104Y-69413389D01*
X189910006Y-69242299D01*
X189856477Y-69077555D01*
X189777836Y-68923212D01*
X189676018Y-68783072D01*
X189553532Y-68660586D01*
X189413392Y-68558768D01*
X189259049Y-68480127D01*
X189094305Y-68426598D01*
X189094303Y-68426597D01*
X189094302Y-68426597D01*
X188962875Y-68405781D01*
X188923215Y-68399500D01*
X188749993Y-68399500D01*
X188710332Y-68405781D01*
X188578906Y-68426597D01*
X188414156Y-68480128D01*
X188259815Y-68558768D01*
X188179860Y-68616859D01*
X188119676Y-68660586D01*
X188119674Y-68660588D01*
X188119673Y-68660588D01*
X187997192Y-68783069D01*
X187997192Y-68783070D01*
X187997190Y-68783072D01*
X187983116Y-68802443D01*
X187895372Y-68923211D01*
X187816732Y-69077550D01*
X187815703Y-69080720D01*
X187814985Y-69081769D01*
X187814870Y-69082048D01*
X187814811Y-69082023D01*
X187776261Y-69138393D01*
X187711901Y-69165587D01*
X187643055Y-69153668D01*
X187591583Y-69106420D01*
X187579843Y-69080711D01*
X187547700Y-68981784D01*
X187451228Y-68792449D01*
X187411874Y-68738282D01*
X187411873Y-68738282D01*
X186779566Y-69370590D01*
X186762529Y-69307007D01*
X186696703Y-69192993D01*
X186603611Y-69099901D01*
X186489597Y-69034075D01*
X186426013Y-69017037D01*
X187058320Y-68384728D01*
X187004154Y-68345375D01*
X186994558Y-68340486D01*
X186943761Y-68292512D01*
X186926965Y-68224692D01*
X186949501Y-68158556D01*
X186994558Y-68119514D01*
X187004158Y-68114622D01*
X187058320Y-68075270D01*
X187058321Y-68075270D01*
X186426012Y-67442962D01*
X186489597Y-67425925D01*
X186603611Y-67360099D01*
X186696703Y-67267007D01*
X186762529Y-67152993D01*
X186779566Y-67089408D01*
X187411874Y-67721717D01*
X187411874Y-67721716D01*
X187451226Y-67667554D01*
X187501619Y-67568654D01*
X187549594Y-67517858D01*
X187617415Y-67501063D01*
X187683550Y-67523600D01*
X187727001Y-67578315D01*
X187736104Y-67624949D01*
X187736104Y-67834678D01*
X187750636Y-67907735D01*
X187750637Y-67907739D01*
X187752971Y-67911232D01*
X187806003Y-67990601D01*
X187885027Y-68043402D01*
X187888864Y-68045966D01*
X187888868Y-68045967D01*
X187961925Y-68060499D01*
X187961928Y-68060500D01*
X187961930Y-68060500D01*
X189711280Y-68060500D01*
X189711281Y-68060499D01*
X189784344Y-68045966D01*
X189867205Y-67990601D01*
X189922570Y-67907740D01*
X189937104Y-67834674D01*
X189937104Y-66085326D01*
X189937104Y-66085323D01*
X189937103Y-66085321D01*
X189922571Y-66012264D01*
X189922570Y-66012260D01*
X189867205Y-65929399D01*
X189784344Y-65874034D01*
X189784343Y-65874033D01*
X189784339Y-65874032D01*
X189711281Y-65859500D01*
X189711278Y-65859500D01*
X187961930Y-65859500D01*
X187961927Y-65859500D01*
X187888868Y-65874032D01*
X187888864Y-65874033D01*
X187806003Y-65929399D01*
X187750637Y-66012260D01*
X187750636Y-66012264D01*
X187736104Y-66085321D01*
X187736104Y-66295050D01*
X187716419Y-66362089D01*
X187663615Y-66407844D01*
X187594457Y-66417788D01*
X187530901Y-66388763D01*
X187501619Y-66351345D01*
X187451228Y-66252450D01*
X187411874Y-66198282D01*
X187411873Y-66198282D01*
X186779566Y-66830590D01*
X186762529Y-66767007D01*
X186696703Y-66652993D01*
X186603611Y-66559901D01*
X186489597Y-66494075D01*
X186426013Y-66477037D01*
X187058320Y-65844728D01*
X187004154Y-65805375D01*
X186814821Y-65708904D01*
X186612733Y-65643242D01*
X186402850Y-65610000D01*
X186190358Y-65610000D01*
X185980476Y-65643242D01*
X185980473Y-65643242D01*
X185778386Y-65708904D01*
X185589043Y-65805380D01*
X185534886Y-65844727D01*
X185534886Y-65844728D01*
X186167195Y-66477037D01*
X186103611Y-66494075D01*
X185989597Y-66559901D01*
X185896505Y-66652993D01*
X185830679Y-66767007D01*
X185813641Y-66830591D01*
X185181332Y-66198282D01*
X185181331Y-66198282D01*
X185141984Y-66252439D01*
X185045508Y-66441782D01*
X184979846Y-66643869D01*
X184979846Y-66643872D01*
X184946604Y-66853753D01*
X179449818Y-66853753D01*
X179384805Y-66526912D01*
X179270717Y-66150813D01*
X179183163Y-65939440D01*
X179183162Y-65939438D01*
X179120319Y-65787721D01*
X179120314Y-65787709D01*
X178935058Y-65441120D01*
X178935047Y-65441102D01*
X178760604Y-65180029D01*
X178760603Y-65180028D01*
X178716707Y-65114332D01*
X178716700Y-65114323D01*
X178501477Y-64852074D01*
X176901617Y-66451934D01*
X176818543Y-66343669D01*
X176656331Y-66181457D01*
X176548064Y-66098381D01*
X178147924Y-64498521D01*
X177885676Y-64283299D01*
X177885662Y-64283289D01*
X177558897Y-64064952D01*
X177558879Y-64064941D01*
X177212290Y-63879685D01*
X177212285Y-63879683D01*
X176849186Y-63729282D01*
X176473087Y-63615194D01*
X176087628Y-63538521D01*
X176087629Y-63538521D01*
X175696504Y-63500000D01*
X175303496Y-63500000D01*
X174912370Y-63538521D01*
X174526912Y-63615194D01*
X174150813Y-63729282D01*
X173787714Y-63879683D01*
X173787709Y-63879685D01*
X173441120Y-64064941D01*
X173441102Y-64064952D01*
X173114337Y-64283289D01*
X173114323Y-64283299D01*
X172852075Y-64498520D01*
X172852074Y-64498521D01*
X174451935Y-66098381D01*
X174343669Y-66181457D01*
X174181457Y-66343669D01*
X174098381Y-66451934D01*
X172498521Y-64852074D01*
X172498520Y-64852075D01*
X172283299Y-65114323D01*
X172283289Y-65114337D01*
X172064952Y-65441102D01*
X172064941Y-65441120D01*
X171879685Y-65787709D01*
X171879683Y-65787714D01*
X171729282Y-66150813D01*
X171615194Y-66526912D01*
X171538521Y-66912370D01*
X171500000Y-67303496D01*
X170800500Y-67303496D01*
X170800500Y-62924500D01*
X170820185Y-62857461D01*
X170872989Y-62811706D01*
X170924500Y-62800500D01*
X203462436Y-62800500D01*
X203529475Y-62820185D01*
G37*
%TD.AperFunction*%
%TD*%
M02*
